<mxfile host="app.diagrams.net" modified="2023-08-28T08:03:46.928Z" agent="Mozilla/5.0 (Macintosh; Intel Mac OS X 10_15_7) AppleWebKit/537.36 (KHTML, like Gecko) Chrome/114.0.0.0 Safari/537.36" etag="CuwMRqQ03yHfzpfU4Qu1" version="21.6.6" type="github">
  <diagram name="Page-1" id="-S0vMJgSOeUa3yra3O5a">
    <mxGraphModel dx="2585" dy="2122" grid="1" gridSize="10" guides="1" tooltips="1" connect="1" arrows="1" fold="1" page="1" pageScale="1" pageWidth="850" pageHeight="1100" math="0" shadow="0">
      <root>
        <mxCell id="0" />
        <mxCell id="1" parent="0" />
        <mxCell id="ZN_Vx1n1vfZxGkJz-T1u-1" value="" style="rounded=0;whiteSpace=wrap;html=1;dashed=1;dashPattern=12 12;fillColor=#f5f5f5;strokeColor=#666666;fontColor=#333333;" parent="1" vertex="1">
          <mxGeometry x="-220" y="-140" width="1050" height="1040" as="geometry" />
        </mxCell>
        <mxCell id="ZN_Vx1n1vfZxGkJz-T1u-2" value="" style="shape=image;verticalLabelPosition=bottom;labelBackgroundColor=default;verticalAlign=top;aspect=fixed;imageAspect=0;image=data:image/jpeg,/9j/4AAQSkZJRgABAQAAAQABAAD/2wCEAAkGBxIQEBUQExASFhUVFxUXFxIQFhUVGhgZGBIWFxcXFRgYHSggGhonGxgWIjEiJSkrLi4uFx81ODMtNygtLysBCgoKDg0OGxAQGy0lICUtLS0rKy0tLS0tMi8tLS0tLS8vLS0tLS0tLS0tLS0tKystLS0vLS8tLSstLS0tLS0tLf/AABEIAOEA4QMBIgACEQEDEQH/xAAcAAEAAgMBAQEAAAAAAAAAAAAABgcBBAUDAgj/xABBEAABAwIACwQIBAYCAgMAAAABAAIDBBEFBhIhMUFRYXGBkQcTIqEUMkJSYnKxwSOC0fAVM5KiwuFD8SREU2Oy/8QAGwEAAgMBAQEAAAAAAAAAAAAAAAUDBAYBAgf/xAA6EQABAgMDCwMCBAYDAQAAAAABAAIDBBEFITESE0FRYXGBkbHB0aHh8CIyFCMz8TRCQ1KisgZignL/2gAMAwEAAhEDEQA/ALxREQhEREIRERCEREQhEWtWVccLcuR7WNHtPIA4Z9ah+FO0aBmaCN0p9534bfMZR6BTQpeLF+xtfmvBRRY8OF95p81Yqcr5c4DOTbiqfr8d66bRIIh7sTQP7nXd0IXDqZpJTeSR7zte5z//ANFX2WS8/e4D18D1VB9qwx9jSfTyfRXbPhulYbOqYQdhkZfpe61XY2UQ/wDaZyyj9AqaipS42AcSdVvsF04MXJXaQGfOb/quTEtJSoBmIwbXCpArurjwXIU3NRzSDCruqfW4DjRWi3G2iP8A7LOYcPqFsw4fpH5m1UBOzvGA9CVU0+LkoGbIfuDv1subPRlhyXNIOy1l5l4EhNV/Dxg6mNC0kcBfzXY01Ny/60Km01pzvCvuN4cLggjaDdfa/P8ACXxnKY9zDtY4tPULt4PxxrYf+YyAezMMvq71vNSPsl4+xwO+o8rjLVYfvaRuv8H0VyooDgvtIjdZtRC5nxx+JvEg5wOF1McG4ShqG5cMjHjXknOPmGkHcUvjS0WF97abdHPBX4UxCi/Ya7NPLFbqIihUyIiIQiIiEIiIhCIiIQiIiEIiIhCIi4+HsOQ0UeXK7Ob5MbfWedw2bScwXprXOIa0VJXlzg0ZTjQLpzzNY0ve4Na0XLnEAAbSToUCxh7QgLx0jbnR3sgzflbr4noVE8PYwz1zryHJYD4YmXyRsJ95288rLnMiTuWs1rBlRbzq0e/TeksxaTn/AEwrhr0+3XcvusqZah/eSyOe7a83tuA0AbgvhsS3qKhfK4MjY57jqaL8zsG8qZYKxCJs6okt8EdiebjmHIHirsWYhwR9RpqHgD2VSFLRIpq0V2+/7qCCNdClwTK+xEbw0+25pDeZOnkrQgwXS0jcpsTQRocRlPJ3F2dcitqnSuynchqA3LMWv/yhsq3JhNq84V0bSB6Ct52Xp3JWHnDlRHXaadK+1y5dFRMhbZo/MdJ/exbVl92W1TYOkkFw3NtObptXzgvjzcYuNXvOJxPHZ6DC4LWNEOAwNFGtGAwC0bLxqaVsrclwuPMbwV1p8EysF8m4+E/bStKyCI8tEDiHMcLwbwbtIPcLtWRWkXEYEYjiolWYElYTkte9o9poJsN9lyzGrEp5nRuD2mxC7notPWsvJEwu13FnDg4Z19Esf/lH4gCHHb9Y0i6u2mFdYu1i64ZWesIMOXCN2o6Nlcd2O9U26JYhe+JwfG9zHDQ5hIPUKxcKYgg3dBLk/BJnHJwFxzB4qF4RwZLTuyJY3MOq+g/KRmPJamDNQo1zTw08tPqkMaViQjVw4++j0UkwD2hPbaOrbcf/ADMFnD52DMeItwKsGiq45mCSN7XNOhzTccNx3KinxLawRheejky4n2v6zHZ2u+YffTvVWZs1j/qhXHVo9vlytS9ovZdFvGvT79VeiLgYtYzw1rbDwyAXdE45+LT7Td/Wy76RPY5ji1woU6Y9r25TTUIiIvK9oiIhCIiIQiIiEIiLkYxYaZRwGV2d2hjL2LnahuGsnUF6a1znBrRUleXODQXONAFr404xx0Md8zpHepHt+J2xo8/pUdbVyVMpmlcXPdrOoag0agNixW1clTK6aV2U9xznUNgA1AbF9xR6rdFpZSUbLt1uOJ7DZ1Wdmpp0w7U0YDudvRfLI1LcXMTpJ7SS3jj0j3njcD6o3nprXZxUxRDAJqht36WxnQ3YX7XbtXHRNVRm7RoSyFz8eeWtXZWQ/mi8vPhaeDsHxQMyImBo3aTvcdJPFelVUtiblOPAbeCVNQ2NuU7kNqjVXUuldlO5DUFkbUtRsqKYvOAN/E9hp3VKfy0tl7Gj5QL5q6l0rsp3IagvGy+rJZYd8R0Rxe41JxPz5oTgAAUC3cD0Ykdc5w2x56hw0qTLi4vOFnt15vuu0ttYcNjZNrm4uqTvBI9PmJSmbcTFIOhFHsO0YaRI0Wyj4v1+qkK5eHXDurayR5XUtrw2PlH5WgVGwjDxxXmVcWxRTTco2QvunmdG4OabEfvosELBCwrHlpq24hOzfcVKqCtbK24zEaW7F61VMyVhZIxrmnS1wuP+96iVPM6Nwc02I/fRSigrWytuMxGkbFtLLtQTIyH3PHCu0ajrHbBPNSubvF7emw7FCMYcSXMvJTXe3SYjncPlOsbtPFQmSNX0orjRiqypBljAbNr1CTc7Y7f13a+VtEg5MU8fPnmkE1Z4IyofLx45UVVRvfE8SMcWvabtc3MQVa2JuNbaxvdvs2dozjU8D2mfcalWVTA5jixzSHNNi05iDsK1mPdG8SMcWuabtc3SCExmZZkw2hx0HV7JbLzD5d1RhpHzSr/RR7FDGJtbDc2bKywkYPJzfhPkbjeZCs1EY6G4tcLwtGx7XtDm4FERF4XtEREIRERCF4zzNja57iA1oLnOOgAC5JVLYy4ZdW1BlNwweGNh1NvpPxHSeQ1BSztOw5YNo2HObPkts9hvM5zwbtUDhYntmSwY3OuxOG736b0jtKYy3ZpuAx3+3XcvSNisXEnFrIAqpm+M52MPsj3iPeOrZx0cfEfAPfv754/DjOg6Hu0gcBmJ5b1ZyjtGbI/Kad/jzy1qWQlf6ruHnwi16mobG3Kd02r7nlDGlx0BRiqqXSuynchsWRtS0myjaC95wHc9hp5p/LwDEN+CVdS6V2U7kNi8rIsrCxIjoji95qTiU2ADRQLCWWbLNlHVdXpSzmNwcOm0LvU9ex49ax2OzKO2SyZSNqxpSrWgFp0HXs1eo2VvVeLLtiXnFSWaujYLl3TP9FwK6qMrrnMBoGz/AGvCyL3PWvGm25BAa3UNO8+w43LsGXbDNcSvMhYIXovkhLFZXmQvqnmdG4PabEef+kIXyQpWPLTlNuIXbjcVK6CtbK24zEaW7FuKFU87o3B7TYjz/wBKV0FUJWBw4EbDsW1su0xNDIf949RrHcccMFEzLZo5TcOmxcHG/FwVTDJGB3zRwywPZO/YeXCrpY9RHI/dXyq/x/wFkn0uMZiQJQNROYO56DvttK1tnTVCITuHjwkE/K1Bit4+fPysIwVhCSjnbPHpbpbewc0+s07j5EA6ldeDa5k8TJmG7Xi43bQd4NweCo6VilnZthzupTSPPgkzsvqfbR+YeYG1WbRlhFZnG4j1HtjzVSz5jNvzZwPoffDkrRRESBP0REQhFrVtW2GN8rzZrGlx4AXzb1sqDdqOEcinZTg55XXd8rLHzcW9CppeFnYjWa/h9FFHi5qGX6vg9VXlXVPqJnzP9aRxcd2wDcBYcltYPpHSyNiYLueQ0c9Z3DTyWnC1T7s4wbcvqSPV8LOJF3HpYfmK0kxFEGGXasB6ALOy0IxYgadOPf5tU0wZQtp4WQt0NFr7TpLjvJuea3ERZYkk1K0wAAoFxMPzeqzVbKP0H73rkhb+Gh+LyH2WiF89taIXzkQnQacrvfinUuKQmoFmyBZSxSkrNllcmrc7LN76c3DUvLKO0r2IanEvUVqu2vlcbKO0plHaV3NFd/DHWu1ZfJC49ztKZR2lGb2o/DnWuuQsELj5R2lLnaV3IXfw51rqlfJSK+SL6bLJXAol8Lo4AnyZcnU/NzGcffqueVsYLH47Pm/VXZCIWTMNw/uA5mh9CvEZodDcDqKl68Z4WyNcxwBa4EEHWCLEL2RfQ0gVLYdwYaad8Jz5J8JOtp9U9PMFcdxLXBzSQ5pBBGkEG4I5qz+0XBuXC2cDPGcl3yuObo639RVaTNWok4+ehBxxwO8LMzkDNRC0bxxV04vYTFVTRzjS5viA1OGZw6g8rLqKt+yvCNnS0pOY/iM4izXeWR0KshZ+ag5mK5gw0bin8rGzsIP06d+lERFXU6Knu0Ct77CDxfNEGsHIZTv7nEclb5Nhc6lQc1QZZXynS9znH8zi77prZLKvc/UOvsCldqvpDazWenuQvSMK5cXKH0elijtnyQXfM7xO8zbkqrwBS97UxR2zOc24+EG7vIFXSvdqxPtZx7DuvNmQ/ufw7nsiIiTpsuNh6H1ZNmY/b7rkBSyRgcC0i4OkKPV1EYjtadBWPt6z3NeZlguP3bDhXcbtxxTGUjAjIOOhawWVhZWaVxa0tY1ptYm2xfHp7dh8kmobkkO05868/wCHn3h0UgDFOBCpf3Xp6e3YfJPT27D5Lz/h594dE/h594dEUYu5MH5Vevp7dh8k9Pb7p8l5fw8+8Oifw8+8OiKMRkwflV6GvbsPkvn01uw+S+Tg8+8Oix/Dz7w6LtGLtIXyq22uuLjWsFZYzJAGxYK4FEvgrqYv013mTU0WHP8AZ6rUpKV0rrN5u1BSengbG0NaMw/edP7EkXRIojuH0tw2n2xJ1gDWqk5HDWZAxPRe6Ii2SUrWraUSxPidoe0tPMWVJVUJY4scM7SWkbwbHzV7KpceKXu62XNmfZw/MM/9wcmtlPo5zNleXz0Su04dWB+q7n79VycW6zuK2GS9gHBrvld4HeRvyV4L8+VDVe2CajvYIpffYxx4loJ81Ja7PsfvHcd14sp9z2bj27BbqIiTJuubjBNkUk7xpEUhHHINvNUhThXLjo61BP8AIB1cB91TUCe2UPy3Hb290ktQ/mNGzv7KX9n0GVWNd7jXO6jJ/wAlaSrfs0b/AOTIdkZHV7P0VkKlaRrH4DuVds8UgcT47IiIl6vIvOWMOBaRcFeiLhAIocEKN11IYjtadBWspTLGHAtIuCo/XUZidtB0FYi17IMsc7C+w/4+2o8CmcvMZf0ux6rWRESFWkREQhEREIWCvkr6K+SvS6Fgr0paZ0rslvM7Avqmp3SOyW8zs3lSOlpxG3Jbz3p1ZVmOmnZb7mD12DudGAvwgmJgQxQYpTU7Y25LeZ2rYRFuGMDAGtFAMAlJJJqUREXpcRV52mRWlif7zS3+l1/8lYag3ae3wwHfIOoZ+iu2eaTDePRVJ4VgO4dQq4nCt3EGbLwdDfSMtv8ATI4DysqjnVpdmTr0AGx8g8wfumdpisAHUR0KV2YfzyP+p6hS1ERZ9P1w8dW3oJ/kB6OBVNQK7sYosujqGjSYpLDeGEjzVI05T2yjWE4beyR2qPzGnZ391OuzR3/kSD/6/o9v6qx1V3Z5Lk1gHvsc36O/xVoqjaQpH4BX7PP5PEoiIqCuoiIhCLzmiDwWuFwV6IuOaHChwQDRRqtpDE6xzg6CtdSiaIPaWuGYqO1dOY3ZJ5HasNa9lGVdnIf6Z/xOrdqPDVVnLx8u44rxRESNWkWUXyuoWCvSngdI7JbzOobylPA6R2S3rsUjpKZsTckcztTmyrLdNuy3XMGJ17B3OjAXqCPHEMUGKUlO2NuSOZ2rYRFumMaxoa0UAwCVEkmpRERelxEREIRQftNd4YBvkPQM/VThV72my3lhZ7rXu/qcB/irtnisw3j0KqTxpAdw6hQKdWj2ZNtQA7ZHn6D7KrZyrb7PIsnB0Pxd47rK63lZM7UNIHEdCldmfrn/AOT1CkqIiz6fr4kYHAtOggg81QRiMb3RnSxzmni0kH6L9AKmseaLua+XNYSWkH5x4v7g9NrJfR7maxXkfdKrVZVjX6jTn7gJizU91VQv1BzQeDsxPQlXKqFjKuvAlb39PHLrc0X+YZnD+oFdtWH9r+Hcd0WW+5zOPbwt9ERKE1RERCEREQhFxsPeszn9QuyuJjB6zOf1CUW7/Av/APP+wViV/VC5iLWrneDmF80DiWcD9gsHk3VTjI+nKW1dYJS6wii4u3gN7S0t9rX9l1lD2yFpDgbEaCFI8H1netvocNIWzsS0WRIYl3XOaLto869eI00WTUAtOWMCt1ERaBU0REQhEREIRVRj5Vd5WvGpga0chlHzceitGomEbHPcbNaC4ncBcqka2oMj3SO0vc5x4uJJ+qaWXDq9z9Qpz9kstOJRgZrNeXutGocrzwHTd1TRRHS2NgPHJF/O6pnAtF6RVww2uHublD4R4n/2gq9VLaz7mM3nt5UVlM+9+4d/CIiJMnCKA9qmD7xxVQH8slr/AJXZ2k7g4W/Op8tLC9A2ohkgdoe0i+w6nDeDY8lPLRszFa/Vju0qGYhZ2E5mvDfo9VR0LlYnZvhHM+mJ0eNnDMHDrY8yq6fE6J7o3izmOLXDeDYro4Ir3QTMmbpYb22jQW8xcc1opqCIsMt5b9HPus9KxjCiBx49+XZXci16SpbLG2Rhu1wBB4/dbCy2C04NcEREQhEREIRcPGD1mc/qF3Fw8YvWZz+oSi3f4F//AJ/2Csyn6o49Fwa71OYWKA+E8fsErT4OYWKH1Tx+wWH/AJU9/p8Vt3XzdYusXXmiiovWCFz3BrRclSWhpBE2w06yuJgWrbG4h2bKt4tltvVSZa+wJWDmzGBq/A/9f3F9eGgpZOvflZOjqiIi0SooiIhCIi+HvABJNgM5J1DehCi3aBhLu6cQg+KU2PyNsXdTYcyqvmcuzjNhX0qodL7PqsB1AaOuc81wJnf9BaeSgGFCDTjid58LNTsfOPLhhgPm1TTsuwflzSVJGZjclvzOzm3Bo/vVnLi4qYK9EpY4iPERlP8AmdnPTM3g0LtJDORs9GLhhgNwTyUg5qCGnHE7yiIirKyiIiEKte03A2S9tYwZnWbLbU4CzHcwLchtULher0rqNk0b4pBdjwWkcdm/XdUphnBj6OodA/Vna73gfVcP3pBCf2bMZxmbdiMN3thySK0ZcsfnW4HHf7+VMcQMOZDvRZD4Xm8ZOonS3gdW/irEVCxPVo4nYxipYIpD+M0aT/yAe0Pi2jnwr2jK0Odbx8+easyE0CM07h48ctClKIiUJoiIiEIuBjIfEzg76hd9R/GXSzg76pVbf8E/e3/YK1J/rDj0K4VYfDzCxQnwnj9gsVZ8PMLFGfDz+wWH0J9/T4rZusXXzdLooo6LJKkWAJXmM5WgZmk+Y4BcjBVF3zzc2a2xNtJvot0KlUbA0WAsBoAWksKTiB34itG3imv2GjbsrVdPRW0zeJ6fOi9ERFqUsRERCEUJx/w7kN9FYfE4XkI1N1M4nXu4rsY0YebSR5rGVw8DP8nfCPPRttU9RM57i9ziXOJJcdJJ0kpnZ8qXOzrhcMNp9uu5LZ+ayG5tuJx2fv0XjK9SLs9wN6RUd84fhwkOz+0/SwcvWPBu1RykpnzythjF3vNgPqTuAuTuCurAOCmUlOyBufJHidrc4+s48T0FhqV+0JjNQ8gfc7ppPYKjIQM7Eyzg3ro88l00RFnVoEREQhEREIRR/G7F5tbDYWErLmN5262u+E+WY6lIEXtj3McHNN4XiIxr2lrhcVQD2Oje6N7S1zSQ5p0ghbNPO5jg9riHNIIcMxBGsKy8csVG1je8js2dozHQHgey7fsP7FVPa6NxY9pa5ps5rsxB3rSy0yyYZUY6R80LNzEu6XfQ4aD80q2MVsaG1QETyGzDkH7279o6bpQqGik0EHRrH1CnWL2O5Fo6m5GgTAXP5xr4jPuOlLZqziDlQhw8eEzlbQB+mIePnz8M/ReMEzZGh7HBzTnDmkEHgQvZKU0RR3Gc52cHfUKRKOY0+tH+b6hKra/gn72/7BW5L9YcehXBqj4eaxSHw8/sFio9VYptHNYqi0FPoWxdLr4usXXQFHRbeD650L8oZwdLdv8AtS2lqWytD2m4Pkf1UIupTgOidEwl2l1jk7Lbd60NhRouWYQFWY7jo56uOtLrQhMDcvT1/ZdZEXw54AJJAAzknNbitQlK+1wsY8Yo6RtszpSPDH/k/Y369bcfGHHZrLx01nO1yHO0fIPaO/RxVfVE7nuL3OLnE3LnG5J3lM5Wz3Oo6LcNWn26pbNT7WfTDvOvQPPReuEK580jpJHFznaSfIDYNy58jyTYAknMAM5J1AI95JsLknMAM5J2BWTiRif3AFTO38XSxh/495+L6cdDaPGZLsqeA7D5clMGC+Yfkt4n58K28R8WfRI+9kA76QZ/gbpyBv1k8tVzLURZqLFdFeXuxK0kKG2G0MbgEREUakRERCEREQhEREIRR3GnFeKtblepMB4ZQP7Xj2m+Y1a7yJF7hxHQ3ZTTQrxEhtiNyXCoVD4UwbNSSd1MwtOex0tcNrTrHmNdl5MlV44QwfFURmOWNr2nU7UdoOkHeFXOMGIEsV5KYmVmnuz67eGp3kdxT2WtGHF+mJcfQ+OPNI5iz4kP6of1D1HnhyXIwThqamdlRSEX0tOdp4t++lTfBOPcT7NnaY3e827mnl6w8+KrAuLSWuBBGYtcCCDsIOhejZVYjykKNe4X6xioIE4+Fc03air0pKuOVuVHI142sIPW2ha2GaDvmZvWbct+4+nRU3DUOYcpri0+80kHqF3KLG+sjzd7ljZIA7z9bzSiasXOsLKgg6Dd008k1gWsGuDiKEar/fqu09paSCLEZiDqWLrnVGNXfEd7EwHQXsuM28Em/VbjJAQCDcHQQvnlqWRHs+IGxPtP2u0HZsI1aRfhWmskZ+DNtJYbxiNI9tuu5et0XmXLSbjGIXl0cbHkaHPJsDtsNPG6js6zI8/FzcEYXk6APJ0DE7gSJZydhSjMuIccBpPzSdHEVm2BcE5AEjx4tTT7PHf9F1qidkbcp72taPaeQB1Kq6rxzrJNEjWDYxoHm6581wqmsfIcp73PO17i49SvocnYeYYGAgDmSdpuFfguWRmbYD3F1KnkPKsjCmO9PFcR3ldtHhZ/URn5A8VCMM4wT1X8x/h1RszDpr53XGdKvF0qdQJKFCNWi/Wbz7JTHnYkT7jQahdz1r2fIsUlNJUSCKJjnvOhrfqToA3nMpHgHEeoqLPlvDH8Q8TvladHF3Qqx8D4HhpGZEMYbtcc7nHa52k/QalFMWhDhXM+o+nE9gpJeQiRb3/SPXl3PJcXFLE9lIBLLaSfb7LNzL69/S2e8tREhixXxXZTzUp5DhNhtyWCgRERRqREREIRERCEREQhEREIRERCEREQhcrC+AqerH40TXHU8eFw4OGfloULwp2buGennBHuTZjyc0WPQKyUViDNxoVzXXasR6qvGlYUW97b9eB5hUdXYAq6f+ZTvAHtNGU3+ptwOa5rZ96/Qa0qrBkMv8yGN+97GuPUhMWWt/ezkex8pe+yR/I/mPFOiowTLoYOwuYvCc7fp+9isyfEmgeb+j2PwPkb5B1vJazuz6iOhso4SH7hExNSc1CMKM0lpxBHKhBqCNYodRXIMpNy8QRITgCNNT6il4OpQCvw2XjJYMkazfOd24LlmZWm3s9ohqlPF/6BbEOI1A3P6OXfNJIfLKsvMrMSMnDEKA0gc79ZJdUneThS4UC7MS05MvzkVwJ+XABt3zSqidOt2gwTU1H8qne8H2g2zf63Wb5q5aXBFPFnjgiadrWNv1tddBen2t/YzmfHlDLK/vfyHnwqxwX2cyvsaiVrB7jPG7gSfCPNTTA+LNNS2McQLh/ySeJ3InRysu0iXxpyNFucbtQuCvwZSDCvaL9ZvKIiKsrKIiIQiIiEIiIhCIiIQiIiEIiIhCIiIQiIiEIiIhCIiIQiIiEIiIhCIiIQiIiEIiIhCIiIQiIiEIiIhCIiIQv/2Q==;" parent="1" vertex="1">
          <mxGeometry x="-260" y="-154" width="60" height="60" as="geometry" />
        </mxCell>
        <mxCell id="ZN_Vx1n1vfZxGkJz-T1u-4" value="Subscription" style="text;html=1;align=center;verticalAlign=middle;resizable=0;points=[];autosize=1;strokeColor=none;fillColor=none;fontSize=12;" parent="1" vertex="1">
          <mxGeometry x="-201.89" y="-123.99999999999999" width="90" height="30" as="geometry" />
        </mxCell>
        <mxCell id="ZN_Vx1n1vfZxGkJz-T1u-5" value="" style="rounded=0;whiteSpace=wrap;html=1;dashed=1;dashPattern=12 12;fillColor=#d5e8d4;strokeColor=#82b366;" parent="1" vertex="1">
          <mxGeometry x="550" y="20" width="200" height="530" as="geometry" />
        </mxCell>
        <mxCell id="ZN_Vx1n1vfZxGkJz-T1u-8" value="Hub - VNet" style="text;html=1;align=center;verticalAlign=middle;resizable=0;points=[];autosize=1;strokeColor=none;fillColor=none;fontStyle=1" parent="1" vertex="1">
          <mxGeometry x="610" y="20" width="80" height="30" as="geometry" />
        </mxCell>
        <mxCell id="ZN_Vx1n1vfZxGkJz-T1u-10" value="" style="shape=image;verticalLabelPosition=bottom;labelBackgroundColor=default;verticalAlign=top;aspect=fixed;imageAspect=0;image=https://www.starwindsoftware.com/blog/wp-content/uploads/2019/03/racsultat-de-recherche-dimages-pour-azure-firewa.png;clipPath=inset(0% 22.33% 0% 22%);" parent="1" vertex="1">
          <mxGeometry x="622.17" y="110" width="55.66" height="52.66" as="geometry" />
        </mxCell>
        <mxCell id="ZN_Vx1n1vfZxGkJz-T1u-12" value="Azure Firewall" style="text;html=1;align=center;verticalAlign=middle;resizable=0;points=[];autosize=1;strokeColor=none;fillColor=none;" parent="1" vertex="1">
          <mxGeometry x="600" y="162.66" width="100" height="30" as="geometry" />
        </mxCell>
        <mxCell id="ZN_Vx1n1vfZxGkJz-T1u-14" value="" style="shape=image;verticalLabelPosition=bottom;labelBackgroundColor=default;verticalAlign=top;aspect=fixed;imageAspect=0;image=https://symbols.getvecta.com/stencil_28/6_application-gateway.ab007e631b.png;" parent="1" vertex="1">
          <mxGeometry x="620" y="200" width="60" height="60" as="geometry" />
        </mxCell>
        <mxCell id="ZN_Vx1n1vfZxGkJz-T1u-16" value="Azure App Gateway&lt;br&gt;WAF" style="text;html=1;align=center;verticalAlign=middle;resizable=0;points=[];autosize=1;strokeColor=none;fillColor=none;" parent="1" vertex="1">
          <mxGeometry x="585" y="270" width="130" height="40" as="geometry" />
        </mxCell>
        <mxCell id="ZHnCmB_-eCUDnraLg0bQ-4" style="edgeStyle=orthogonalEdgeStyle;rounded=0;orthogonalLoop=1;jettySize=auto;html=1;exitX=1;exitY=0.5;exitDx=0;exitDy=0;entryX=0;entryY=0.5;entryDx=0;entryDy=0;startArrow=classic;startFill=1;" edge="1" parent="1" source="ZN_Vx1n1vfZxGkJz-T1u-29" target="ZHnCmB_-eCUDnraLg0bQ-1">
          <mxGeometry relative="1" as="geometry" />
        </mxCell>
        <mxCell id="ZN_Vx1n1vfZxGkJz-T1u-29" value="" style="shape=image;verticalLabelPosition=bottom;labelBackgroundColor=default;verticalAlign=top;aspect=fixed;imageAspect=0;image=data:image/png,iVBORw0KGgoAAAANSUhEUgAAANIAAADwCAMAAABCI8pNAAAAflBMVEUAeNf///8AcNUAbtWlw+wAddYActawzvDP4fYAdtcAbdSMuOn6/f6Esueuye7R5PfD2vP2+f1Xl98zitzl8vsng9qdvuoAatS+1vLw9/zh7fl4rOUWf9mlx+1amuBGkd5spePc6fhvp+RfnuGUvOp+r+a20vEuh9sTgdq31vIXKrl+AAALY0lEQVR4nO2deXeqPBCHITRREKvWBRfc6tb3+3/BF9RWZJlMliH2nv7+uufcanxISCaZJZ7/z8mjbiCe7Lvzzvv67W3dOc+7y8mIukVCpMWg0/+YeixijImrsn8EwptueuvuhK5dGqTFsLfxkkAIHnoVhTyDi8Tm2KXpMPtIo+FpnHULr7I8i4tAbHtD+1iWkSbrD85ETdfUKxQB374t7f4Gm0iD3lci751qb0Vpb2/xZ1hDmvTSCN89JYnoMrM2YVhCOn8woYlzUyjYx9DOb7GBtOgJpjzequJB+mZjsjBHWq4MO6ggxvvm488UaXKwB5RLsM+FU6TJLrEw4kpQycoMygRp1A+s9tAPlDg6Qup4JEC5WGow+2kjTbYRFVCmMNpojz5dpLWNaRuS4OdWkeJNQAuUK9q1iLSne4uKEt6+LaQz07XlFBUyncGngXSknBdKit7aQFq1SOR5SZ8e6ZO1SeR5gTKTKtKqZaKMqUeLNGt11N2UrCmR5g6IsjliToe0b33U3RR0qZAWrSywdWIqG0MVpDGxWdcsPo1JkE6Ohl0ucaBAmifuiLLXaWYfyd2LdFO0t460dfYi3RSmtpHWLWyQYImVXaSJ4bDLHTC8zjOjoAi5OiGRPrSHHRcsSvh2t1rtNmMviRBumgZhhx4OSdMQ4oylh9mw6GxZzo+HVBOL4c7CcEip+pAJRZR+nutX/eV6w3WOYwTKiEAhHZUXWRFNZ6AnLJ4fEmXfDW7BxSCpLkkh8057+dfG62mg2FXRwBLSSQkpDC4drEU23EZKPcW3dpAWSnMD+1La3XQvSgseZiJHIK0UOkl4HRWgXGeVQ0FMN8mRVN6kaKfhxot3CsMgkL9NcqQeGilkajvqHymcdXL5pCdFivGtpdpOyWWInvoiaSNSpA52TeIXA9/xJMUyCem5nhRpiuylMDVyRy7QBoowRepiX12lE48aTbCjgcnmVBkSdgZXPGur0RD58PiHGVKMfHRC071VVB/ZT7LxIEE6Y4eDwqFUo5CHakLioJEgHXCtBMo2Q50muKEnsyBgpBj3JoUXG0ToTUwAz60w0hDXBvZUQCrciiGZ82Ak3HyHMvlRmqPMcolRBCNhGsgGgqVAOh97WgivtiDSHvW+hlNrRP4A1SJsjoNIa9S4k02qShpj3iYBHpCDSLgpPDENoCsKtRDyjTZSiiGCv19ZqDbBQ0oICWdJ6u77GoTacTLoQA1CmqOQuA1b6CGUPxh8jBDSEfPAEDtnNV0QEwQYVgkhbTCzg1bkEiTMgwSfI4T0hZlQmc35LtcAYUGASyGAFGOsE1sWa0Gol0kPaYlZyeWnG8rC+LKgcyIACWWGW57Cc2FeJgbY/gASyhyyajrchFk7oEkJQMIds1onQm1uISsP+EmYzZJla+iqGPEuQa8wgIRZlsxSCRqEWGz5Z/PHAaQtYlmyvtBeG5Y/S2h0AEgYywQfBqMgxJ4GOhsAkL7kRF5AkRqLeIkh8wFAQhDZOZIsCzPVAjsmAAkx7gjMoUwzzOrR/HHgvxATnvTIXUsYJN78cUMk25ulq5wioQPKlOQWSTXSHiW3SPiIUwX9IZX1h/SHpKc/pLIMl9rToGtdgxOi5VAJabTvHFeb8Vj+vXmNBgKh/CXj8cdnb92tOfooIy2P4yRgebWdlhJNdRWGPC/+k3z19yBSZ6xf/8SRQhFN13ET0nxKnXhOo5B551qk+KAWOvtSijajKtIkdZzNYybxiG/8RlryXznmHuJ8+Yy0ePUJTq7QWzwhuU64sqHvg7Ab0sxh5qI9sdkDafFPEH17JK9In796sntInL6R2uikdqYfMbojoYIBzMQv2zZGAlvfkVCecyPlE+ylBaZwfENCuZnNWuLZ0h5fWlgocj+rhw1RM1DoXY2VNphyb7iHjjLWVhjeTZXRFzlT7vD0tNIxVRQ+wrIW6GQRXeUWhOcvqItz7R9bGXomL0da0mafs6c41IVHPLvyRYbUJV1oyyHkE8NEdZmCZYaETqvQUTUwZkJrRwT7DKlDOIdHNRHkS9IDm+wZev47HVJSGxO/p1wHs4XJwyf7KaspTYuSiXUokaLGyJUB3etLipQA+StdsoWDEikCM3LImAiRIkm5NGwyo6rokBKp44moiBsZUoRwpZ1JmKiQIlTgYYeCiQgpQgZadwiqhNEgBSccUbaftt9PJEhMIa7IPhMFEgMCaauyXo6TAEmNyH6pXvtITDn9vmeXyTqSSv3EHyartpFtJL7x47LKBNU/wERuoGV/4PGSWDmeexSV/8TumRHtfilXJZ53ROwlcYFEfFr9h6ShPyRzGSAhHWDaSOKi86tMkEQPZ3HqIrHVWa87DZD6OOtMEymzFDVPTI2QUNaZHlJuKTpBwjBpIbHcUnSD5PelFqcOkrjm+TlC8lcyJg2kG5EzJOlFHupI4m7oOkPyd/CnlZG+iRwi+Qfw46pIP0QukfwN1LYiknikS7pEApnUkPglfg0kHwjiUkLi00LisVskgIlvF5MnLQH8tJhK7RgJYoqe1byQ8a+n5HDXSP7YeBvES3VfnSPFpgGEYVhK23GOZBpsdw/Zo0cSjYoqDpd4asAUepW6Y+9Jc+v6SGmvWdUojZE+UyiqldS6/ca2j8AmHkZSLbiozRTyvVpLQPElu0jaAYTFIMQXQ/IXng4T6qYHV0j+RCMoEqpl9QJIGgGEOkVfW0VSDiCsD9l7KSR/qUSkV7itZSRcMdm7hOJdk26Q1AxYvTsK2kVSNMm5p8PUKpJyllJ5T/FySB/q5nNp5/dqSBpE5f35iyEd9LY4xXOhF0OSHLw2S4wVmbSRvHQ4n8/P5877ej07Hnu9fv+0Wn1+7naHzbYa6alNlDNVf/Zy2KguUF9RtqtlNz3tKO9RJ5XASKObu0W1KOFbwhoFLOYWzx4Mb+6uMjk/TpE6mqRfWGZyjWQhqE5sXgrpCPRRWFLzV25eCAkMFxiXBPyazcsgQSG31ZKxQGtPUaQukcAwFbV4vCKTQ6Q1GJKvGGJYiF92hyRJMlCNmgxWzpFkqSDKgaA/2Q2ukM6yRBD12NbvHBRHSPK0Ko1w3ajnEAlxp5VOBPIt+8kJ0hCRfqQVVH3NunOBhEpQ1IsTz3Mj20fqoW7g0Q19z5haRwoxV4Z4+tH8Saf12Fas00U7QUGgrhWq6pVzLjSdpK+MpKk/JA39IZnLfi5gufZvUskySyr1ge1mjNrOBfxvUNa+hORX/mIwsNa+Zx9J7+Jx5P3IOFkfeDpOPfNQvqIIMjaV+8lydUOCGU/VAWa7XiPFJK7mANPyG0IiWZdUHGDWiYiWWjwTmAigJyLroc6pVycDv2GjqAyiGqdeS0R0Nh6GycgT2ig6s1VIr88y9IQ2idASLzv1yjoRFfWi3FzATH2qir6k+yUGFB2xXDCl2CrpFrC5NIztsjbFRml3tU0FfAiJbkiERU6D2sJR1sspFcXOGRLqPmRNBTUFywgKeRV0rQi6pywYXC3CRkvkBYMMaUJ6ZlMulUdSFK+ga8Fg3I2n2npmoildWNC1rDP1TSTFIo1zgiJ/z0qvJdJxN3HrK/mJb0d4Qg2VR8N4yCvgTfRd8LRLfq/B9Xrt/FII8md3K7TbApEXdG9I1PcNZExnn7gU+13MvyENybvJi+aky9+3+O6ORH2HwrWxVi54upZkvyKt2xgTLegW2X67UqqFbmpD7P2BRFU3ul2Ft8vV73eZERwStq974fw70uj33zj3c9rxfS/goI05llQ8jZ+RqEqWt6ZHeYXHHZvzX3zFZvHyxgKSv/d+7xzBxg/vY/Fy1/gz+p2XOIqnO6ifr+DdfyS/7Qpej7Oo/+QgLl+UPJmNRcDq63u8oFiQ7sqXntRcZ73odt5+iTrDaoWSOqTfrv8BSArJ8AAwDwEAAAAASUVORK5CYII=;" parent="1" vertex="1">
          <mxGeometry x="622.1700000000001" y="330" width="52.5" height="60" as="geometry" />
        </mxCell>
        <mxCell id="ZN_Vx1n1vfZxGkJz-T1u-30" value="Azure VPN Gateway" style="text;html=1;align=center;verticalAlign=middle;resizable=0;points=[];autosize=1;strokeColor=none;fillColor=none;" parent="1" vertex="1">
          <mxGeometry x="585" y="395" width="130" height="30" as="geometry" />
        </mxCell>
        <mxCell id="ZN_Vx1n1vfZxGkJz-T1u-33" value="" style="shape=image;verticalLabelPosition=bottom;labelBackgroundColor=default;verticalAlign=top;aspect=fixed;imageAspect=0;image=https://cdn-icons-png.flaticon.com/512/5325/5325192.png;" parent="1" vertex="1">
          <mxGeometry x="895" y="193.67" width="102.66" height="102.66" as="geometry" />
        </mxCell>
        <mxCell id="ZN_Vx1n1vfZxGkJz-T1u-36" value="NT Site&lt;br&gt;(Fortinet Gateway)" style="text;html=1;align=center;verticalAlign=middle;resizable=0;points=[];autosize=1;strokeColor=none;fillColor=none;" parent="1" vertex="1">
          <mxGeometry x="886.33" y="299.99999999999994" width="120" height="40" as="geometry" />
        </mxCell>
        <mxCell id="ZN_Vx1n1vfZxGkJz-T1u-60" value="" style="rounded=0;whiteSpace=wrap;html=1;fillColor=#d5e8d4;strokeColor=#82b366;" parent="1" vertex="1">
          <mxGeometry x="-180" y="-30" width="680" height="900" as="geometry" />
        </mxCell>
        <mxCell id="ZN_Vx1n1vfZxGkJz-T1u-67" value="" style="rounded=0;whiteSpace=wrap;html=1;dashed=1;dashPattern=12 12;" parent="1" vertex="1">
          <mxGeometry x="-150" width="620" height="400" as="geometry" />
        </mxCell>
        <mxCell id="ZN_Vx1n1vfZxGkJz-T1u-72" value="" style="rounded=0;whiteSpace=wrap;html=1;dashed=1;dashPattern=12 12;" parent="1" vertex="1">
          <mxGeometry x="-120" y="31" width="390" height="139" as="geometry" />
        </mxCell>
        <mxCell id="ZN_Vx1n1vfZxGkJz-T1u-85" value="" style="shape=image;verticalLabelPosition=bottom;labelBackgroundColor=default;verticalAlign=top;aspect=fixed;imageAspect=0;image=https://raw.githubusercontent.com/Azure/Azure-Security-Center/master/.github/images/asc.png;" parent="1" vertex="1">
          <mxGeometry x="-46.53" y="-120" width="45.35" height="45.35" as="geometry" />
        </mxCell>
        <mxCell id="ZN_Vx1n1vfZxGkJz-T1u-86" value="Azure Defender for Cloud" style="text;html=1;align=center;verticalAlign=middle;resizable=0;points=[];autosize=1;strokeColor=none;fillColor=none;" parent="1" vertex="1">
          <mxGeometry x="-96.53" y="-69.47" width="160" height="30" as="geometry" />
        </mxCell>
        <mxCell id="ZN_Vx1n1vfZxGkJz-T1u-106" value="" style="rounded=0;whiteSpace=wrap;html=1;dashed=1;dashPattern=12 12;fontSize=10;" parent="1" vertex="1">
          <mxGeometry x="-130" y="220" width="450" height="160" as="geometry" />
        </mxCell>
        <mxCell id="ZN_Vx1n1vfZxGkJz-T1u-82" value="" style="shape=image;verticalLabelPosition=bottom;labelBackgroundColor=default;verticalAlign=top;aspect=fixed;imageAspect=0;image=data:image/png,iVBORw0KGgoAAAANSUhEUgAAAO4AAADUCAMAAACs0e/bAAAAe1BMVEUAeNf///8Ac9aGs+cAdtcAb9VjoeIAbdQActXk8fuYv+syiNsAa9R2q+Wev+q30/FcneFKlN/b5vfJ2vOqy+7y+P2+2PMYgtrg7Pl/r+bM3/U6i9zs9PttpOO61fGyz/CPuemlxewUftnO5ffi6/hFkd5Rl9+UvOpzqORO1YPvAAAGdUlEQVR4nO2daXeiShCGARvpqDHGfUuMJjH+/184I0tkabqQdFeB1PNlzpxTF3iumfBavTlup3CiP7bjXos4Tv+kuzwF0msPUga7dX3dwUg4LUMEs7q6yxH1w9fB39fUPbXus73iTerpvgfUT16PoM7H67gbj/rB6+G/19Ltt1RXjlmXdVm3jbAu67Iu9YPXg3VZl3WpH7werMu6rEv94PVgXdZlXeoHrwfrsi7rUj94PViXdVmX+sHrwbqsy7rUD14P1mVdQFcGEDIq9MBC/84rCrAwMK0r5/snPftj+HTeG1T49BkWygF4xXlYKCbgFdeeYd0K01kO4afmPYOFez/6HwgWLqMrvoGFC+O6L+B/8VJV98m8rmTdu2BdANZVw7pqWFcN694J6wKwrhrWVcO6alj3TlgXgHXVsK4aQl24eVNZN27eHMBCuuaNdxlAvIX14nsMFX5EhX3wipeocAdfURjWdTwJEZcLgsL0zzK31VmXdbusa3BEJx4jEjBO1UrTunL8NdXzNY5GdPpQ4XQWFZ5fIXaRxgquNK1rIWbAz7CtGjPc5o8R+fAzPFJmZt08rKuGde+EdQFYVw3rqqmsm40ZR7i+QAN0t5MwRIphbwORDs3iNVv/vGiH7inpZsD7kDlpcvVBrxW6R98xg//UAt2Fsc3BqvzjJ9fdSOWz1yGA99uj1l0b3AtNfDde92yydQRvL0isuzW60Z0YNlx3ZXYXwwAaobHevNHqGnsJJZzu0/U+tjM923joZwIVzg7R9G3d3Y33fP3BXbqO50MkGQgsjN8wq3IsbMgp9VGyvW11NVIfJR9NF4iSD6erj5IPp+uMdFGyoFt5nOavQz+2dMXrHbqrIcQqKjyBhUP9FW3paqOk/TGikpk3c3PfhHLooiTZRCOLe2BroiSVbs/ah3ulaboLq1t++6U9WSLdN7tvP68sStLomuxhqCiNkjS6RnsYKsqOESDRNdvDUOH1G6Q7tH8SQ0lXkkL3gHASQ0mUpNBFOWZDHSUJdI03qJSooyS+7gLpC6cySuLr2o2PKVRdSXTdPdqJMaquJLouYvNEFKMktu4U8TggRZTE1v3GPOupeGQRsu4M9aynYpRE1kWIj2kKUTKvuwQt3iPdDVioWDZ1QEkYNwpRMqcrvicQ8b++IVh4FoUrnnBt/3+8W61uhdk+yY9j1cL0FZFli1Hy8UYRsuSi5KPr5qLkw+tmo+TD62a7knldfwQRv0s8sDBOFDL+K9XRmZkoiTdGtKPyTUdJtFQ1R04YN9JREk2XxDQiuB3GjKX7gdXDUJCKkki6e7If5Su3riSSLu3bTqxwdT+JjzT2kyiJo0v2EkpIoiSKLsYoiZ4kSqLokhhmiedKYuj+EL6EEuIoiaC7IH0JJUQD3PZ1X54b8ZUrmitpXddrhm3clbSu61C/gxLCKGlftzFcu5Id0r12JTuk6wTzTun6ndK9fi+yPkbUHBS/qsQEXBAeLx3fgYWXpryCIlQvoupjRPcuHSdHFTMeF+/idknXX3RJV364XdKNlyd0RNefd0n3t/PquE35PmqTYPmrSzdWhcZthwnHbUYrySq36VX/f2P1Ht03taT3+gt614DGqE3kPqPr9kdes+K8UdKzFaLX7/ayglcf/w2H7AXguXldDOyvlVLjp+eg4um6E5LP9za2i6xre52jmiDTn0HUJclvuT2sMHUpAs1omnkETF33B903Pz0fVddFn76dX8eLq4s9a6GwtAZXF3vphcjfH1kXN2v4R2Jd+6vuU4jiokds3TXiL+egOFsZWxcxa6h2yUTXxcsawWcDdN0Bkq83UdwcXxdrDl2g2nSOQBcna0jlADSBLk7WUCzNdml0MbJGyXagFLruK8LHq74zia79vkbZlBoSXfdiOWuIXcmNaXQXlhv5+VXKv9DoWp7RrUwYIUS6NvdNdJxR6ba2VLo2s4Y6YYRQ6drMGqX7CBLq2tswxP8pvyuZrnu29fHqtpOn012P7NhqDwug07WUNfRHQRDq2skapQkjhFDXyhJm76y9JaWujb4GcEgPqa75KV3RNN5ySHVNn+CSTOMth1bXdF8jnsZbDq2u8b4GdD9iXbN9Db9k2/obxLpGs0Z2ko0Sal2Ti43go8TIdQ1mDe3pHjHkuuayRjCtcDP7PgCmskaVQx4boOuuJLzgDEaOqp3QSs520zPABnwJXWmALib/AI6Y6uEqoy6JAAAAAElFTkSuQmCC;fontSize=10;" parent="1" vertex="1">
          <mxGeometry x="43.51999999999998" y="285" width="54.91" height="48.91" as="geometry" />
        </mxCell>
        <mxCell id="ZN_Vx1n1vfZxGkJz-T1u-87" value="Azure Postgresql" style="text;html=1;align=center;verticalAlign=middle;resizable=0;points=[];autosize=1;strokeColor=none;fillColor=none;fontSize=10;" parent="1" vertex="1">
          <mxGeometry x="-103.91999999999996" y="334.99999999999994" width="100" height="30" as="geometry" />
        </mxCell>
        <mxCell id="ZN_Vx1n1vfZxGkJz-T1u-92" value="Storage Accounts" style="text;html=1;align=center;verticalAlign=middle;resizable=0;points=[];autosize=1;strokeColor=none;fillColor=none;fontSize=10;" parent="1" vertex="1">
          <mxGeometry x="20.970000000000056" y="335.75999999999993" width="100" height="30" as="geometry" />
        </mxCell>
        <mxCell id="ZN_Vx1n1vfZxGkJz-T1u-96" value="" style="shape=image;verticalLabelPosition=bottom;labelBackgroundColor=default;verticalAlign=top;aspect=fixed;imageAspect=0;image=data:image/png,iVBORw0KGgoAAAANSUhEUgAAAOkAAADYCAMAAAA5zzTZAAAA8FBMVEX///8UkN9Q5v96enpeoO8Sf9mdnZ2tra13d3cAi94Zgts+5P8fhd0Aid0Adtchht1Rmu4ui+EAetlJl+nZ5/vL4PZRm+vI9v88keXJ9v/4+/7A9f8Aht3n8Pxeq+ZS6v9rsejf7vrv9/0umeGx8//s/P8ak+BLo+TR5vdzhZ1Vp+WTvfOFtfLb6/meyu+Rw+211/N/eHK30vd4rvFmpfCpyvXC2fiZwfN1uOo/zPVqpeROmOBt6f/C3vWp0fGUxe5seIBYg6Y+icGZqb91gI9mltNsjrl/oc+d2fU23PxeoON8secAbtVGk97i+v+U7//5SDp6AAAMEUlEQVR4nO2d+3+ayBrGMQ1nK1EUEl3LxjSSrfVUMVvjpTVN2r2cW9xs////5siAMwO84FyAWYnPD82nMcy8X565viBoWrlyfJVcZ/nyplc39eZls35zNR2pDqY4OdObZr1eC1SvN4dfXdUhFaPberMWVb1+W8Fm/DCs15Kq135RHVjeur0EOH1dflIdWr66jjdcytYPqoPLU1dQy8Wo71WHl58+ZYFuUa9UB5iXfknrozs1p6pDzEdutqO+Lgeqg8xFmZ00VCW6qrev7aL2+6A6zBzEYmklTHXTZ1JaFeipUyZLa/Vb1YFK6z0TaK12ozpQabFZuh2TDn0HN2DrplvSQ9+YPzCTPqoOVVKPrKT1Q18RMg69FRh8Xw7py2m9L2dEGrCs7xHpoc8yL2floH1gJD381eCUraMe/ND7knZtL2cnzphd6agOMw9d7ze1IslthixoswK91NeLyWxr2m32+Nu8Vh1gfsrsqhXppKE+pbvarMz1p0DT1CvFh784imkEXv1v1qpwmSKuaS15R8dX1UEVI2d6Q/tav/lawTtXQv3w7dffhghz+Nuv3/6hOpwC9cPrVx8/vvK1/fG64qRER9JK6EhaPR1Jq6cjafV0JK2ejqTV05G0ejqSVk9H0urpSFo9HUmrpyNp9XQkrZ6OpNXTkbR6OpJWT0fS6ulIWj0dNKnz+JX9futDJh016/VL5nscD5jUa3Ldznm4pF54dxzrk1MOltTDtwEyokqRug/K7tb3qPsd2RqwDOl1s6nqpmcvchMrUxQSpB/qym5k92J3JrN8b0CcNPwmVV3BF/3ioLXa5f6HrwmT4q+Mle/qIHmvef1671GipFeko5SNmnS0SNIrekQoFxVwdNt69395QIz0Knr/fpmoIGiT4cGBQqSJxweUhyoMKkZ6k+wnJaHCoNcshwqRDpO1lYMKgjKMRr6ESKGnFZaBKuGoIKkDVFgC6gCs9prxaLGx11WB2pdouprwfKoAtS/lqPgaqXRUSUcl1r0lo8o6KrOXgesu6NG/YGV83/GW2J+W6CpYFeeX2WVyDoOyUGFQznSHVB6ppAach6OyucFSUHNxVDoLCi9Ec0XNCVQ631u4q3mByme2B8WiwgN8NqjT9y6S+v2fvv749urjx9diOfxCGzAvqNNZTOZtWKeh7v/17z8+Cl2tKNBVF9gJZxR9MaGAsvUfocfRwa7mkN3nc3R2ykiJ1J70BSIqCJXL0SUXJ2IdC/gKJwMkUXkcde94OX3U9uJvgcrj6FKAE7He8T+TJHdUHtCVIKgvTzUqD+hEAvS0fcEdG3S5RBgVBoW3SVKgYqjQU7TEUHkcHSdAU1YO8RUE/nP+6SY3V13oGVUpjs7accrJYgksBkN1ZuPTBCz/sAS6ypXsQXJAUNjRi0jU3faKYYTpr2Ksd7wR5uQqDAo76kQNXTGuBZxFBLU944vQF4jK5ypP043ML905R4frz2nWtsBqSRqVx1GtT4XbnvBFSo9kXc5jkSRRnRueq1uTLgEd80ZKt4c2/wJCcljicpS2tCswqlCuCpmqjcRd5XM00gBFHqo3p5qEyB5OG4m6yueo5hBQgYXOVi5VgMC2RhNG5XSU2sHwd9JAZLLpzsVKAFH35aJ5QakFr8gsgdTG7Ves+Qq5yg26DTOUqKVbU7u4DIHVAxK3qzBo1k2J/R6OUqiXojLOcRlCo6+vEfTQ3PQbh/gd1ZY4yi5HXCQZjEbrOS7jlKOQqLhc5Xd02/LOOe1wl+M7sqXrLf3frUgX8Mmdu4XA0/FhVNBVEVBtvCM9Z5kh3Nm8TcYfX+j8kIbRQ0OSfybG3J2BGdUVAdUmuyADdzLljZM7cDSvXODO3kN8c3/Gac/3lyiE+g4G3bfquTuPxJghdxJ1M5xC/Y/IsNZDzfYunHNOOVmZUAVBt6Sh9pEuIc4tDToJPVzKkiL1E6R8EywDakof3b+OJaTZg0haRi3w1IqWckc+bvPZun+yeS8Iqt31Im6kKLrlTvRTD5NaiHROm77iQ93jKvSqMSZQbdzbKWPsHYANF3mGFlZLa1eI1Y+T8m7uO9muAm/uZAPVFjjIderfeOm54KBxrgipv3Z2oieGFzXLVSf5ISMoZUcv7YB+MrnbxUuHYI2Ey+hBB3CuqLNQk+9UYwXV+o1djI2UjurEMdun49kuGYzyKS4uw0INoxNbXfDuW+EGjN4x4CY+Gv7EWqxlRaJM6i6eDE5MR6QHWAGS04nNvW2+1SHoavBKrfh1ieHJGSvqxtrJAOe+aHofTAYHh/f8IvBZ6MemJb68DeRqHbXf2J3uw5O3zKgPDYwKmerQAcPJ4AUpoUf92qNnJt7NL/g2R/+DaPP1QU9YUR2LmAq0sXF3X7guAW1E507aVt7d70PS1eY7/wP6TU0BKDPqhkRqJdpYH+/HtjsyeA3wRI7XY9+kHVNH8yZY/5twtRlER150swNlRe3rxJP7+IcTChSeFscGPrz1lDicoPb40t5v3n6OL/uG4Uc7VALKirqmml8sVrdHQOG834qcJ8tOttDT9p4TlQZ6dvL2c+zbcHidFKDSoIyofb3ly/L/MZ4jY+uC8gQcmTfUsQ1gRPPIqUpdmcCgJycxV6m3jj5uUYf/o0EZUTdGC6vRoIelOU4mgCmJ/j11ZMuGzsWYpCPYdzUI9CTq6iX9SrjHyzgoI6rVaLQaiHNLaq9xxH287zw/TzrirOzdQf4PHVwIka3rOfOYFIJGXI29V+sxAcqGOgpCDmXYT6GvM7LDToy73tjQI0c9w2WPexknKxuUcjXxAjHqj7hQF3aDlmGb6PXKExxlsBvre0id5WLdsPXoIY2UKwAXZO/KNqVGGEJXgTeliaKuo6gNG7l6irfpQTJYt0PpuhH9e8NOnUR6u0IspgR/jAC52oReCfejIOqTbdAKRheyR0Gro070b2iZ6Uv4CS6EJfuQsGqLmvLuO3FXI5H7v6J2Y8iOjZ4GamfsVWZ4p8MwowLRv/2c9pI/UdSNSYfu/+aC7F0RyXMKqQ4sGYg6uJTEEoot9p/5/pwBdWZjEt2IkaJe2NL9T5Kcz5mXI3EpVmKtKQkqjjromSGI3vD/34mRApiGrpt7XjjoYdLzvEHFUbWZYepIQevFi/dgh23oCdnmet/1ZQ+XsudqngCoBKo2bZjbOUQ3ozHu+mmC82n/DqWDNxDZrVcIVHyy8SNb26b9p7+ecfE+pRGMvTZNaZvGiuVaxGxH2krPs4qDSqFuYVfPaE+NSVsb/7/LP82d9N56wfgAq01rd7qyMizCoDINmOiZ7D3R/zuBRp7LsQMjyZuMNZIEaC6oE9zFdJEb5ZA83DD09FlXCjQP1Jnh77H9bbYhfGPL2LB2W9/UhiAJKtlXffVtsikTfHutg/fq8cwNkTRoDqg9vAM1+C4OYq0wqZ7WTcEo+UBTCvlRJM4GmDvZqz7Z49sprSIHR31JuupS29aUnEK2nskONmU2zQlU2tW10WqFrugb/trD1KFfRMp+JzdQWVc9ylSbG3VDjjbg8SiXPppZGDPqWhdHpVI2hglOyLmCSjZguqc2dDi9DWtgUScJbvrSc0OuBUbShoa9YpxX3Y1NJdUMcDrOHVTS1fvI/tvWNwwre29jR4+C8kwFgMoV6mwjDY1B/+qmtZl1UvWwXGxaiJMcZEPLjkJA5Vz1EslPnPeFFU/C2NBUWhCoXMEZeV4W2dAEUxioJKqZmun9+4FKNmCUFgyToNQPPf1H+Ge6Cc0vhYJKDkv3ZjIxyCIb2sEUDCo7r4qgmvfQUqNwUMkq3CdeVrMFXgYvAVS2ktG9ae/nC2WbrSlYSimg0tUMNi3TZqC1TXudcvmtJNAcKvIWa8vMlv68WaYtj0sDzakqd5S6Ghx5WRdqSgQtuTK1dcum0XKuuciTrMpVBfWqcVXJCVZRqaKWVL6rP6kaCMGK3xRXn8IRH6r6pLDalDmaUvnZXwXVpXIOB6s/e1dWTaWCAq5+KaYedUuV1BCKsdRR7aivqKvltd3SQaOoBYFC40G5TTceRlGgydarBJS4WhhowlRFoEEcZ0WCxoYDZaCa9tf3798F78FhFYWqELQUYdSqg2LU6oNq2s9nLwRU0958OflS1A6ievo/vyWdD0nvrQgAAAAASUVORK5CYII=;fontSize=10;" parent="1" vertex="1">
          <mxGeometry x="-69.37999999999998" y="235" width="30.92" height="28.66" as="geometry" />
        </mxCell>
        <mxCell id="ZN_Vx1n1vfZxGkJz-T1u-99" value="" style="shape=image;verticalLabelPosition=bottom;labelBackgroundColor=default;verticalAlign=top;aspect=fixed;imageAspect=0;image=data:image/png,iVBORw0KGgoAAAANSUhEUgAAAOkAAADYCAMAAAA5zzTZAAAA8FBMVEX///8UkN9Q5v96enpeoO8Sf9mdnZ2tra13d3cAi94Zgts+5P8fhd0Aid0Adtchht1Rmu4ui+EAetlJl+nZ5/vL4PZRm+vI9v88keXJ9v/4+/7A9f8Aht3n8Pxeq+ZS6v9rsejf7vrv9/0umeGx8//s/P8ak+BLo+TR5vdzhZ1Vp+WTvfOFtfLb6/meyu+Rw+211/N/eHK30vd4rvFmpfCpyvXC2fiZwfN1uOo/zPVqpeROmOBt6f/C3vWp0fGUxe5seIBYg6Y+icGZqb91gI9mltNsjrl/oc+d2fU23PxeoON8secAbtVGk97i+v+U7//5SDp6AAAMEUlEQVR4nO2d+3+ayBrGMQ1nK1EUEl3LxjSSrfVUMVvjpTVN2r2cW9xs////5siAMwO84FyAWYnPD82nMcy8X565viBoWrlyfJVcZ/nyplc39eZls35zNR2pDqY4OdObZr1eC1SvN4dfXdUhFaPberMWVb1+W8Fm/DCs15Kq135RHVjeur0EOH1dflIdWr66jjdcytYPqoPLU1dQy8Wo71WHl58+ZYFuUa9UB5iXfknrozs1p6pDzEdutqO+Lgeqg8xFmZ00VCW6qrev7aL2+6A6zBzEYmklTHXTZ1JaFeipUyZLa/Vb1YFK6z0TaK12ozpQabFZuh2TDn0HN2DrplvSQ9+YPzCTPqoOVVKPrKT1Q18RMg69FRh8Xw7py2m9L2dEGrCs7xHpoc8yL2floH1gJD381eCUraMe/ND7knZtL2cnzphd6agOMw9d7ze1IslthixoswK91NeLyWxr2m32+Nu8Vh1gfsrsqhXppKE+pbvarMz1p0DT1CvFh784imkEXv1v1qpwmSKuaS15R8dX1UEVI2d6Q/tav/lawTtXQv3w7dffhghz+Nuv3/6hOpwC9cPrVx8/vvK1/fG64qRER9JK6EhaPR1Jq6cjafV0JK2ejqTV05G0ejqSVk9H0urpSFo9HUmrpyNp9XQkrZ6OpNXTkbR6OpJWT0fS6ulIWj0dNKnz+JX9futDJh016/VL5nscD5jUa3Ldznm4pF54dxzrk1MOltTDtwEyokqRug/K7tb3qPsd2RqwDOl1s6nqpmcvchMrUxQSpB/qym5k92J3JrN8b0CcNPwmVV3BF/3ioLXa5f6HrwmT4q+Mle/qIHmvef1671GipFeko5SNmnS0SNIrekQoFxVwdNt69395QIz0Knr/fpmoIGiT4cGBQqSJxweUhyoMKkZ6k+wnJaHCoNcshwqRDpO1lYMKgjKMRr6ESKGnFZaBKuGoIKkDVFgC6gCs9prxaLGx11WB2pdouprwfKoAtS/lqPgaqXRUSUcl1r0lo8o6KrOXgesu6NG/YGV83/GW2J+W6CpYFeeX2WVyDoOyUGFQznSHVB6ppAach6OyucFSUHNxVDoLCi9Ec0XNCVQ631u4q3mByme2B8WiwgN8NqjT9y6S+v2fvv749urjx9diOfxCGzAvqNNZTOZtWKeh7v/17z8+Cl2tKNBVF9gJZxR9MaGAsvUfocfRwa7mkN3nc3R2ykiJ1J70BSIqCJXL0SUXJ2IdC/gKJwMkUXkcde94OX3U9uJvgcrj6FKAE7He8T+TJHdUHtCVIKgvTzUqD+hEAvS0fcEdG3S5RBgVBoW3SVKgYqjQU7TEUHkcHSdAU1YO8RUE/nP+6SY3V13oGVUpjs7accrJYgksBkN1ZuPTBCz/sAS6ypXsQXJAUNjRi0jU3faKYYTpr2Ksd7wR5uQqDAo76kQNXTGuBZxFBLU944vQF4jK5ypP043ML905R4frz2nWtsBqSRqVx1GtT4XbnvBFSo9kXc5jkSRRnRueq1uTLgEd80ZKt4c2/wJCcljicpS2tCswqlCuCpmqjcRd5XM00gBFHqo3p5qEyB5OG4m6yueo5hBQgYXOVi5VgMC2RhNG5XSU2sHwd9JAZLLpzsVKAFH35aJ5QakFr8gsgdTG7Ves+Qq5yg26DTOUqKVbU7u4DIHVAxK3qzBo1k2J/R6OUqiXojLOcRlCo6+vEfTQ3PQbh/gd1ZY4yi5HXCQZjEbrOS7jlKOQqLhc5Xd02/LOOe1wl+M7sqXrLf3frUgX8Mmdu4XA0/FhVNBVEVBtvCM9Z5kh3Nm8TcYfX+j8kIbRQ0OSfybG3J2BGdUVAdUmuyADdzLljZM7cDSvXODO3kN8c3/Gac/3lyiE+g4G3bfquTuPxJghdxJ1M5xC/Y/IsNZDzfYunHNOOVmZUAVBt6Sh9pEuIc4tDToJPVzKkiL1E6R8EywDakof3b+OJaTZg0haRi3w1IqWckc+bvPZun+yeS8Iqt31Im6kKLrlTvRTD5NaiHROm77iQ93jKvSqMSZQbdzbKWPsHYANF3mGFlZLa1eI1Y+T8m7uO9muAm/uZAPVFjjIderfeOm54KBxrgipv3Z2oieGFzXLVSf5ISMoZUcv7YB+MrnbxUuHYI2Ey+hBB3CuqLNQk+9UYwXV+o1djI2UjurEMdun49kuGYzyKS4uw0INoxNbXfDuW+EGjN4x4CY+Gv7EWqxlRaJM6i6eDE5MR6QHWAGS04nNvW2+1SHoavBKrfh1ieHJGSvqxtrJAOe+aHofTAYHh/f8IvBZ6MemJb68DeRqHbXf2J3uw5O3zKgPDYwKmerQAcPJ4AUpoUf92qNnJt7NL/g2R/+DaPP1QU9YUR2LmAq0sXF3X7guAW1E507aVt7d70PS1eY7/wP6TU0BKDPqhkRqJdpYH+/HtjsyeA3wRI7XY9+kHVNH8yZY/5twtRlER150swNlRe3rxJP7+IcTChSeFscGPrz1lDicoPb40t5v3n6OL/uG4Uc7VALKirqmml8sVrdHQOG834qcJ8tOttDT9p4TlQZ6dvL2c+zbcHidFKDSoIyofb3ly/L/MZ4jY+uC8gQcmTfUsQ1gRPPIqUpdmcCgJycxV6m3jj5uUYf/o0EZUTdGC6vRoIelOU4mgCmJ/j11ZMuGzsWYpCPYdzUI9CTq6iX9SrjHyzgoI6rVaLQaiHNLaq9xxH287zw/TzrirOzdQf4PHVwIka3rOfOYFIJGXI29V+sxAcqGOgpCDmXYT6GvM7LDToy73tjQI0c9w2WPexknKxuUcjXxAjHqj7hQF3aDlmGb6PXKExxlsBvre0id5WLdsPXoIY2UKwAXZO/KNqVGGEJXgTeliaKuo6gNG7l6irfpQTJYt0PpuhH9e8NOnUR6u0IspgR/jAC52oReCfejIOqTbdAKRheyR0Gro070b2iZ6Uv4CS6EJfuQsGqLmvLuO3FXI5H7v6J2Y8iOjZ4GamfsVWZ4p8MwowLRv/2c9pI/UdSNSYfu/+aC7F0RyXMKqQ4sGYg6uJTEEoot9p/5/pwBdWZjEt2IkaJe2NL9T5Kcz5mXI3EpVmKtKQkqjjromSGI3vD/34mRApiGrpt7XjjoYdLzvEHFUbWZYepIQevFi/dgh23oCdnmet/1ZQ+XsudqngCoBKo2bZjbOUQ3ozHu+mmC82n/DqWDNxDZrVcIVHyy8SNb26b9p7+ecfE+pRGMvTZNaZvGiuVaxGxH2krPs4qDSqFuYVfPaE+NSVsb/7/LP82d9N56wfgAq01rd7qyMizCoDINmOiZ7D3R/zuBRp7LsQMjyZuMNZIEaC6oE9zFdJEb5ZA83DD09FlXCjQP1Jnh77H9bbYhfGPL2LB2W9/UhiAJKtlXffVtsikTfHutg/fq8cwNkTRoDqg9vAM1+C4OYq0wqZ7WTcEo+UBTCvlRJM4GmDvZqz7Z49sprSIHR31JuupS29aUnEK2nskONmU2zQlU2tW10WqFrugb/trD1KFfRMp+JzdQWVc9ylSbG3VDjjbg8SiXPppZGDPqWhdHpVI2hglOyLmCSjZguqc2dDi9DWtgUScJbvrSc0OuBUbShoa9YpxX3Y1NJdUMcDrOHVTS1fvI/tvWNwwre29jR4+C8kwFgMoV6mwjDY1B/+qmtZl1UvWwXGxaiJMcZEPLjkJA5Vz1EslPnPeFFU/C2NBUWhCoXMEZeV4W2dAEUxioJKqZmun9+4FKNmCUFgyToNQPPf1H+Ge6Cc0vhYJKDkv3ZjIxyCIb2sEUDCo7r4qgmvfQUqNwUMkq3CdeVrMFXgYvAVS2ktG9ae/nC2WbrSlYSimg0tUMNi3TZqC1TXudcvmtJNAcKvIWa8vMlv68WaYtj0sDzakqd5S6Ghx5WRdqSgQtuTK1dcum0XKuuciTrMpVBfWqcVXJCVZRqaKWVL6rP6kaCMGK3xRXn8IRH6r6pLDalDmaUvnZXwXVpXIOB6s/e1dWTaWCAq5+KaYedUuV1BCKsdRR7aivqKvltd3SQaOoBYFC40G5TTceRlGgydarBJS4WhhowlRFoEEcZ0WCxoYDZaCa9tf3798F78FhFYWqELQUYdSqg2LU6oNq2s9nLwRU0958OflS1A6ievo/vyWdD0nvrQgAAAAASUVORK5CYII=;fontSize=10;" parent="1" vertex="1">
          <mxGeometry x="43.52000000000001" y="235" width="30.92" height="28.66" as="geometry" />
        </mxCell>
        <mxCell id="ZN_Vx1n1vfZxGkJz-T1u-101" value="Private Link" style="text;html=1;align=center;verticalAlign=middle;resizable=0;points=[];autosize=1;strokeColor=none;fillColor=none;fontSize=10;" parent="1" vertex="1">
          <mxGeometry x="-93.91999999999996" y="260.69999999999993" width="80" height="30" as="geometry" />
        </mxCell>
        <mxCell id="ZN_Vx1n1vfZxGkJz-T1u-105" value="Private Link" style="text;html=1;align=center;verticalAlign=middle;resizable=0;points=[];autosize=1;strokeColor=none;fillColor=none;fontSize=10;" parent="1" vertex="1">
          <mxGeometry x="18.980000000000047" y="258.54999999999995" width="80" height="30" as="geometry" />
        </mxCell>
        <mxCell id="ZN_Vx1n1vfZxGkJz-T1u-109" value="&amp;nbsp;UAE North" style="text;html=1;align=center;verticalAlign=middle;resizable=0;points=[];autosize=1;strokeColor=none;fillColor=none;fontStyle=1" parent="1" vertex="1">
          <mxGeometry x="-170" y="-30" width="90" height="30" as="geometry" />
        </mxCell>
        <mxCell id="ZN_Vx1n1vfZxGkJz-T1u-111" value="" style="shape=image;verticalLabelPosition=bottom;labelBackgroundColor=default;verticalAlign=top;aspect=fixed;imageAspect=0;image=data:image/png,iVBORw0KGgoAAAANSUhEUgAAASYAAACrCAMAAAD8Q8FaAAAAqFBMVEX///85mcZ/ugAzl8V3tgAulcQlk8N7uAB1tQAplMP7/f7y+PvL4u7r9Pn3+/1OostbqM7Y6fLj7/bV5/FAncijzOK41+hTpMyNwNuButi21oKq0OSDu9h2tdW21ufK4e6Zxt+cyFf3++/Z6b7U57fL4qjH35/0+etnrdGkzWC92o+JvyHo8teXxkbq89aNwSzi78uv03Oy1Hioz2ft9eG314mYx0HH4KErmvHLAAALDElEQVR4nO2daVciPRCFbXpF3EAU9dUZ2RRB3FDn//+zt5sWBfomqeolSXO8H2dOTPqhUtkqlb29X5nRwfVkctE2U3f7YnJyfWqmbpYOTwLXdf3gZl9/3fs3gR9XHkwO9dfNU8fxnaX84yPddR8dr+p2Orrr5qkTOCu5J7orP3G/Kw+s5tT2nR8F53or/xOsVe4bco4UnbprDdVuTj1no3ZrHflBsIHJ8bV60sPmJqbgQGftdP3douQEWg2/HThbnP7qrJ6qDCXNfrSzhclOTucZSq7b0tmAlptpgO5BRK0/279l7Jou9Tbhxs80Ifijtwkq/Zel5DpajSn24ZkmxJz+09sGuQAlx9U+w+ts9zrLON0CW9JPKeGUBRXc6m8HFqJkZlV12LWXE6DkmFp72svpAlDSO/9eV8sBnC5MteZH19b0uFStLpgXXJtrT6pLyyjFnI4BJ81TuG1BSob3Du3jdNO0j1Kyi5n1T80bc+2ZAFvqGqcUc+oBPz4x1Jj9Sda4raAUN+0EcTJwiJE0BVAy3+NS7feyjfNPTBz2AMO2hlIs9CP2tHNCbtKSHvcl5BJ0H4q1rKck4KR3pxBMdW3qcanAQOx3NXI6BAsn22wpkdlpHVqG20gJc9LV0A60Jc07ukRBe9Ky5Oz49aGEF52+Bk5tsOFsLyW40aMhwOC0ZpTwtmHVAQan2b5uOSXMqVkpp+1giqUFW04Jcqo0ECMbJpBExdlOCR/9VBdgkA0TsL/HpYKcKgowOEe+sBaU8CFZNZxAMEUtelyqM8SpgkAMFCZQH0q4/eUHGMBgiq72mOYC0sEJ2WydbCkR5HRWZg3IA/q9elHC3rXMAAMYJlAzW0qExuryAgwwpTr5pZWq5AT2IvRvvpckyKmUg3Ows+W4vXpSwuutMg7OEaV69rhUf5tVcIK2VGNKeJejKCdwhlPjHpfqFNhTsUAMcMJce0qYk5//uhYKpoh7nJHAjlJ1Cr4rdyAGihLaAVtKhM49/HxfhsIEHNdE8EsF6sB+kmNdgcIETIS+VCR0cSPH+qsFDsB3iBK+uMHei0XBFGbCzSoTjBfhBWKgMIGd8UsrYU6Mg3NkkDvV41LByBr6zS3k3uLxctcoYU7ke4BtsIzbMb+0EhyomqRAjFOwNNw5v7QSurjhUgIM0IKHaUsv49eHfv/hdTpkN/tx9JYUfRs9sovejz4W/X5/MR0OGKVyckLbDBxKg7t55HlhKs9bcEgNF2H0VdSLGq8vjKKD6ey7qBc939FJwchtVSBGQUqDqxhRY02h1xgRy45mW0WjOdWkBm+b1YZeOCUWxUtXBSfol+h7DOOG19hW6M3fCUXf55uQ0qJXpGqHoFpvRjbGI3QhQcbpoJhf6mdbu/zaUN3iuyyk5cd+3qurfYtgrR7ZoODtm6aQE9pOd3zqvt59A35pomisKLuAX5p8bENpinP848S1LogtxxcSRAFQ2C+VQCm2CrmDEpjhklOosCdJWe+V2HYBJ2hPAu9NrUhGKW7xk6ToQvylMaeZtNpXWVl6v4M3KBGngpT6UkoxQ3HRqexL46IPkmpH8rKR7NfZ1AQE2mc5FfNLe2ORc/n+YYWD1ov8S+NvFc+9BoqyClPcELqQsM2pmF/aGyi+NOEk8jEzuR1Kv/VNVda7o34ChVNBSvF4rsQUvuGiY3VR4QBwry4r6ewZ3QD/tD4vKEppT93aWHgBoTQmiTkpvFoixRi7KXTB5ceeClMaEn5VQYNJRSPBquWZgHjOwLR3Kel3Hbhz0mP8daWLWDYYzvYWlKKCgf2dglhgxAKBxGvuVyZBdGrJy5lDaW0Du4kZpWDYh9US3FqMmLUls98FFrOcFR2g9Ev+LeePq2YDXx8LxjqaQQgc8QfJElULpU2dg63bZbe7RsbEyuz5RMOEfleSa4qLwnoVU9pU4QcL0xEKwUnCDo8BJcflnKcrJ4hiTIpZ9EoRnHTNSZhomzHfQrvjPcG/8wLjqZjAbJrkXkSLjk8SJvr6d6kTRCPBhKypyTklpnY6sO1E7HQR3E7RZk0Jphvomzi38gb5fRPRhUdwVH+twDcdouDuJOQQxQAzE8WSPhWOdANaUTzSESbh7JHuDMThpDfKUBwT7zIs6WfF30rrOHjeRJv8s+ZNhyhO5Tj9L0DJcX2GdyK1F699/5E+Fc/C70m/DoeSNNsSXq1wYn0ozUUePO51lE/FHpxkiniJJBJIIrYWywMn4hxOhI0U0c9KWA+Gz4JqCdOJiHMoqspvBt04h5N6O0S0QabagGzgCVeq/ISBCFng0JU8Dqehek4gKqq0xPBTWK3Ss0k2iLdFypWHLoNx7qZITziS9oq3x1QeBju1VAorZuw2ETMKgh1OFif5FpknOR4ZyL9VekL+JP91hBvwGZHzLk7gtlM5nOQuQnoSqjCIO1lvp+/w0rNToggWzq2CgZhTOJP/qhJOEseU6kpsTxH5WIWTnbKFMHFuX4hO81WUYk7PgqKe2rngSIuEEj3WgpXDEwbwciJ4pzCuJJId2650FYGiYUTZBRnDWsOQPMjBCCdJhDjKzsTi9DjPfK3XoK09X54zX+vNaF/6nq01jPpk7w0pSRP1wWkmK/JytPG1odeYkk82xrOtovS1/XCrVu+TPvmGPU6RzhBlr2DeyXu8akSe5yUxkFGfc5gYW9TbsmisyHvgFX36WNXqRc9Txq4A35YSwWkm9+7i4GU8/fg3pIeD/Oh+OJ5Ox7mKvr+M7j7uRi/k3pYIU1KvPsDBJ59TbYQzMFPWaOiuOO+svD4qkqcaLlt2klOxbN4oo+YucsLZvOm7RwI/vmOcjtA9DNb9TMzJ2OMSlQjdVuHm8ITPX+0UJ3Tlm5/7RTDP3BlO6CZdntwvcNvX6OM3ZQreD8uVr2GXOcG3GHLm60C5ZXeDE+px+W/pwpB6p2n4EbPiKpeSIMTX+GNvRVU2JdE+Xb05YUrF/mYbxLHUmxPKPVB8noMy+NjwGGVeQVsqYTaIzxFseNw0jxClctYWMENGTe0JZY8pawUm4FRDe6qSkiAxWA05od+7zNkyPjevG6eqKQlSO9aME+pxZa+8BJxuy62lSumgtAdv6teJE3zavopVPLiBXh9OcIyrZi0BD6bqwUkjJcFBZ7lvS1QjSKm6+TE8wLOfk2ZKggMX2zmheygVz2Uwp9LfCCpTBigJDqZs5oQSwmqYF8MDF3s5GaKEnwiylhPaLdM0h4EBmnZyQmlztc304AFeFW/iFRXscbfaqocHU/Zxgj1O5+zlFPY7yzih0w7Nczz0BEdFb3bmFfRLumfC6AkOqzhBSvrHGXgwZQ+nDsqcY2I0hq9CVPf2Mk+W2FIieDBlBydIydQIA4OpbOAExzhz/gAeTJnnBP2SSa951LPQniyzpUQwJbk41bYOoamK+RGYnkJaj9DzJ6btOxFMjcxJa1Sq2tkE+q55W0oEU/4a4gR7nAW2lAimsjXCCVIy6inXBQ6mjHBqE1PImxK4MeXSnlIqU+3sNpjbtKTHpUIHU/QnzMoRWKFYZUuJwMGU29X6vNZ+dolpcMQVCRxMNbVugp1lB1zfOkroYGqZpFWbMvs6ro2U0MFUwHqws5gy6U9dVpZqjcrcmAo0OvHMZED/SEvVNieT1uRaS2n7AM91dNa96Zt8iyltHeDpDTi8Xd+q0Nnd86i9duDCSmFfWK01M9Y9s+WrvTJ+7XO778dRWU89m1JrEviu7wdd/Wu6buDHVQcT9kP0RtQ+u768NbKYOri9vj6z2nn/6le/oul/7lm1wer/zq8AAAAASUVORK5CYII=;" parent="1" vertex="1">
          <mxGeometry x="432.89" y="-10" width="36.11" height="21" as="geometry" />
        </mxCell>
        <mxCell id="ZN_Vx1n1vfZxGkJz-T1u-116" value="Spoke - PROD - VNet" style="text;html=1;align=center;verticalAlign=middle;resizable=0;points=[];autosize=1;strokeColor=none;fillColor=none;fontStyle=1" parent="1" vertex="1">
          <mxGeometry x="289.9" y="1" width="140" height="30" as="geometry" />
        </mxCell>
        <mxCell id="ZN_Vx1n1vfZxGkJz-T1u-124" value="VMS - App - Subnet" style="text;html=1;align=center;verticalAlign=middle;resizable=0;points=[];autosize=1;strokeColor=none;fillColor=none;fontStyle=1" parent="1" vertex="1">
          <mxGeometry x="11.650000000000006" y="31" width="130" height="30" as="geometry" />
        </mxCell>
        <mxCell id="ZN_Vx1n1vfZxGkJz-T1u-164" value="Container Instances&lt;br&gt;3 Container Groups" style="text;html=1;align=center;verticalAlign=middle;resizable=0;points=[];autosize=1;strokeColor=none;fillColor=none;fontSize=10;" parent="1" vertex="1">
          <mxGeometry x="-51.48" y="112.38" width="110" height="40" as="geometry" />
        </mxCell>
        <mxCell id="ZN_Vx1n1vfZxGkJz-T1u-174" style="edgeStyle=orthogonalEdgeStyle;rounded=0;orthogonalLoop=1;jettySize=auto;html=1;exitX=0;exitY=0.5;exitDx=0;exitDy=0;startArrow=classic;startFill=1;endArrow=classic;endFill=1;" parent="1" edge="1">
          <mxGeometry relative="1" as="geometry">
            <mxPoint x="550" y="122.96" as="sourcePoint" />
            <mxPoint x="470" y="123.05" as="targetPoint" />
            <Array as="points">
              <mxPoint x="490" y="122.96" />
              <mxPoint x="490" y="122.96" />
            </Array>
          </mxGeometry>
        </mxCell>
        <mxCell id="ZN_Vx1n1vfZxGkJz-T1u-175" value="" style="shape=image;verticalLabelPosition=bottom;labelBackgroundColor=default;verticalAlign=top;aspect=fixed;imageAspect=0;image=https://mutlubalik.com/wp-content/uploads/2022/05/Drawing1-1.jpg;" parent="1" vertex="1">
          <mxGeometry x="500" y="86.26" width="38.05" height="32.23" as="geometry" />
        </mxCell>
        <mxCell id="ZN_Vx1n1vfZxGkJz-T1u-176" value="VNet Peering" style="text;html=1;align=center;verticalAlign=middle;resizable=0;points=[];autosize=1;strokeColor=none;fillColor=none;" parent="1" vertex="1">
          <mxGeometry x="469" y="126.01" width="90" height="30" as="geometry" />
        </mxCell>
        <mxCell id="ZN_Vx1n1vfZxGkJz-T1u-301" style="edgeStyle=orthogonalEdgeStyle;rounded=0;orthogonalLoop=1;jettySize=auto;html=1;exitX=0.25;exitY=1;exitDx=0;exitDy=0;startArrow=classic;startFill=1;" parent="1" edge="1">
          <mxGeometry relative="1" as="geometry">
            <mxPoint x="63.47000000000001" y="170" as="sourcePoint" />
            <mxPoint x="63.75" y="220" as="targetPoint" />
          </mxGeometry>
        </mxCell>
        <mxCell id="ZN_Vx1n1vfZxGkJz-T1u-387" value="" style="shape=image;verticalLabelPosition=bottom;labelBackgroundColor=default;verticalAlign=top;aspect=fixed;imageAspect=0;image=https://upload.wikimedia.org/wikipedia/commons/thumb/a/a8/Microsoft_Azure_Logo.svg/800px-Microsoft_Azure_Logo.svg.png;" parent="1" vertex="1">
          <mxGeometry x="-195.68000000000006" y="-154.00000000000003" width="77.58" height="22.4" as="geometry" />
        </mxCell>
        <mxCell id="ZN_Vx1n1vfZxGkJz-T1u-84" value="" style="shape=image;verticalLabelPosition=bottom;labelBackgroundColor=default;verticalAlign=top;aspect=fixed;imageAspect=0;image=https://pbs.twimg.com/profile_images/1020021942064066560/lomkQ6qZ_400x400.jpg;fontSize=10;" parent="1" vertex="1">
          <mxGeometry x="138.51" y="282" width="51.91" height="51.91" as="geometry" />
        </mxCell>
        <mxCell id="ZN_Vx1n1vfZxGkJz-T1u-91" value="Azure Monitor" style="text;html=1;align=center;verticalAlign=middle;resizable=0;points=[];autosize=1;strokeColor=none;fillColor=none;fontSize=10;" parent="1" vertex="1">
          <mxGeometry x="119.45999999999998" y="335.75999999999993" width="90" height="30" as="geometry" />
        </mxCell>
        <mxCell id="K-oJcx9k2w-ElkMvaQZx-5" value="Backend/Utility Subnets" style="text;html=1;align=center;verticalAlign=middle;resizable=0;points=[];autosize=1;strokeColor=none;fillColor=none;fontStyle=1" parent="1" vertex="1">
          <mxGeometry x="157.89999999999998" y="220.00000000000006" width="160" height="30" as="geometry" />
        </mxCell>
        <mxCell id="K-oJcx9k2w-ElkMvaQZx-6" value="" style="shape=image;verticalLabelPosition=bottom;labelBackgroundColor=default;verticalAlign=top;aspect=fixed;imageAspect=0;image=data:image/png,iVBORw0KGgoAAAANSUhEUgAAAPwAAADICAMAAAD7nnzuAAAAeFBMVEUAcsb///8AbcRuo9gAb8UAbMQAacMAZsIAasMAZcLQ4fI/is8AdMf3+/03hs3B1+7u9fvp8vmzzurH2+/h7PdYltNkndYof8t7qttNkNEZesmbvuPd6vbP4fJSk9KnxuaLtN+ewOSsyuiBrt10p9qNtuC60etlmdSh8mekAAAMlElEQVR4nO2d6ZaqvBKGATOBoOA80O3svv87PNpOIJU5aPQ776+91taGx0xVSVUlCP/DCt79AgrKRsPjZj3bd/az9XJ7THJXf9hz+Gy4nEwxJYzh6CzMGKF08bvuFw7+us/wyaGLKYtQ0BDChEx3P7YP8BY+2acEA9zVHyDdD62e4Sn8akojAfhNEUkPmflTfITP14SJ2rwmRvfGw98/+HxHmCr5pflpxxDfO/gDxlrof/hsZtT5PYMfLvRa/SYWHA2e5hV81qHKY/1Z9Fff9vEJPgn0e/xDERnoPtAj+EOswpjyf6B4r/lEb+CzX6LCjuZbyv1P1tPr+r7A51O1Lo+64RAyeC+KglLnoZ7AjwLFme4EHxb8HwphHYP/NfB5clxtDuv1YXlMIIOk5DcmAB+GY/4QIRrmfvvwyWaSxmenlOGzQ0pi0t0d67/ASOjBAPDhmj/wqTp9u/DZ9t/ZKX0GiEjcWyf3T+VIfXW/wocDwv0OSThv01Cb8EknIjzfDGHaW11s0myhYdnc4MMy5bp9TNXUbw9+2JV4pYig3fk1eyrOawM+zLs8SxgtFC39tuCTroqliskunGlZ8w/4MOzwBn40V3vJduCzSazYlTHWafc6fLjh2YTk8D74gSaRKXw45C0TVGm5bwE+43ZH5/DhiGPvoMV74IupmUtuBM91CdjuHfCJusHiAj4Md/DAjxWsfNfwwxa7PAwfDsDJFfhg2/BDJZ/cQhHAlATQ/Er7L4ZPlHxyA6GIEUqCdDGdAI/Ne8A0g6avhS+UnTMdbkxo2t2vTv5gxrXcJsBoI9I9TZfw2dQ1+/lMrrvr53Jzddkcb6gn+5JL+LHN/iNATuLpbqi6Id9vmtNS59Yh/MblRI8Yma+0DmJGi+dpL/on+Yo7+MIhe0SmG+1t+Gz+PO0Ryd9wB//rzJ5nZKK8H1HT7On3Zyvx553B9101PAsOxnEnT9vaSOLaOoN3NNOzYGlx4B4mae2vUfHP6AreTcNHVM0R52tSG3ySEyxX8D0HDY9oxzLQKuvVV9uoI/y4I/jEQcOzhV2EDbSpmQo/7wi+Yz3VI7q2fQlgOzsWmgpu4DNrhwYvzFa3inaQfS/sTG7gj7bwFHLW9ARu6bCl6Ctu4G17Pd3YvkGxAB2LSHhk7wbejh1h25kuHHJi18T7OU7gR1b7NwiNVB+UZTn4Wb5PJZzuncBbDflooeK8Ff3lpDtNoxjanxHslTPRH3UCv7Zw5NFCatgky9+UEBadD3OBfpxBm1h3eJGx7AT+HyWU0jg+rbMojk//JGCstBH7cJZWg1Gb8CW4fXkTEXUrJ/DLzTApi+tvnBVlMtzM5ilW+AkQEvb5YseeDrkb8APxgSgRbd+3eD6fl9vdFBPhDyAMJPj5jRvj6Rl+LZlr3wX/p7y/X1BuDHUs2GBNutBhxBO8IDjHA/izysO02YR/b8Y/UCsmcHeuwXMsm9ojWh/zcpVr1PQ6oNOXqza8Q+4qPPeAuiImmk9fF4c36D2HqWDei2Vzbm+uwCvtFre/ziuq7JBqN6W8bZYk4i9eD3i1KACh5fzaCMzT0nXnisacDx1Fi9cNHjyeg0S7fPxXh58WnVvn501FK2GLXuHFlk39G3TOi1F5fextOf9bmhln40Yyki/wghBEEH8Czy7vCDzuB6cui+H/G0iMlj94QfAprIhtoYe9J+p6Rgm8xfIjc47P8GqR+XXRMeDhvCnk/CcFva1CarSgeS63bCDhtGnreRJvf5VCJOo0NTwhQM2l1Sv4XcxofHaIcRshHs2dQq/g8+yk0U9/e+h0cSzOIzaifzoM8wq+pqK/mzZj9S3p69OsE/iyv5yNewtE4jhOp/PObjV0kdt/6gqDMeaG7Jsori15tvDFYN9l522r+yhFCGNG4nS8TGwOm2/KjmOmnlMtp69ae1bwyaFHuTs1EaPBv4GL+hbFcmqeZvqsqitpDp+fXkk2JUUEzwcu2r/fc4Vf3UQwhS87ip0RkWjnYgIYusKv2JZm8D/zWGMawvFEK9GRo6NhenmD/t4WJvDJXDWJ5KYonrho/aWTmf+xkaAPXyjnz9SeqJj2Inm2iU/T0D0yUxt+aZo/Yx91ctZKy5OHdY9Q04QveuY/PaLi8CDFN3CQxXLLwtCD19tBaQin1kWNQtWdS5FuQVpa8B3bPAoUC8NEFCUoH6AomunCC4+ClR9rH3xzMnls7d1rcKI6fNEI6TYS6zqw+BJLf/+62inDlxp53uIHy6MR5BpZ0mMt+JGDJeYqgL4YrtaT7nSRpoveeLbsy4N0NOoNQLocjSvCWz6rrqiW4p2vJuiyc3V+BELROZGKzZeSoMTSagJiG3X43HTXEFZ0T/3JtvMY3K1BJ4d4J/QIhlZRUB1l+GzqOCsa/15aryOs/YZpV5QdNrBY8S5Jd0rwv27TpoJLWEI5lhb8Q3QhiJg/WLR9qgq/ayFPkq72Si4aIlO+S2CR1hPlavD9VvJjlfdlEZ1wLQPV0kJNkZESfNZmOrySIsYb+olxu1A1+HFrJSDUFfP8wZ1py9BEBf7YckK8mrj1znRq7FRFVOAztyu8saIUtvpMixXQUgHeuF+5FkKwyfPPbFSqjPmirWoA+kIMbHvDN1SZ7WfOzRtzIQSOe7NXRPJ13mVmtL3gQhC5UdMrWHg7jxr+JAZuA80MRv0lqEsIb58u51gUygkvDCydaCaF3/oGD0cuGphhl9A0IbyL7GC3AgO1DTK4L2H4IviRV9PdRWC08kL7z6BQBr/0xcCpCgEvqj0v444U3r9eH8DZsaVuFyV9GXzu1zp3Ewa8e133hoQy+L53c/2foBIomkv9Lb1YAO+ZhXMTVORQs50UTmm7Pg754LoPUZfeCL0XzeLDZ6n8z7xFGEhI05qb75Xy+PB+OTUVQf1+rzHoH9XS+PBWJyKtijQd+5WGSfIokciH3/po4vwJmO81StVUsrr48F7ad38CSv9ojNGKb8SHN3GTXyOoxOFelb6accCHn3gLH0SAkbdVCyCIfivf+Uh4Cl4NoZRnWPvdPhKegBFtKhei1MLtPxSec3b3K5ujn3YDPhKe8Q7tJ2Lb5HkLkA9vX+isNfFrW3ZE9I0ISD68p07dWYLCnoK2jxvf4sPrWIwvFrfbnzTmvTZQnIQLv3Veu9mduMEKZ3XB4YojILSNA79K3QUdtqBIcCcpeC0OmUPnfCB8f+qtR3cVQxsu/ajx8hGBPw3A52N3WWztSRCltX06v6JdTjhrE77Fe1icCtEZj75TXagY4k6PDXioTL6nYgtegPIjloYwQQXlJ/iRWVmCNwk1l+6LrnsbEQk0CoCqFFzySpRT4HOPA8TYWHKnRw3eJpT3TSJw2kqGyXwlTWqowj/Pkh8hBhdaKlXSOSrwx09k59Kr6AHvolb3W0SMcxXv8PISNd6Kmibr3eFhf+AzpHY7HR9+7bs1LxKC6y2pwmvHNvglbJaneYX32HlXUmyUnn6B/0Drpi61axlheF+P4tUlubdEAO9fpKW2jJr+D/7TR/xZGvdv1+DbvlfyJeIWU5XAdz7XuKtIWNuYC599Qac/iYA1PmXwngYb6gr9ymmb8B6fS+lJ28YNPI0vNhAQnCiF9y6XxFSyewkh+I/dxHiW+LYiGH7g72msnlRun36GP3wNvPz+5Qa8Ttiq59Kd7gOfY280RfThDdOQPVSsa+AG4fhLlvlrWvj/4ZXhv6fbg1GpYniP4+00RfUnvN3XwEPB2BJ4f5MKdKW9jRfYX6vqi0zM2w8/rHlIcvE0CJ99y16GiUv7PZsZ2me1gc+ZRHpCJttY37KBOZfTNuG/ZNBz4msl8OHvVwx6IMlUBX7wDf0eyjRUgf+Kfq+/0F1Pab9hvtfexrnB+1gQR1NQRQE1eC/qXNpJewvrAV9+ZuTpQ5ibeCCH//gdDYPD+Qd8/tlOvYGBU4GX3AbruUzW+Cp8OP/gjg+XBtWALz7XxgXrI2rBm5TU80NwZUw9+PDwmfSR9uEsBC9OPvdVSD8UB4Tnp1/7KxQZTnYNeHnRCd+EsM01gE8Zlf8+q+fzap+bwYezT5r18NTuMqRGIvHK5B7C94jqx1xK4MPS0T2YbQtxrrC3gj8X2fqAxic9q+HOhQ+H3peNiOybnQcfhhvsc99Hbm565ZaKydbEV/wonmuHGOvBn/CXC6e3n7sRYsTJ9cYS+JOGjm9/t9WJvLt1ca+3CnwY5oPJgn/L+iu5I0bRfOVkqKvCn1WuOr0gJoRhHL1DmBFKF+Pl0GGbK8OfleU/x9Vht++8XPvZYdsvnXPrwH+n/gfk/ro6nKdcxQAAAABJRU5ErkJggg==;fontSize=10;" parent="1" vertex="1">
          <mxGeometry x="218.39999999999998" y="282" width="63" height="50" as="geometry" />
        </mxCell>
        <mxCell id="K-oJcx9k2w-ElkMvaQZx-7" value="Azure Backups" style="text;html=1;align=center;verticalAlign=middle;resizable=0;points=[];autosize=1;strokeColor=none;fillColor=none;fontSize=10;" parent="1" vertex="1">
          <mxGeometry x="204.89999999999998" y="335.75999999999993" width="90" height="30" as="geometry" />
        </mxCell>
        <mxCell id="ZHnCmB_-eCUDnraLg0bQ-1" value="" style="shape=image;verticalLabelPosition=bottom;labelBackgroundColor=default;verticalAlign=top;aspect=fixed;imageAspect=0;image=data:image/png,iVBORw0KGgoAAAANSUhEUgAAAOEAAADhCAMAAAAJbSJIAAAAk1BMVEUqMoL///8SH3soMIG7vdKytM0QHXvFx9gnL4EgKn9zd6YZJH4bJX0kLYAAFXiRlLkAEHegosIIGHk5QIrz8/gvN4aqrMgDFnjS0+IADHbk5e64utHc3ehcYZqYm72LjrVGTI9NU5Nlap9WW5c9RIt1eajt7fQ2PYhtcaPMzd6Ag66DhrBBSI3W2OWOkbausMsAAnVriPlZAAANf0lEQVR4nN2dC3ejLBCGQVKj9RI193uTNGnTNl/3//+6D81NIyrgDN3ue87u2dOeDT4ZgWEYBkL/dREzzRwWp+78exTHK644Hs27k8XBTNPIhIfj93q/8afhOLEty/M83/f5355lJ+No6u72vflpgPsIeISHTm85TBLLdwNSIRa4vpXYw2Wvs0B7DhzC0+idRZYfsCq2AicLfCv0tvEJ5VngCWdP727iuVJweble4m9H8JTAhKfeV2Sp090pw+HHEfaRIAlPn0HiO7p0FzHXtvaQkGCEs1U/9LWNV5SbsDXY0ANE2N1NvbbWy4v50WYO82gQhIN4mFTOCNoK7KAH4RS0J1x8RKDmu4v50+f2L2tbwtM2dFHwznLDbdv5ox3hYjvF5MsYpy0Z2xDO3lHtd2MMt23eVX3CwacCn+uVpfC/o72+e65NGNu+ghn2cVl7hRfATVaGCY+vlvzjEWJ1BZ/RUfkIZvU1HR0twsHzVG1+sDptCQlxonetV1WHsOMrvKBghPxV9UUfA084eA+V3U8YQsLCrboZlQmPrsYMAUSYmlHUo0EJ15HO+gGMkLDoE5Xw8OJpPBUkISHe1wyPsGNrLiEgCfmiQ+lNVSFcR3qPBExISLTGIdxpPxE0IbGXCIQz0sLLhiYkLpPujLKEE7vNKheckDjWBJZwrjVJIBLyaUMyjiNHOGoHiEHIEUdwhKuw1bPgEPIhVWpFJUPYawuIREjCHgzhOmn7JFiEJJFw4ZoJP9sDohESuxmxkRDAgoiEJGl0b5oIe2OAx0AkJOOm4aaBcNR6kMmESEii7zaEHW1fuyhMQhbVLzVqCSctJ/qbMAn5pFEbMK4jnNlAgMiEjlu3R1VDOCBgW0q4hCTo6xHu4DYlkAmJu9Uh/IR7AHRCYlf7b5WEUMNoJnRCUj2gVhHOEqhRJhU+IbOrRpsqwi/QjXl8QuJu1Ag/9eKiVTJASKwKD1VMeITshMQMIYnEkRsh4UA/b0ssI4SO2FrCn26BZkLmXJQICe3rr4G+T/9ZlnAOs6AgrH8VExLefv8KhBiJtokFhAOw9DTZ4PtKdce1QsL3VPCzPVB7hCVyWVsDC6rbe4LvtEw4mQI1xzvGhxRhD25q+lNeSJUJ+3BJanJGHACOqcFLM+EKcgz3ZXriCtK7SJ6aCAeg/ihLmjMLIE2Y5jM2EX5ADTNnSRgR1IS8xf/qCWfA7hqzmowINjddW3zs+w+EUN7MTV7T1kIMa0JuxH0d4QTIm7mLhQ1GBHZOucLi9nCRcAmfL9pgRHATpomQ1YQT4F6Yqb4nQq9iUk0LRiwQLuEz7rkR6zYWYviXlBux4ErlCRfgvTAVi2oIbZQWC8NpnvAZJ2u7xogoJnyYE3OEBziXuyDmV/ZEqLXvY4vjXIs5wjWsO3NXpRFHOCbkLcZCQmDnIierghBjIM3Eclj3f85Ren2m/FdqwoSE2PewyZ1whzFVnMVcIeEQ57hUqmBXJsQaZzJZIiN+4700fNY/lAgR3Ke7hEZENGG+Y9wIXzHbExnxCdOExHl9JDyh+DM3CYyIakK+wjg9EKJNhhdZj4mEiEN3plt04UooVxxAX+wxXPKGa8L7W3Np+ASR21Urq5jYg21CQpJTgbCH/JKmuzRGTchf016BEHckzWTnI5kd9HfmNpqeCaFDbMIWhzlCA98oiWY5whHmdH9Vzogd9F7I5Y1yhOBBRJFye199PB/4rksa0blV9HEmk309P9DF74Wp/DvhxEyLzjX97MVAL+RKJjdC4K2DSl2MaMiEF++bGOuGXM6bSRNeOiIx1w3JZeltyoQXxy0lnOGuK3JyvnhzGxMDaaZsRkwJ53jxkkclHXo09n2eE5VSQp2VE9OLk3Ej6pmQ6RSgyiLDKaF6DIpZwUovmuvrbTIzZ/SmfgIyi0elhETxWZnlx9rhVb1hm3kD+jRUZWTDM+FBbWzj9ksdvoGHvGYuNuqlcfq5qh3TtFpOeFRxg5nlnB3anyDkjH2lA/P2JCP8lh9KnbP9fo6QL0v6Cna0njJC6aGU2cN7KOKnCDnjVyLLmK7zifS2oWOzfKjl5wg546tkfbh0S58TbmS+Ecd+K+ZT/SQh9/w2YxnGdLogUl6pYw8fz4b/LCFnfJFgZEFG2Lgl4yT98tn3wdRqlGx3CexG/SnvIx83YSPjNCVs8rud5FVYvOj7qUnznRxisDx2GyV6hGPjuxoeOOGidsJ3ki+d4kxnSdYre0jxUdFxV2/H8YIT1oUwguRFuWpRTpKjtCvMsZfUpJYxOXHC6sheMG7FZ4aQMy6jynbsLiescmmCcNOOzxQhpadlVYFD7tSQis1fzte+mK8pwpRRXITTG1UQBuEOolixOcK00KjIjl7MCcuhRM4nW96mXiYJU8ZyfzwTPvg0QbiE4TNNyBnfHxm9VZnQW8KVRTdNmBaNLb6RfkpY3Bz1xelLejJPSGlcxOn9azbsvhTnPl/wlv7mflheb5wJ/5WxtPtVXhdnI80/Mh92XsaClUw2W4h3uH+ZT9Ppi2M3mU/z9Pv90urYVOaX/vq1RV18MVtb1AWEf8H6sD5GnEx++xp//lYfA8/W+AfNOE1zaOUoeQbH2c0bYz7Cclfzxr2aLE6jG2v70xwgk91icJrDdtNyrO1JYp8mi7VRiUSMvzBe+kQk9i/SnXwimRrxl8W8v+X2EoPND+xb6OV9FAlHrmSw+bJvYXTvyftPKzspTzgi0jUYLntPVU6NQK33D4MlfdHJVLgTStsv1WX/0OQecDihXZ1ak1fCUaBUQ+OyB2xwHz9LjtAx4pkwdhVrhFz28ZVPAernYoTpekUn64t5aXxCtQZKdkAg/aOew6OZT5MO3lQrBZo5K1X7kVw+jbGcqPF5yamTxs50XplbTpSpvLaLCc3ksae65bUtQCrpNmt8jRoYOIuQKbzmJlKwKka1ylIvz0I+1XVVluidEaJUGigpuS+m8c8EpcrlCBvJ8y4UOAIs1VStXJ73xMRXmuTjIUaMmMvVpwZWQvdDncZ6Yu68hYmO+FBYEPeMbKbCmRn8c0+5gdSUEQvnnvDPrpVqQyrkfGqqcHYN3csQ1KNmyH2/eP4Q/aCzXQ7WIdaMyHQ96nwhRD7bdTkOVBRS6ZarkkmBELGwSSqBCbGN+HiWm35ivqZCEyKfkC+dx4ev1JaTXSrXiG/EUk0FzOPjFSWMUV2p22nOOyHiifwKE6IVwkolqG0yQ6tPU2lCxDJK5E+5Pg1ejSGr+iIYtKI4wf36wDsh1hn5cs3UnEDrweaUW6rli2LhtFaq22LAiPnpKUeIs9JnrAYQvD7rRRX12gYoY02tCZG+VhaJa+7RD4RD67W9MBXYfUQ5FeqI5wkxznQL65jlBViu/KZxvoBpYa6CrzyQHjyq1wChCO17voEC4QK8JzaaEMOI00Lp+aK/AW3Exl5IoWukk0cTPhBCV22rKAlZ1H/AHvHDNWwPPuM7qBFlTMiNCDucPmbJodZkry2SfBdokIiN62uyg671a8rrFo0I2ROb6uqD3lTgy5mQGxGubzTfjUBHgEuMt+FFvvAmHf/66ze4Jsur7fLq9AswnMEussW3IV1/DdfgbSO9jhDwnpmbjNxolUrqnhn6DB+xMUXoCS5Axrzv6S5DhLL3PdEO+BrDEOFU8s4uhDWGGcLH20lqCH/p3XlDQSNV9x92//X7D3/nHZYV171UxaNh62/+hfeQ0hnolqmBu2Qt1btkf9t9wMKJop6QrgFdcPw7nauXMdWEdAvnvWET+lr3clM6BBttsO9WF++iNxMewPJOcQkdv+4iyTpCvpACQsQlDMtLJllC+gQ0oGISsupr1SUIaQyzzMAkjES5OvKEtAeS5Y5IGDUFnZsI6RrCucEjDBvjeY2E9ANg5kcjHDddkSlDSD/aWxGLMGwGlCGk69Z9EYlQBlCKkK7ajqgohKxxkJEnpKOo3dSPQtg0TSgR0nk7RARCJ5SsvSJJSCdWGzccnjDwZYs9yRLS2bBFiBGc0O/L3NquRkjpUv+JoAntd8HntSeka20/HJaQTWU3JlUJaUeyBDMuoWsp1XdSIqSzV704KiShtZHughqElO5DnWnDEi3hujqETrQWfBQkIe14GmOq+94rSyezxSfKFciUCelgq2FG1y9LHdCZatRbUidMUwyMXb1TkKduQE1COthPDZ2ozyn4o9oDWxByJ+7VzAn3m5i9qY2ogRNSGieGrsHK+Dyr6lQKHiF/VavLaAPz+bbMUheckNJFZRltULnhh9ocD0dYXw4dRsyd7mfND4JGmDKi2tEft+RrT8jf1ecp0ik75k0/2vJBEPIxZ0WU7iiSU2CTlVx+ar0gCLk6u6kH6QQwP9rIBZoaBURI6WH1GkIlxLkJ6bV/PS8CI+Q6fbqJzhV3BQV+4n9AlGm+CpKQa7Iehp7+GW3Xi17XkHgUnJDrFO+sxFendL3E347AXs6b4Am5Bsfe0h5brhwmY4Fvhd42hit3nxcKYabF98fGSWzLdytnEha4vpXYw2Wvo7lwkBAeYabD8Xu93/jTcMxZLc/z+Nqe/+1ZdjKOpu5u35ufICa9GiETXnVYnLrz71Ecr7jieDTvThZt3GkFGSL8Qf0PLXrk4JllvlcAAAAASUVORK5CYII=;" vertex="1" parent="1">
          <mxGeometry x="860" y="250" width="35" height="35" as="geometry" />
        </mxCell>
        <mxCell id="ZHnCmB_-eCUDnraLg0bQ-6" value="" style="shape=image;verticalLabelPosition=bottom;labelBackgroundColor=default;verticalAlign=top;aspect=fixed;imageAspect=0;image=https://static-00.iconduck.com/assets.00/azure-active-directory-aad-icon-488x512-3d71nrtk.png;" vertex="1" parent="1">
          <mxGeometry x="81.56" y="-125" width="52.42" height="55" as="geometry" />
        </mxCell>
        <mxCell id="ZHnCmB_-eCUDnraLg0bQ-8" value="" style="shape=image;verticalLabelPosition=bottom;labelBackgroundColor=default;verticalAlign=top;aspect=fixed;imageAspect=0;image=https://www.interibex.ch/wp-content/uploads/2021/11/Microsoft_Office_Conditional_access_interibex.png;clipPath=inset(0% 26.67% 0% 25.33%);" vertex="1" parent="1">
          <mxGeometry x="118.32" y="-130.5" width="23.24" height="25.5" as="geometry" />
        </mxCell>
        <mxCell id="ZHnCmB_-eCUDnraLg0bQ-9" value="Azure AD with &lt;br&gt;RBAC" style="text;html=1;align=center;verticalAlign=middle;resizable=0;points=[];autosize=1;strokeColor=none;fillColor=none;fontSize=10;" vertex="1" parent="1">
          <mxGeometry x="70" y="-70" width="90" height="40" as="geometry" />
        </mxCell>
        <mxCell id="ZHnCmB_-eCUDnraLg0bQ-10" value="" style="shape=image;verticalLabelPosition=bottom;labelBackgroundColor=default;verticalAlign=top;aspect=fixed;imageAspect=0;image=https://simg.nicepng.com/png/small/269-2693721_striim-for-azure-database-services-for-postgresql-and.png;fontSize=10;" vertex="1" parent="1">
          <mxGeometry x="-75.03999999999999" y="285" width="42.24" height="55.76" as="geometry" />
        </mxCell>
        <mxCell id="ZHnCmB_-eCUDnraLg0bQ-11" value="" style="shape=image;verticalLabelPosition=bottom;labelBackgroundColor=default;verticalAlign=top;aspect=fixed;imageAspect=0;image=https://res.cloudinary.com/practicaldev/image/fetch/s--WwnyWo31--/c_imagga_scale,f_auto,fl_progressive,h_420,q_auto,w_1000/https://dev-to-uploads.s3.amazonaws.com/uploads/articles/3768q3vwjhb637dmjzwa.PNG;clipPath=inset(3.97% 29.67% 0% 27%);" vertex="1" parent="1">
          <mxGeometry x="-33.13" y="52.38" width="40.04" height="37.26" as="geometry" />
        </mxCell>
        <mxCell id="ZHnCmB_-eCUDnraLg0bQ-14" value="" style="shape=image;verticalLabelPosition=bottom;labelBackgroundColor=default;verticalAlign=top;aspect=fixed;imageAspect=0;image=data:image/png,iVBORw0KGgoAAAANSUhEUgAAAOEAAADhCAMAAAAJbSJIAAAAhFBMVEX///8AeNcAddYAc9YAbtUAcdUAbdQAdtcAa9QAetjy+P3S4/b4/P7H3PTg7Pm00PDY5/fl8PpeneGDseeIteiewuw4i9z0+f240/HB1/JWmeCZv+tspePk7/pHkd6Yv+sohNp3q+UYf9mPueljoOKpye4xiNvP3vSkx+14reVvqORcmN97OEPyAAAUiklEQVR4nO1dCZOqOrDWkATFBfdxG1TQGcf7///fE9zoTgey4Mx5r95X51bdchRokvS+tFr/j0YQDXuD+DzfZdksy7LdOV59D6O/fqhGEI3i3WWdSik5F0IExb/8P86vn3WTbRb3/tdSGq2ydRpc6WKsrQNjV1pFN5kth3/9uJYYno+p5EJPGiI0ELI9mY/++rENES0PqTlxJTIFZ5Pz518/fh3GpzXngTV1Lyrlftb7ayL0GM8X0mHxIELBu7N/c7/GCRehJ3l3BDLNxn9ND8Lo4L96ZYSik8R/TVQJcSLdz54OjHezf0NURrs2b3L5Sgjk5e/lZDQV4j3k3Wjkk7/lOtGMv5O+HKyz/jsa+9lb1+9Jo5z8kR4wDw3pK7TPXNPuBGH+/7JTKOJBwAylC5OXP+A5g9SAvvCqion0akGcV6PhuP/8cWFMbWbHr3ZOqQGdgZj/Mn3jtax7ritxnf3hVG0c9aPe+fAleVDLjfn++7eIy7HrVD/RVb/sTs7mHKK3WbfrVIaws+3XX6kZfNdsUMHXJ3s51tslNSZJ0F6+gRoCP53qDRquXN/1RzwJKrUHOfmFZRzt6zhMMPO4fD9eVynwQXvQGCUa7Go5zPVN+/G98SaV+oWUh4YoofGx5rX05U/he16+J3ozWuzfKP97FU4lAO5tp39Otfog429jOGepe60K5cLfJviYBbp1fNdO3WoIFGLT2qPTGXYbULM+ZjqzUyRv4Kn9Bb1rGM9ZZw9Tz/ZNPEN00QgP1m3ccByn5K1Cub45VC74bQeLRu47TGjmHfKGxUaPllHiqSz2lf0UTJq59UqjQclTM9e/34U8goyXBN9S+Yq4NHT3GS0e5aah619xIgnkCfD4TZTH4D7KTRnDL3IZZVPXb807dQuY40N9Cnlu6hEyTp0SOW3m6nNqBcVeYWbEVvZWbp4YkaeR/zRxbZJAcoMciFVszmw9Ugojb0D2U2eQCZpVp+pWakC5eT4JZbX5n/WYOINioVFYhuprDllzPqRRl+Cpcud3UUpM8K3268SCs9RZuYnGw1GB4fj2mvoJocVJr/iGooy1a6y/rfoIzFK5iUbL+c9kkQadIvqfQxYx/+PPfJUQG1V6aDdj9XlDzRF8YK9uJHPlZricrVOh8aSGLBAi7KoUtrnzWe+rumjIaq42Jpi6CcOLBtmaSVHvVSTgbsiou551awOXA4I18az6N71sIVxC/8/H2rsReFGWg6UGL2tHyK2Ks9tfHpl38DjQM78KqJLe0OY7EhtVw/AKz1oTwUcX59fIlcBW64sSWwSDGmxZY7FVae0Z6reVjdM1FWwfXYqno0eINs2Gjq01i7XKZcwtWkK3Qfpb79h06JEldgSe1WcMLEwVShUK208+vFxUuHxdUcewIYbEE1pF8CiDhN3F1jwljT1LqKJf2kTDsXOwoNBK/5sSG5WlH9fd0X5XZDxMzR9vRlqbKxsKWxNCSWZfcbc5+pRVFMb28IjyWlh76hfqUes2RV9YQPm4Y/qIhCHrQKGq1VJasxVdecaDFO003S+SxWKhaPmm+zSjXzS3TWuJKLHoCHYljS+2WTz4jF5i+RtvNmFk8Y/JPeoSTyKMLweEAZfpZD6gdP455mcdE0Mq0Ygqh4jZyCjaWE0dX8xWeoMGKyYmcp92b+cUOpjS37qLmaBIGP6uVhX7+EcG/kstO7CUFjdo31c9eSKZG2TRDpQb1P1ig9jMa8vaSfwHYpezeOUr69hQkz6gG4iaaMYH3tfH55oKl1hPtLZXQAVPTh/mt8CyTVS/mimWFKPnB8JKs70htjZvmUw3dineeJ9WazZjxPz4cvD8hNkHyya2p1Dwoz0/w94WXvWG0Ka+8t7T8+fsP8s7f5pkL5YQCjFzydDvo21a5bQZo3cuh63Zi2YL1T1HXJMchsDk3jWoG6Od19G/J7SE4tBqbV8HSVrd9mC1Q5lMPDzXX/BdBtrzhE8hu0rb/0oUWiimkSZzQ0efXy43Dj5oTyIyCwujvhQoEObhzlHbgof60tdSIuxC53BBr72bf1baAOY5h7FBet/9Hk3Qp1oLgtb1zpBCXugwJX+GsTcrMz+C3W7SSKkainlpfErQOXO3JtPyZ2Z3s+MxzaRvIRZCm8LIDrgraWUKzVjN2koKNpIA1wI8PwdpJhzhd9jt0/LCmvgTyTDtA5TdwpohEZ1EtiYeDX4luGuhi7D6ZwhRWmlLdAkaDSJ2JkAL1FHf2wmJivs3gMVfK/PHVC4BpJEisYlVRP4EYr9B5wV76HbA+qkz8z8JDx+mkCKx3cQqLiCj3CsPB/nMk6mAE1wTuhia1DFRJIbtBlK3kXaqsEXoQgyf+RNQz6lUvkcmBUzXFSO+FbIGSETKKV4NaCm/PBbweFbJi56RY43xOXVYazMgDICUzi78Kwo2BU85vALPXbFNe0ZikC+uRy7aU1ks3robiloiD/YG3LNkzqOfhYaXpxHKuwxKiNchvNU3yGuQ1wX+scQzUdaojpt+mjCZoP0kYkK8EG8SoWINuSky7stbGGqrmlD32ITJ8LLC8EPlpHgmp0eIm5a5VwyoD8o5TFjho6RzpKY1qOhAR+aOyixycTqXAGU6cH9ClQdsxTnSdQiHK5EdpoC18R6MCROk45dTDBk/2G/wPqL8KywEEBPOUaVsPy5JpKQOiEwov1RKZEOx11+gTseO4Gfo8W+G8Xh1nm6Px8t0E39u6+UEXag0JHwdHa8qCsg0StEyuBNRgAL55cOv1urSzUuw2RV5x6f6Laor/qAEo1fOL9TMSicKHUOoB89xrCa0zGUKhT6dnRCMPlUU33Azvg4icFVcFwnAN8xZbf9t1at7lBj04bt/8gwoDRXNzC/BQHxVx5FmqtTg7uVEUF7Ix7tdwd2LOfbUJxwvav0C2Cef/8i5KGxDkwKVcon5OpXObgqTak+i9rb+vWgAD+LTw4u4pfIzcEztCDSKOUZqAbxYuHkZobfp6eEFBw1JwxxkEpgRgabCTS0RD/YWYeASoJ17ZzURVEpVtexTk2FTS6C5Jq3yG5Y6OW+gGn33p0G9jNJ+dSk2lQgDG2vopKwiYy42MZTed60G6qtUZGrlsE3DwM4v0VNKLUqawjDOtpP1ZHquSa+5KrvgTd3NC3jMqGzugT2F9n7eSC0UvaX/DLZh0UEz1xE5T+JKIscUMwVbF2s0Ofr2m9TJy6sa/vLcOu9hxjQTrEqtg0lSd7YJThkjwvxEuVYNQjdOqIblRJswsYKq1B5gXoQ3cQGEBZE1o1Ze1KIy4aMCK8PQakWfGijcb+ICMGri9ThwUrM8TwLD2sDHDYG2PgnqmJ38I6h3q840p/xC5txmiHI0UjfQHfQ5oLDQvaF1pGYCq3X2BvBoPjY10y90tanQqVaQA5VVRe+OnMxDNfRjjtisHCOgtXNITiHyoTjv4F+c3ZRSq/IOBLKimbgF6XscqRoaVGkE/oWTxuaWyfhE3+gw0ukIkK0UjBMajfhXRC8II1CagwWULFAKnHI9RpDCnB/syhdTzs/A1UtTk8haBxOblD7sgFEFuecOeOBCXFq+cXVh+DXDMnuxZO0BXEOFQiXvaet2DB2Tpi1vKyjfKmQrOTuYlVdJodCR0Xh23mvVX5982hxA1BRPMa2k0NlHQ6nwxjB2fhFSH6jZhWsUrGGIKXQl0D5pugxTISyJBAfwhWINqzmNO4WWdbkApi5aKiQNHTWZQiEWY+671IdC0yoNKqlX5TRZpTyk6mXNKHR16uYw5W9UHQ901OQUQu8UDoBS7VLMKPThNMYUEmsIzd1cp6nWS49/Ii1Mdynh+oxUvTSutC2c/d1eEt9UzyAsGJj7VCzyoNI+XDp79H20Nk2hrgKhOryQ9fStfCSRqvfpqnk7+zFyLM3uSqneK9Vlgfw0OCLtKC68hIVSnqRBQMTuoLJQ+GlgQErhvz9uxoVnl/gvIxZOCfyMYCvVoSfHUt6K6ioT4FJWGopT6YoL9JAXnwGhri483X+gBn6bFPN8HcKuykuBKL0rocBdqD6a2etE8G7XbBZJCNXSbcA37nELeNIU907fJbRmWauoguqKRgFn36Bw7y2vBHIf1b+ysyeR9BHZQWmXoLsVbAs9UlUaLPIJ/4p1Qo1iZbqA6I1CIkjLIhy5vG/MdkyFTctQWwTXgDXRUfzDIKezQFhOiICW5T0GBiuFAyLn6mgrEz2yml6Iqso0QVKyfN0uIYJrSLwqVn7+Dqz7sLhnNZUw1hdRyRkow32lr8LUvcdp+VFDbghDa2YTOKb8APQ1Bf1BcBUS0/LfWHDTNkd0ih5KxqCMgpM9ifsm6rVioq1b0NkWl+61yytzy0tFxu6DpY9UVz+GqTlTgq7ZsB36GWzNxwS/PBTC/rH84IXYgIbly1CCCeCUg2Xhorr5tvi9I54ILkRQDKAVk1N5a4C+G0G3h1TMV6I3ZECheoI+3PK++LqhIQ3D5Xw63ZzUibNRUmItoZzp1iqrO4guSVE58tf6ZmzKmxhVdL/spIHqgYPAbW6METa0UyvwSTfdbwNrHirXhG/A2WuaM4C3D4XLNFk4QemMaNKjH4jqNikT+madLPCs9alHj1QNgCGICi6wvFhV6fn5eLx1TLffv7+x49snbR2IZQRkQCejYgWT0lDkfcRlJz1uvguf3kDfMSno/sIyqpmNwAEADxoOWlFOdnEaD4ef5f1MVcA8r/j+uXdTvImgFQ6CiIo7imyaSzzyUb9Tg/b7lxHascjjBDOhETelOtLSgZdTRTqTnLybqcL7YVcjqqMEgpry7GuKIYcV3a/YmydtIkd5gP4MLSi4QlR0huvOVVUHMzRpMxoNlstRYyuLukJgIxylyYKQB8FoKlpfV4iNq4ozufOm/vLYzTXp67/upZFpNCgSoPrDITcFG4oIXVTFzion7LGiKfX4UJ5VyXg782e1KPav1rqi5KcSq6XyLxW1p4zqKYkiPE07WK4IvwSjljI0jMhSjqCBVOIkRDuIuvTRc2VHckHJTalWI1kBJahQCWEwslyanUJ4MGr7s+sVfj3djpVOd0BhSPnTcLLcK4ZLJLcYFM7PjDuaPeA1UBBVMdJOd9Q94amcEmkDHYNnoadsVSHwcJVj+478Eippfi6i6tQ3zOKe2i6jcxEDlvaaC6Eg03MRiTEJhrXIvb1lFkDHNTscBTmp0GkOlHosqbDG7RUZh5Y2dk1obWdDPYBq+4gq0RuQ4LvvxW+VQiolUAODIezgym4WCDpI+kIBNEyUF1I4JhiGzd11UzZJuCXAIwu9IqUOl8MWHYXUTG/bIH2mG3pLwKhtPAJWuqpGJKAstrwJLeFJtE5Zi7bGU1dc6jRQ3VLlAmCukm9oVRw66JDDxJBGUhmpBm53XZ1vhptBf1EhC6dCg0FiFklm4hjb5eIgNlOT2Io9o3xD2E4mGg1FoyFTZYKn25PxecTlNTgzDwPb83xI7C4nAomhyFVUSraexcN6ZRyn9esbQT+AbhWqm9Q13+nDMuEhn7ki0snsNKAJ7Y8G84PScIJs1QWAEy/UreXQfv5GoVMiZzFbRrb3yfoy29wxvUySfSglF0oXNRNeXJuBXDdfQUuhz6Cg8Nay6YaAMU0fUaNkLN2cmReFrglPvrOCDNAxiqzXxeyd57Y7hcqtYDrytCZaaKF3QzjHWc0pNHS+0jO7nnCunTTM3naHeT+7mhIEV3dK32dykAFsynQq84Ldc0edy1MMKbTYXFS06QGPGmaHDhsWsBtVT8ywfMAnhbu2P4NQZbgpbCfmUuML7xR6OKfrUh5kHB++Au4y2tm6i4M+4ZIq4zAG1bT0BVEsw0fv9LNmnbyvkMV62g/n1p4Zm4mrKqjpnc8rl63fj1G82SZpIHmR1MZqqLU7hDecNSR69YNotS5aEgPKq9+PRqtTNjsck6+0nSumV4Kph3J67ZrOq2QRvAV03VmECQfrf0RRpPIr13gAMeu+7V3RpBtVJo1Z4UR586HxuGkEusWzOLtd7YXxpINpFOY5RUTX4sC5yIqePu0brW3dhla/iAx429jkJBvzeqR4UgManc1D+KTzSbfDc3TSg7krfxSqO9yFjb5wIkgkCsbcEPW+v79HNkdoSWQkSc9TQ8xuCr0L01wxI963WYvUyqtSmRhNVP1Yg2x05tM5+gFKCxGLRub7WOGbKhKSXgrWA9QYA2YxZq4ZZJSi0MQK5iB1SXMJ3QTG5LRB/zP4gJKcWuzUbhM1MWY4k23gm6wD2JFauDx65fgY4zMhtXW/OQoYZ1JdDsJGb6LBjFzA0Nltq4HGE8gT/ylG1Vh1SROHtRu/sdrJ+HYnfnhncvNIE1dtpvYPgeicfruZnL7rOA6PihFy3zqeiYw6UCOMcgjWQAKsiuFRN0jjfcVUpNQtaBSzpndNb63LbWDBG8XUgDBeHjRemjz6g0Q7COXNpWIftGjKEchFQ7Ij2qTa3JRfKPeb66fMMM5+/CsqVxNB9PB+bJW0KeO0Ap9fVS5Pmc58iBz8tCvm9IQd9xE0VthVDgsSvDt1IjJabgNeFUQV6dtrbh8YVi1ju3AtredWT9P/zhY1k6NYpyFTyQznoCZizQTn69lyWC8o+6P4Z9/h+rN3g3y7fogQHetT8ZgQsr04zFcj2iPw2YuzyyKUBhE10f4NHR/hqjKahIbCfCiFlN3kv+Nlmm3mp3k2+9lO/vsKO9I0vCSI0TC/gtXerHv6jdIi5ScQ1395JMkicBbwtym+9YhTCxrdEMift5e7V9O4t5wzZwchpn9LX45VojFxvBG+QaF3w3BboWc5g8l9AzGgphDNU4t8fAOEorP9NQXGEL1DlUZpSZ5cnN5ev++Cq1XgTyS7Ku/ZL6svFuivLl1pV+oEyRMy2fy75N3R2yWCO1B51WTDY/xv8M5a9AezhEnzzKZCgZ3Mf8G4bRTDeJrcpurqJQnL89SDdJKtXLNy/xzjwfxnsmh3ZJHadFNLi/9ybVymySWLm2uq8KcYD3uD+DzfZdksy7LdOV59D/9vUPYP4H8AaVwb4OYbn+wAAAAASUVORK5CYII=;" vertex="1" parent="1">
          <mxGeometry x="106.87" y="57.660000000000004" width="34.72" height="34.72" as="geometry" />
        </mxCell>
        <mxCell id="ZHnCmB_-eCUDnraLg0bQ-16" value="2 Azure App Service&lt;br&gt;with Private Link" style="text;html=1;align=center;verticalAlign=middle;resizable=0;points=[];autosize=1;strokeColor=none;fillColor=none;fontSize=10;" vertex="1" parent="1">
          <mxGeometry x="79.44" y="112.38" width="110" height="40" as="geometry" />
        </mxCell>
        <mxCell id="ZHnCmB_-eCUDnraLg0bQ-17" value="" style="shape=image;verticalLabelPosition=bottom;labelBackgroundColor=default;verticalAlign=top;aspect=fixed;imageAspect=0;image=data:image/png,iVBORw0KGgoAAAANSUhEUgAAAOkAAADYCAMAAAA5zzTZAAAA8FBMVEX///8UkN9Q5v96enpeoO8Sf9mdnZ2tra13d3cAi94Zgts+5P8fhd0Aid0Adtchht1Rmu4ui+EAetlJl+nZ5/vL4PZRm+vI9v88keXJ9v/4+/7A9f8Aht3n8Pxeq+ZS6v9rsejf7vrv9/0umeGx8//s/P8ak+BLo+TR5vdzhZ1Vp+WTvfOFtfLb6/meyu+Rw+211/N/eHK30vd4rvFmpfCpyvXC2fiZwfN1uOo/zPVqpeROmOBt6f/C3vWp0fGUxe5seIBYg6Y+icGZqb91gI9mltNsjrl/oc+d2fU23PxeoON8secAbtVGk97i+v+U7//5SDp6AAAMEUlEQVR4nO2d+3+ayBrGMQ1nK1EUEl3LxjSSrfVUMVvjpTVN2r2cW9xs////5siAMwO84FyAWYnPD82nMcy8X565viBoWrlyfJVcZ/nyplc39eZls35zNR2pDqY4OdObZr1eC1SvN4dfXdUhFaPberMWVb1+W8Fm/DCs15Kq135RHVjeur0EOH1dflIdWr66jjdcytYPqoPLU1dQy8Wo71WHl58+ZYFuUa9UB5iXfknrozs1p6pDzEdutqO+Lgeqg8xFmZ00VCW6qrev7aL2+6A6zBzEYmklTHXTZ1JaFeipUyZLa/Vb1YFK6z0TaK12ozpQabFZuh2TDn0HN2DrplvSQ9+YPzCTPqoOVVKPrKT1Q18RMg69FRh8Xw7py2m9L2dEGrCs7xHpoc8yL2floH1gJD381eCUraMe/ND7knZtL2cnzphd6agOMw9d7ze1IslthixoswK91NeLyWxr2m32+Nu8Vh1gfsrsqhXppKE+pbvarMz1p0DT1CvFh784imkEXv1v1qpwmSKuaS15R8dX1UEVI2d6Q/tav/lawTtXQv3w7dffhghz+Nuv3/6hOpwC9cPrVx8/vvK1/fG64qRER9JK6EhaPR1Jq6cjafV0JK2ejqTV05G0ejqSVk9H0urpSFo9HUmrpyNp9XQkrZ6OpNXTkbR6OpJWT0fS6ulIWj0dNKnz+JX9futDJh016/VL5nscD5jUa3Ldznm4pF54dxzrk1MOltTDtwEyokqRug/K7tb3qPsd2RqwDOl1s6nqpmcvchMrUxQSpB/qym5k92J3JrN8b0CcNPwmVV3BF/3ioLXa5f6HrwmT4q+Mle/qIHmvef1671GipFeko5SNmnS0SNIrekQoFxVwdNt69395QIz0Knr/fpmoIGiT4cGBQqSJxweUhyoMKkZ6k+wnJaHCoNcshwqRDpO1lYMKgjKMRr6ESKGnFZaBKuGoIKkDVFgC6gCs9prxaLGx11WB2pdouprwfKoAtS/lqPgaqXRUSUcl1r0lo8o6KrOXgesu6NG/YGV83/GW2J+W6CpYFeeX2WVyDoOyUGFQznSHVB6ppAach6OyucFSUHNxVDoLCi9Ec0XNCVQ631u4q3mByme2B8WiwgN8NqjT9y6S+v2fvv749urjx9diOfxCGzAvqNNZTOZtWKeh7v/17z8+Cl2tKNBVF9gJZxR9MaGAsvUfocfRwa7mkN3nc3R2ykiJ1J70BSIqCJXL0SUXJ2IdC/gKJwMkUXkcde94OX3U9uJvgcrj6FKAE7He8T+TJHdUHtCVIKgvTzUqD+hEAvS0fcEdG3S5RBgVBoW3SVKgYqjQU7TEUHkcHSdAU1YO8RUE/nP+6SY3V13oGVUpjs7accrJYgksBkN1ZuPTBCz/sAS6ypXsQXJAUNjRi0jU3faKYYTpr2Ksd7wR5uQqDAo76kQNXTGuBZxFBLU944vQF4jK5ypP043ML905R4frz2nWtsBqSRqVx1GtT4XbnvBFSo9kXc5jkSRRnRueq1uTLgEd80ZKt4c2/wJCcljicpS2tCswqlCuCpmqjcRd5XM00gBFHqo3p5qEyB5OG4m6yueo5hBQgYXOVi5VgMC2RhNG5XSU2sHwd9JAZLLpzsVKAFH35aJ5QakFr8gsgdTG7Ves+Qq5yg26DTOUqKVbU7u4DIHVAxK3qzBo1k2J/R6OUqiXojLOcRlCo6+vEfTQ3PQbh/gd1ZY4yi5HXCQZjEbrOS7jlKOQqLhc5Xd02/LOOe1wl+M7sqXrLf3frUgX8Mmdu4XA0/FhVNBVEVBtvCM9Z5kh3Nm8TcYfX+j8kIbRQ0OSfybG3J2BGdUVAdUmuyADdzLljZM7cDSvXODO3kN8c3/Gac/3lyiE+g4G3bfquTuPxJghdxJ1M5xC/Y/IsNZDzfYunHNOOVmZUAVBt6Sh9pEuIc4tDToJPVzKkiL1E6R8EywDakof3b+OJaTZg0haRi3w1IqWckc+bvPZun+yeS8Iqt31Im6kKLrlTvRTD5NaiHROm77iQ93jKvSqMSZQbdzbKWPsHYANF3mGFlZLa1eI1Y+T8m7uO9muAm/uZAPVFjjIderfeOm54KBxrgipv3Z2oieGFzXLVSf5ISMoZUcv7YB+MrnbxUuHYI2Ey+hBB3CuqLNQk+9UYwXV+o1djI2UjurEMdun49kuGYzyKS4uw0INoxNbXfDuW+EGjN4x4CY+Gv7EWqxlRaJM6i6eDE5MR6QHWAGS04nNvW2+1SHoavBKrfh1ieHJGSvqxtrJAOe+aHofTAYHh/f8IvBZ6MemJb68DeRqHbXf2J3uw5O3zKgPDYwKmerQAcPJ4AUpoUf92qNnJt7NL/g2R/+DaPP1QU9YUR2LmAq0sXF3X7guAW1E507aVt7d70PS1eY7/wP6TU0BKDPqhkRqJdpYH+/HtjsyeA3wRI7XY9+kHVNH8yZY/5twtRlER150swNlRe3rxJP7+IcTChSeFscGPrz1lDicoPb40t5v3n6OL/uG4Uc7VALKirqmml8sVrdHQOG834qcJ8tOttDT9p4TlQZ6dvL2c+zbcHidFKDSoIyofb3ly/L/MZ4jY+uC8gQcmTfUsQ1gRPPIqUpdmcCgJycxV6m3jj5uUYf/o0EZUTdGC6vRoIelOU4mgCmJ/j11ZMuGzsWYpCPYdzUI9CTq6iX9SrjHyzgoI6rVaLQaiHNLaq9xxH287zw/TzrirOzdQf4PHVwIka3rOfOYFIJGXI29V+sxAcqGOgpCDmXYT6GvM7LDToy73tjQI0c9w2WPexknKxuUcjXxAjHqj7hQF3aDlmGb6PXKExxlsBvre0id5WLdsPXoIY2UKwAXZO/KNqVGGEJXgTeliaKuo6gNG7l6irfpQTJYt0PpuhH9e8NOnUR6u0IspgR/jAC52oReCfejIOqTbdAKRheyR0Gro070b2iZ6Uv4CS6EJfuQsGqLmvLuO3FXI5H7v6J2Y8iOjZ4GamfsVWZ4p8MwowLRv/2c9pI/UdSNSYfu/+aC7F0RyXMKqQ4sGYg6uJTEEoot9p/5/pwBdWZjEt2IkaJe2NL9T5Kcz5mXI3EpVmKtKQkqjjromSGI3vD/34mRApiGrpt7XjjoYdLzvEHFUbWZYepIQevFi/dgh23oCdnmet/1ZQ+XsudqngCoBKo2bZjbOUQ3ozHu+mmC82n/DqWDNxDZrVcIVHyy8SNb26b9p7+ecfE+pRGMvTZNaZvGiuVaxGxH2krPs4qDSqFuYVfPaE+NSVsb/7/LP82d9N56wfgAq01rd7qyMizCoDINmOiZ7D3R/zuBRp7LsQMjyZuMNZIEaC6oE9zFdJEb5ZA83DD09FlXCjQP1Jnh77H9bbYhfGPL2LB2W9/UhiAJKtlXffVtsikTfHutg/fq8cwNkTRoDqg9vAM1+C4OYq0wqZ7WTcEo+UBTCvlRJM4GmDvZqz7Z49sprSIHR31JuupS29aUnEK2nskONmU2zQlU2tW10WqFrugb/trD1KFfRMp+JzdQWVc9ylSbG3VDjjbg8SiXPppZGDPqWhdHpVI2hglOyLmCSjZguqc2dDi9DWtgUScJbvrSc0OuBUbShoa9YpxX3Y1NJdUMcDrOHVTS1fvI/tvWNwwre29jR4+C8kwFgMoV6mwjDY1B/+qmtZl1UvWwXGxaiJMcZEPLjkJA5Vz1EslPnPeFFU/C2NBUWhCoXMEZeV4W2dAEUxioJKqZmun9+4FKNmCUFgyToNQPPf1H+Ge6Cc0vhYJKDkv3ZjIxyCIb2sEUDCo7r4qgmvfQUqNwUMkq3CdeVrMFXgYvAVS2ktG9ae/nC2WbrSlYSimg0tUMNi3TZqC1TXudcvmtJNAcKvIWa8vMlv68WaYtj0sDzakqd5S6Ghx5WRdqSgQtuTK1dcum0XKuuciTrMpVBfWqcVXJCVZRqaKWVL6rP6kaCMGK3xRXn8IRH6r6pLDalDmaUvnZXwXVpXIOB6s/e1dWTaWCAq5+KaYedUuV1BCKsdRR7aivqKvltd3SQaOoBYFC40G5TTceRlGgydarBJS4WhhowlRFoEEcZ0WCxoYDZaCa9tf3798F78FhFYWqELQUYdSqg2LU6oNq2s9nLwRU0958OflS1A6ievo/vyWdD0nvrQgAAAAASUVORK5CYII=;" vertex="1" parent="1">
          <mxGeometry x="158.3" y="72.38999999999999" width="28.05" height="26" as="geometry" />
        </mxCell>
        <mxCell id="ZHnCmB_-eCUDnraLg0bQ-21" value="" style="shape=image;verticalLabelPosition=bottom;labelBackgroundColor=default;verticalAlign=top;aspect=fixed;imageAspect=0;image=data:image/png,iVBORw0KGgoAAAANSUhEUgAAAOEAAADhCAMAAAAJbSJIAAAAhFBMVEX///8AeNcAddYAc9YAbtUAcdUAbdQAdtcAa9QAetjy+P3S4/b4/P7H3PTg7Pm00PDY5/fl8PpeneGDseeIteiewuw4i9z0+f240/HB1/JWmeCZv+tspePk7/pHkd6Yv+sohNp3q+UYf9mPueljoOKpye4xiNvP3vSkx+14reVvqORcmN97OEPyAAAUiklEQVR4nO1dCZOqOrDWkATFBfdxG1TQGcf7///fE9zoTgey4Mx5r95X51bdchRokvS+tFr/j0YQDXuD+DzfZdksy7LdOV59D6O/fqhGEI3i3WWdSik5F0IExb/8P86vn3WTbRb3/tdSGq2ydRpc6WKsrQNjV1pFN5kth3/9uJYYno+p5EJPGiI0ELI9mY/++rENES0PqTlxJTIFZ5Pz518/fh3GpzXngTV1Lyrlftb7ayL0GM8X0mHxIELBu7N/c7/GCRehJ3l3BDLNxn9ND8Lo4L96ZYSik8R/TVQJcSLdz54OjHezf0NURrs2b3L5Sgjk5e/lZDQV4j3k3Wjkk7/lOtGMv5O+HKyz/jsa+9lb1+9Jo5z8kR4wDw3pK7TPXNPuBGH+/7JTKOJBwAylC5OXP+A5g9SAvvCqion0akGcV6PhuP/8cWFMbWbHr3ZOqQGdgZj/Mn3jtax7ritxnf3hVG0c9aPe+fAleVDLjfn++7eIy7HrVD/RVb/sTs7mHKK3WbfrVIaws+3XX6kZfNdsUMHXJ3s51tslNSZJ0F6+gRoCP53qDRquXN/1RzwJKrUHOfmFZRzt6zhMMPO4fD9eVynwQXvQGCUa7Go5zPVN+/G98SaV+oWUh4YoofGx5rX05U/he16+J3ozWuzfKP97FU4lAO5tp39Otfog429jOGepe60K5cLfJviYBbp1fNdO3WoIFGLT2qPTGXYbULM+ZjqzUyRv4Kn9Bb1rGM9ZZw9Tz/ZNPEN00QgP1m3ccByn5K1Cub45VC74bQeLRu47TGjmHfKGxUaPllHiqSz2lf0UTJq59UqjQclTM9e/34U8goyXBN9S+Yq4NHT3GS0e5aah619xIgnkCfD4TZTH4D7KTRnDL3IZZVPXb807dQuY40N9Cnlu6hEyTp0SOW3m6nNqBcVeYWbEVvZWbp4YkaeR/zRxbZJAcoMciFVszmw9Ugojb0D2U2eQCZpVp+pWakC5eT4JZbX5n/WYOINioVFYhuprDllzPqRRl+Cpcud3UUpM8K3268SCs9RZuYnGw1GB4fj2mvoJocVJr/iGooy1a6y/rfoIzFK5iUbL+c9kkQadIvqfQxYx/+PPfJUQG1V6aDdj9XlDzRF8YK9uJHPlZricrVOh8aSGLBAi7KoUtrnzWe+rumjIaq42Jpi6CcOLBtmaSVHvVSTgbsiou551awOXA4I18az6N71sIVxC/8/H2rsReFGWg6UGL2tHyK2Ks9tfHpl38DjQM78KqJLe0OY7EhtVw/AKz1oTwUcX59fIlcBW64sSWwSDGmxZY7FVae0Z6reVjdM1FWwfXYqno0eINs2Gjq01i7XKZcwtWkK3Qfpb79h06JEldgSe1WcMLEwVShUK208+vFxUuHxdUcewIYbEE1pF8CiDhN3F1jwljT1LqKJf2kTDsXOwoNBK/5sSG5WlH9fd0X5XZDxMzR9vRlqbKxsKWxNCSWZfcbc5+pRVFMb28IjyWlh76hfqUes2RV9YQPm4Y/qIhCHrQKGq1VJasxVdecaDFO003S+SxWKhaPmm+zSjXzS3TWuJKLHoCHYljS+2WTz4jF5i+RtvNmFk8Y/JPeoSTyKMLweEAZfpZD6gdP455mcdE0Mq0Ygqh4jZyCjaWE0dX8xWeoMGKyYmcp92b+cUOpjS37qLmaBIGP6uVhX7+EcG/kstO7CUFjdo31c9eSKZG2TRDpQb1P1ig9jMa8vaSfwHYpezeOUr69hQkz6gG4iaaMYH3tfH55oKl1hPtLZXQAVPTh/mt8CyTVS/mimWFKPnB8JKs70htjZvmUw3dineeJ9WazZjxPz4cvD8hNkHyya2p1Dwoz0/w94WXvWG0Ka+8t7T8+fsP8s7f5pkL5YQCjFzydDvo21a5bQZo3cuh63Zi2YL1T1HXJMchsDk3jWoG6Od19G/J7SE4tBqbV8HSVrd9mC1Q5lMPDzXX/BdBtrzhE8hu0rb/0oUWiimkSZzQ0efXy43Dj5oTyIyCwujvhQoEObhzlHbgof60tdSIuxC53BBr72bf1baAOY5h7FBet/9Hk3Qp1oLgtb1zpBCXugwJX+GsTcrMz+C3W7SSKkainlpfErQOXO3JtPyZ2Z3s+MxzaRvIRZCm8LIDrgraWUKzVjN2koKNpIA1wI8PwdpJhzhd9jt0/LCmvgTyTDtA5TdwpohEZ1EtiYeDX4luGuhi7D6ZwhRWmlLdAkaDSJ2JkAL1FHf2wmJivs3gMVfK/PHVC4BpJEisYlVRP4EYr9B5wV76HbA+qkz8z8JDx+mkCKx3cQqLiCj3CsPB/nMk6mAE1wTuhia1DFRJIbtBlK3kXaqsEXoQgyf+RNQz6lUvkcmBUzXFSO+FbIGSETKKV4NaCm/PBbweFbJi56RY43xOXVYazMgDICUzi78Kwo2BU85vALPXbFNe0ZikC+uRy7aU1ks3robiloiD/YG3LNkzqOfhYaXpxHKuwxKiNchvNU3yGuQ1wX+scQzUdaojpt+mjCZoP0kYkK8EG8SoWINuSky7stbGGqrmlD32ITJ8LLC8EPlpHgmp0eIm5a5VwyoD8o5TFjho6RzpKY1qOhAR+aOyixycTqXAGU6cH9ClQdsxTnSdQiHK5EdpoC18R6MCROk45dTDBk/2G/wPqL8KywEEBPOUaVsPy5JpKQOiEwov1RKZEOx11+gTseO4Gfo8W+G8Xh1nm6Px8t0E39u6+UEXag0JHwdHa8qCsg0StEyuBNRgAL55cOv1urSzUuw2RV5x6f6Laor/qAEo1fOL9TMSicKHUOoB89xrCa0zGUKhT6dnRCMPlUU33Azvg4icFVcFwnAN8xZbf9t1at7lBj04bt/8gwoDRXNzC/BQHxVx5FmqtTg7uVEUF7Ix7tdwd2LOfbUJxwvav0C2Cef/8i5KGxDkwKVcon5OpXObgqTak+i9rb+vWgAD+LTw4u4pfIzcEztCDSKOUZqAbxYuHkZobfp6eEFBw1JwxxkEpgRgabCTS0RD/YWYeASoJ17ZzURVEpVtexTk2FTS6C5Jq3yG5Y6OW+gGn33p0G9jNJ+dSk2lQgDG2vopKwiYy42MZTed60G6qtUZGrlsE3DwM4v0VNKLUqawjDOtpP1ZHquSa+5KrvgTd3NC3jMqGzugT2F9n7eSC0UvaX/DLZh0UEz1xE5T+JKIscUMwVbF2s0Ofr2m9TJy6sa/vLcOu9hxjQTrEqtg0lSd7YJThkjwvxEuVYNQjdOqIblRJswsYKq1B5gXoQ3cQGEBZE1o1Ze1KIy4aMCK8PQakWfGijcb+ICMGri9ThwUrM8TwLD2sDHDYG2PgnqmJ38I6h3q840p/xC5txmiHI0UjfQHfQ5oLDQvaF1pGYCq3X2BvBoPjY10y90tanQqVaQA5VVRe+OnMxDNfRjjtisHCOgtXNITiHyoTjv4F+c3ZRSq/IOBLKimbgF6XscqRoaVGkE/oWTxuaWyfhE3+gw0ukIkK0UjBMajfhXRC8II1CagwWULFAKnHI9RpDCnB/syhdTzs/A1UtTk8haBxOblD7sgFEFuecOeOBCXFq+cXVh+DXDMnuxZO0BXEOFQiXvaet2DB2Tpi1vKyjfKmQrOTuYlVdJodCR0Xh23mvVX5982hxA1BRPMa2k0NlHQ6nwxjB2fhFSH6jZhWsUrGGIKXQl0D5pugxTISyJBAfwhWINqzmNO4WWdbkApi5aKiQNHTWZQiEWY+671IdC0yoNKqlX5TRZpTyk6mXNKHR16uYw5W9UHQ901OQUQu8UDoBS7VLMKPThNMYUEmsIzd1cp6nWS49/Ii1Mdynh+oxUvTSutC2c/d1eEt9UzyAsGJj7VCzyoNI+XDp79H20Nk2hrgKhOryQ9fStfCSRqvfpqnk7+zFyLM3uSqneK9Vlgfw0OCLtKC68hIVSnqRBQMTuoLJQ+GlgQErhvz9uxoVnl/gvIxZOCfyMYCvVoSfHUt6K6ioT4FJWGopT6YoL9JAXnwGhri483X+gBn6bFPN8HcKuykuBKL0rocBdqD6a2etE8G7XbBZJCNXSbcA37nELeNIU907fJbRmWauoguqKRgFn36Bw7y2vBHIf1b+ysyeR9BHZQWmXoLsVbAs9UlUaLPIJ/4p1Qo1iZbqA6I1CIkjLIhy5vG/MdkyFTctQWwTXgDXRUfzDIKezQFhOiICW5T0GBiuFAyLn6mgrEz2yml6Iqso0QVKyfN0uIYJrSLwqVn7+Dqz7sLhnNZUw1hdRyRkow32lr8LUvcdp+VFDbghDa2YTOKb8APQ1Bf1BcBUS0/LfWHDTNkd0ih5KxqCMgpM9ifsm6rVioq1b0NkWl+61yytzy0tFxu6DpY9UVz+GqTlTgq7ZsB36GWzNxwS/PBTC/rH84IXYgIbly1CCCeCUg2Xhorr5tvi9I54ILkRQDKAVk1N5a4C+G0G3h1TMV6I3ZECheoI+3PK++LqhIQ3D5Xw63ZzUibNRUmItoZzp1iqrO4guSVE58tf6ZmzKmxhVdL/spIHqgYPAbW6METa0UyvwSTfdbwNrHirXhG/A2WuaM4C3D4XLNFk4QemMaNKjH4jqNikT+madLPCs9alHj1QNgCGICi6wvFhV6fn5eLx1TLffv7+x49snbR2IZQRkQCejYgWT0lDkfcRlJz1uvguf3kDfMSno/sIyqpmNwAEADxoOWlFOdnEaD4ef5f1MVcA8r/j+uXdTvImgFQ6CiIo7imyaSzzyUb9Tg/b7lxHascjjBDOhETelOtLSgZdTRTqTnLybqcL7YVcjqqMEgpry7GuKIYcV3a/YmydtIkd5gP4MLSi4QlR0huvOVVUHMzRpMxoNlstRYyuLukJgIxylyYKQB8FoKlpfV4iNq4ozufOm/vLYzTXp67/upZFpNCgSoPrDITcFG4oIXVTFzion7LGiKfX4UJ5VyXg782e1KPav1rqi5KcSq6XyLxW1p4zqKYkiPE07WK4IvwSjljI0jMhSjqCBVOIkRDuIuvTRc2VHckHJTalWI1kBJahQCWEwslyanUJ4MGr7s+sVfj3djpVOd0BhSPnTcLLcK4ZLJLcYFM7PjDuaPeA1UBBVMdJOd9Q94amcEmkDHYNnoadsVSHwcJVj+478Eippfi6i6tQ3zOKe2i6jcxEDlvaaC6Eg03MRiTEJhrXIvb1lFkDHNTscBTmp0GkOlHosqbDG7RUZh5Y2dk1obWdDPYBq+4gq0RuQ4LvvxW+VQiolUAODIezgym4WCDpI+kIBNEyUF1I4JhiGzd11UzZJuCXAIwu9IqUOl8MWHYXUTG/bIH2mG3pLwKhtPAJWuqpGJKAstrwJLeFJtE5Zi7bGU1dc6jRQ3VLlAmCukm9oVRw66JDDxJBGUhmpBm53XZ1vhptBf1EhC6dCg0FiFklm4hjb5eIgNlOT2Io9o3xD2E4mGg1FoyFTZYKn25PxecTlNTgzDwPb83xI7C4nAomhyFVUSraexcN6ZRyn9esbQT+AbhWqm9Q13+nDMuEhn7ki0snsNKAJ7Y8G84PScIJs1QWAEy/UreXQfv5GoVMiZzFbRrb3yfoy29wxvUySfSglF0oXNRNeXJuBXDdfQUuhz6Cg8Nay6YaAMU0fUaNkLN2cmReFrglPvrOCDNAxiqzXxeyd57Y7hcqtYDrytCZaaKF3QzjHWc0pNHS+0jO7nnCunTTM3naHeT+7mhIEV3dK32dykAFsynQq84Ldc0edy1MMKbTYXFS06QGPGmaHDhsWsBtVT8ywfMAnhbu2P4NQZbgpbCfmUuML7xR6OKfrUh5kHB++Au4y2tm6i4M+4ZIq4zAG1bT0BVEsw0fv9LNmnbyvkMV62g/n1p4Zm4mrKqjpnc8rl63fj1G82SZpIHmR1MZqqLU7hDecNSR69YNotS5aEgPKq9+PRqtTNjsck6+0nSumV4Kph3J67ZrOq2QRvAV03VmECQfrf0RRpPIr13gAMeu+7V3RpBtVJo1Z4UR586HxuGkEusWzOLtd7YXxpINpFOY5RUTX4sC5yIqePu0brW3dhla/iAx429jkJBvzeqR4UgManc1D+KTzSbfDc3TSg7krfxSqO9yFjb5wIkgkCsbcEPW+v79HNkdoSWQkSc9TQ8xuCr0L01wxI963WYvUyqtSmRhNVP1Yg2x05tM5+gFKCxGLRub7WOGbKhKSXgrWA9QYA2YxZq4ZZJSi0MQK5iB1SXMJ3QTG5LRB/zP4gJKcWuzUbhM1MWY4k23gm6wD2JFauDx65fgY4zMhtXW/OQoYZ1JdDsJGb6LBjFzA0Nltq4HGE8gT/ylG1Vh1SROHtRu/sdrJ+HYnfnhncvNIE1dtpvYPgeicfruZnL7rOA6PihFy3zqeiYw6UCOMcgjWQAKsiuFRN0jjfcVUpNQtaBSzpndNb63LbWDBG8XUgDBeHjRemjz6g0Q7COXNpWIftGjKEchFQ7Ij2qTa3JRfKPeb66fMMM5+/CsqVxNB9PB+bJW0KeO0Ap9fVS5Pmc58iBz8tCvm9IQd9xE0VthVDgsSvDt1IjJabgNeFUQV6dtrbh8YVi1ju3AtredWT9P/zhY1k6NYpyFTyQznoCZizQTn69lyWC8o+6P4Z9/h+rN3g3y7fogQHetT8ZgQsr04zFcj2iPw2YuzyyKUBhE10f4NHR/hqjKahIbCfCiFlN3kv+Nlmm3mp3k2+9lO/vsKO9I0vCSI0TC/gtXerHv6jdIi5ScQ1395JMkicBbwtym+9YhTCxrdEMift5e7V9O4t5wzZwchpn9LX45VojFxvBG+QaF3w3BboWc5g8l9AzGgphDNU4t8fAOEorP9NQXGEL1DlUZpSZ5cnN5ev++Cq1XgTyS7Ku/ZL6svFuivLl1pV+oEyRMy2fy75N3R2yWCO1B51WTDY/xv8M5a9AezhEnzzKZCgZ3Mf8G4bRTDeJrcpurqJQnL89SDdJKtXLNy/xzjwfxnsmh3ZJHadFNLi/9ybVymySWLm2uq8KcYD3uD+DzfZdksy7LdOV59D/9vUPYP4H8AaVwb4OYbn+wAAAAASUVORK5CYII=;" vertex="1" parent="1">
          <mxGeometry x="116.87" y="67.66" width="26.72" height="26.72" as="geometry" />
        </mxCell>
        <mxCell id="ZHnCmB_-eCUDnraLg0bQ-22" value="" style="shape=image;verticalLabelPosition=bottom;labelBackgroundColor=default;verticalAlign=top;aspect=fixed;imageAspect=0;image=https://res.cloudinary.com/practicaldev/image/fetch/s--WwnyWo31--/c_imagga_scale,f_auto,fl_progressive,h_420,q_auto,w_1000/https://dev-to-uploads.s3.amazonaws.com/uploads/articles/3768q3vwjhb637dmjzwa.PNG;clipPath=inset(3.97% 29.67% 0% 27%);" vertex="1" parent="1">
          <mxGeometry x="-23.130000000000003" y="62.38" width="40.04" height="37.26" as="geometry" />
        </mxCell>
        <mxCell id="ZHnCmB_-eCUDnraLg0bQ-23" value="" style="shape=image;verticalLabelPosition=bottom;labelBackgroundColor=default;verticalAlign=top;aspect=fixed;imageAspect=0;image=https://res.cloudinary.com/practicaldev/image/fetch/s--WwnyWo31--/c_imagga_scale,f_auto,fl_progressive,h_420,q_auto,w_1000/https://dev-to-uploads.s3.amazonaws.com/uploads/articles/3768q3vwjhb637dmjzwa.PNG;clipPath=inset(3.97% 29.67% 0% 27%);" vertex="1" parent="1">
          <mxGeometry x="-13.130000000000003" y="72.38" width="40.04" height="37.26" as="geometry" />
        </mxCell>
        <mxCell id="ZHnCmB_-eCUDnraLg0bQ-24" value="S2S IPSEC" style="text;html=1;align=center;verticalAlign=middle;resizable=0;points=[];autosize=1;strokeColor=none;fillColor=none;fontSize=10;" vertex="1" parent="1">
          <mxGeometry x="760" y="244.5" width="80" height="30" as="geometry" />
        </mxCell>
        <mxCell id="ZHnCmB_-eCUDnraLg0bQ-26" value="" style="rounded=0;whiteSpace=wrap;html=1;dashed=1;dashPattern=12 12;" vertex="1" parent="1">
          <mxGeometry x="-151" y="440" width="620" height="400" as="geometry" />
        </mxCell>
        <mxCell id="ZHnCmB_-eCUDnraLg0bQ-27" value="" style="rounded=0;whiteSpace=wrap;html=1;dashed=1;dashPattern=12 12;" vertex="1" parent="1">
          <mxGeometry x="-121" y="471" width="390" height="139" as="geometry" />
        </mxCell>
        <mxCell id="ZHnCmB_-eCUDnraLg0bQ-28" value="" style="rounded=0;whiteSpace=wrap;html=1;dashed=1;dashPattern=12 12;fontSize=10;" vertex="1" parent="1">
          <mxGeometry x="-131" y="660" width="450" height="160" as="geometry" />
        </mxCell>
        <mxCell id="ZHnCmB_-eCUDnraLg0bQ-29" value="" style="shape=image;verticalLabelPosition=bottom;labelBackgroundColor=default;verticalAlign=top;aspect=fixed;imageAspect=0;image=data:image/png,iVBORw0KGgoAAAANSUhEUgAAAO4AAADUCAMAAACs0e/bAAAAe1BMVEUAeNf///8Ac9aGs+cAdtcAb9VjoeIAbdQActXk8fuYv+syiNsAa9R2q+Wev+q30/FcneFKlN/b5vfJ2vOqy+7y+P2+2PMYgtrg7Pl/r+bM3/U6i9zs9PttpOO61fGyz/CPuemlxewUftnO5ffi6/hFkd5Rl9+UvOpzqORO1YPvAAAGdUlEQVR4nO2daXeiShCGARvpqDHGfUuMJjH+/184I0tkabqQdFeB1PNlzpxTF3iumfBavTlup3CiP7bjXos4Tv+kuzwF0msPUga7dX3dwUg4LUMEs7q6yxH1w9fB39fUPbXus73iTerpvgfUT16PoM7H67gbj/rB6+G/19Ltt1RXjlmXdVm3jbAu67Iu9YPXg3VZl3WpH7werMu6rEv94PVgXdZlXeoHrwfrsi7rUj94PViXdVmX+sHrwbqsy7rUD14P1mVdQFcGEDIq9MBC/84rCrAwMK0r5/snPftj+HTeG1T49BkWygF4xXlYKCbgFdeeYd0K01kO4afmPYOFez/6HwgWLqMrvoGFC+O6L+B/8VJV98m8rmTdu2BdANZVw7pqWFcN694J6wKwrhrWVcO6alj3TlgXgHXVsK4aQl24eVNZN27eHMBCuuaNdxlAvIX14nsMFX5EhX3wipeocAdfURjWdTwJEZcLgsL0zzK31VmXdbusa3BEJx4jEjBO1UrTunL8NdXzNY5GdPpQ4XQWFZ5fIXaRxgquNK1rIWbAz7CtGjPc5o8R+fAzPFJmZt08rKuGde+EdQFYVw3rqqmsm40ZR7i+QAN0t5MwRIphbwORDs3iNVv/vGiH7inpZsD7kDlpcvVBrxW6R98xg//UAt2Fsc3BqvzjJ9fdSOWz1yGA99uj1l0b3AtNfDde92yydQRvL0isuzW60Z0YNlx3ZXYXwwAaobHevNHqGnsJJZzu0/U+tjM923joZwIVzg7R9G3d3Y33fP3BXbqO50MkGQgsjN8wq3IsbMgp9VGyvW11NVIfJR9NF4iSD6erj5IPp+uMdFGyoFt5nOavQz+2dMXrHbqrIcQqKjyBhUP9FW3paqOk/TGikpk3c3PfhHLooiTZRCOLe2BroiSVbs/ah3ulaboLq1t++6U9WSLdN7tvP68sStLomuxhqCiNkjS6RnsYKsqOESDRNdvDUOH1G6Q7tH8SQ0lXkkL3gHASQ0mUpNBFOWZDHSUJdI03qJSooyS+7gLpC6cySuLr2o2PKVRdSXTdPdqJMaquJLouYvNEFKMktu4U8TggRZTE1v3GPOupeGQRsu4M9aynYpRE1kWIj2kKUTKvuwQt3iPdDVioWDZ1QEkYNwpRMqcrvicQ8b++IVh4FoUrnnBt/3+8W61uhdk+yY9j1cL0FZFli1Hy8UYRsuSi5KPr5qLkw+tmo+TD62a7knldfwQRv0s8sDBOFDL+K9XRmZkoiTdGtKPyTUdJtFQ1R04YN9JREk2XxDQiuB3GjKX7gdXDUJCKkki6e7If5Su3riSSLu3bTqxwdT+JjzT2kyiJo0v2EkpIoiSKLsYoiZ4kSqLokhhmiedKYuj+EL6EEuIoiaC7IH0JJUQD3PZ1X54b8ZUrmitpXddrhm3clbSu61C/gxLCKGlftzFcu5Id0r12JTuk6wTzTun6ndK9fi+yPkbUHBS/qsQEXBAeLx3fgYWXpryCIlQvoupjRPcuHSdHFTMeF+/idknXX3RJV364XdKNlyd0RNefd0n3t/PquE35PmqTYPmrSzdWhcZthwnHbUYrySq36VX/f2P1Ht03taT3+gt614DGqE3kPqPr9kdes+K8UdKzFaLX7/ayglcf/w2H7AXguXldDOyvlVLjp+eg4um6E5LP9za2i6xre52jmiDTn0HUJclvuT2sMHUpAs1omnkETF33B903Pz0fVddFn76dX8eLq4s9a6GwtAZXF3vphcjfH1kXN2v4R2Jd+6vuU4jiokds3TXiL+egOFsZWxcxa6h2yUTXxcsawWcDdN0Bkq83UdwcXxdrDl2g2nSOQBcna0jlADSBLk7WUCzNdml0MbJGyXagFLruK8LHq74zia79vkbZlBoSXfdiOWuIXcmNaXQXlhv5+VXKv9DoWp7RrUwYIUS6NvdNdJxR6ba2VLo2s4Y6YYRQ6drMGqX7CBLq2tswxP8pvyuZrnu29fHqtpOn012P7NhqDwug07WUNfRHQRDq2skapQkjhFDXyhJm76y9JaWujb4GcEgPqa75KV3RNN5ySHVNn+CSTOMth1bXdF8jnsZbDq2u8b4GdD9iXbN9Db9k2/obxLpGs0Z2ko0Sal2Ti43go8TIdQ1mDe3pHjHkuuayRjCtcDP7PgCmskaVQx4boOuuJLzgDEaOqp3QSs520zPABnwJXWmALib/AI6Y6uEqoy6JAAAAAElFTkSuQmCC;fontSize=10;" vertex="1" parent="1">
          <mxGeometry x="42.51999999999998" y="725" width="54.91" height="48.91" as="geometry" />
        </mxCell>
        <mxCell id="ZHnCmB_-eCUDnraLg0bQ-30" value="Azure Postgresql" style="text;html=1;align=center;verticalAlign=middle;resizable=0;points=[];autosize=1;strokeColor=none;fillColor=none;fontSize=10;" vertex="1" parent="1">
          <mxGeometry x="-104.91999999999996" y="775" width="100" height="30" as="geometry" />
        </mxCell>
        <mxCell id="ZHnCmB_-eCUDnraLg0bQ-31" value="Storage Accounts" style="text;html=1;align=center;verticalAlign=middle;resizable=0;points=[];autosize=1;strokeColor=none;fillColor=none;fontSize=10;" vertex="1" parent="1">
          <mxGeometry x="19.970000000000056" y="775.76" width="100" height="30" as="geometry" />
        </mxCell>
        <mxCell id="ZHnCmB_-eCUDnraLg0bQ-32" value="" style="shape=image;verticalLabelPosition=bottom;labelBackgroundColor=default;verticalAlign=top;aspect=fixed;imageAspect=0;image=data:image/png,iVBORw0KGgoAAAANSUhEUgAAAOkAAADYCAMAAAA5zzTZAAAA8FBMVEX///8UkN9Q5v96enpeoO8Sf9mdnZ2tra13d3cAi94Zgts+5P8fhd0Aid0Adtchht1Rmu4ui+EAetlJl+nZ5/vL4PZRm+vI9v88keXJ9v/4+/7A9f8Aht3n8Pxeq+ZS6v9rsejf7vrv9/0umeGx8//s/P8ak+BLo+TR5vdzhZ1Vp+WTvfOFtfLb6/meyu+Rw+211/N/eHK30vd4rvFmpfCpyvXC2fiZwfN1uOo/zPVqpeROmOBt6f/C3vWp0fGUxe5seIBYg6Y+icGZqb91gI9mltNsjrl/oc+d2fU23PxeoON8secAbtVGk97i+v+U7//5SDp6AAAMEUlEQVR4nO2d+3+ayBrGMQ1nK1EUEl3LxjSSrfVUMVvjpTVN2r2cW9xs////5siAMwO84FyAWYnPD82nMcy8X565viBoWrlyfJVcZ/nyplc39eZls35zNR2pDqY4OdObZr1eC1SvN4dfXdUhFaPberMWVb1+W8Fm/DCs15Kq135RHVjeur0EOH1dflIdWr66jjdcytYPqoPLU1dQy8Wo71WHl58+ZYFuUa9UB5iXfknrozs1p6pDzEdutqO+Lgeqg8xFmZ00VCW6qrev7aL2+6A6zBzEYmklTHXTZ1JaFeipUyZLa/Vb1YFK6z0TaK12ozpQabFZuh2TDn0HN2DrplvSQ9+YPzCTPqoOVVKPrKT1Q18RMg69FRh8Xw7py2m9L2dEGrCs7xHpoc8yL2floH1gJD381eCUraMe/ND7knZtL2cnzphd6agOMw9d7ze1IslthixoswK91NeLyWxr2m32+Nu8Vh1gfsrsqhXppKE+pbvarMz1p0DT1CvFh784imkEXv1v1qpwmSKuaS15R8dX1UEVI2d6Q/tav/lawTtXQv3w7dffhghz+Nuv3/6hOpwC9cPrVx8/vvK1/fG64qRER9JK6EhaPR1Jq6cjafV0JK2ejqTV05G0ejqSVk9H0urpSFo9HUmrpyNp9XQkrZ6OpNXTkbR6OpJWT0fS6ulIWj0dNKnz+JX9futDJh016/VL5nscD5jUa3Ldznm4pF54dxzrk1MOltTDtwEyokqRug/K7tb3qPsd2RqwDOl1s6nqpmcvchMrUxQSpB/qym5k92J3JrN8b0CcNPwmVV3BF/3ioLXa5f6HrwmT4q+Mle/qIHmvef1671GipFeko5SNmnS0SNIrekQoFxVwdNt69395QIz0Knr/fpmoIGiT4cGBQqSJxweUhyoMKkZ6k+wnJaHCoNcshwqRDpO1lYMKgjKMRr6ESKGnFZaBKuGoIKkDVFgC6gCs9prxaLGx11WB2pdouprwfKoAtS/lqPgaqXRUSUcl1r0lo8o6KrOXgesu6NG/YGV83/GW2J+W6CpYFeeX2WVyDoOyUGFQznSHVB6ppAach6OyucFSUHNxVDoLCi9Ec0XNCVQ631u4q3mByme2B8WiwgN8NqjT9y6S+v2fvv749urjx9diOfxCGzAvqNNZTOZtWKeh7v/17z8+Cl2tKNBVF9gJZxR9MaGAsvUfocfRwa7mkN3nc3R2ykiJ1J70BSIqCJXL0SUXJ2IdC/gKJwMkUXkcde94OX3U9uJvgcrj6FKAE7He8T+TJHdUHtCVIKgvTzUqD+hEAvS0fcEdG3S5RBgVBoW3SVKgYqjQU7TEUHkcHSdAU1YO8RUE/nP+6SY3V13oGVUpjs7accrJYgksBkN1ZuPTBCz/sAS6ypXsQXJAUNjRi0jU3faKYYTpr2Ksd7wR5uQqDAo76kQNXTGuBZxFBLU944vQF4jK5ypP043ML905R4frz2nWtsBqSRqVx1GtT4XbnvBFSo9kXc5jkSRRnRueq1uTLgEd80ZKt4c2/wJCcljicpS2tCswqlCuCpmqjcRd5XM00gBFHqo3p5qEyB5OG4m6yueo5hBQgYXOVi5VgMC2RhNG5XSU2sHwd9JAZLLpzsVKAFH35aJ5QakFr8gsgdTG7Ves+Qq5yg26DTOUqKVbU7u4DIHVAxK3qzBo1k2J/R6OUqiXojLOcRlCo6+vEfTQ3PQbh/gd1ZY4yi5HXCQZjEbrOS7jlKOQqLhc5Xd02/LOOe1wl+M7sqXrLf3frUgX8Mmdu4XA0/FhVNBVEVBtvCM9Z5kh3Nm8TcYfX+j8kIbRQ0OSfybG3J2BGdUVAdUmuyADdzLljZM7cDSvXODO3kN8c3/Gac/3lyiE+g4G3bfquTuPxJghdxJ1M5xC/Y/IsNZDzfYunHNOOVmZUAVBt6Sh9pEuIc4tDToJPVzKkiL1E6R8EywDakof3b+OJaTZg0haRi3w1IqWckc+bvPZun+yeS8Iqt31Im6kKLrlTvRTD5NaiHROm77iQ93jKvSqMSZQbdzbKWPsHYANF3mGFlZLa1eI1Y+T8m7uO9muAm/uZAPVFjjIderfeOm54KBxrgipv3Z2oieGFzXLVSf5ISMoZUcv7YB+MrnbxUuHYI2Ey+hBB3CuqLNQk+9UYwXV+o1djI2UjurEMdun49kuGYzyKS4uw0INoxNbXfDuW+EGjN4x4CY+Gv7EWqxlRaJM6i6eDE5MR6QHWAGS04nNvW2+1SHoavBKrfh1ieHJGSvqxtrJAOe+aHofTAYHh/f8IvBZ6MemJb68DeRqHbXf2J3uw5O3zKgPDYwKmerQAcPJ4AUpoUf92qNnJt7NL/g2R/+DaPP1QU9YUR2LmAq0sXF3X7guAW1E507aVt7d70PS1eY7/wP6TU0BKDPqhkRqJdpYH+/HtjsyeA3wRI7XY9+kHVNH8yZY/5twtRlER150swNlRe3rxJP7+IcTChSeFscGPrz1lDicoPb40t5v3n6OL/uG4Uc7VALKirqmml8sVrdHQOG834qcJ8tOttDT9p4TlQZ6dvL2c+zbcHidFKDSoIyofb3ly/L/MZ4jY+uC8gQcmTfUsQ1gRPPIqUpdmcCgJycxV6m3jj5uUYf/o0EZUTdGC6vRoIelOU4mgCmJ/j11ZMuGzsWYpCPYdzUI9CTq6iX9SrjHyzgoI6rVaLQaiHNLaq9xxH287zw/TzrirOzdQf4PHVwIka3rOfOYFIJGXI29V+sxAcqGOgpCDmXYT6GvM7LDToy73tjQI0c9w2WPexknKxuUcjXxAjHqj7hQF3aDlmGb6PXKExxlsBvre0id5WLdsPXoIY2UKwAXZO/KNqVGGEJXgTeliaKuo6gNG7l6irfpQTJYt0PpuhH9e8NOnUR6u0IspgR/jAC52oReCfejIOqTbdAKRheyR0Gro070b2iZ6Uv4CS6EJfuQsGqLmvLuO3FXI5H7v6J2Y8iOjZ4GamfsVWZ4p8MwowLRv/2c9pI/UdSNSYfu/+aC7F0RyXMKqQ4sGYg6uJTEEoot9p/5/pwBdWZjEt2IkaJe2NL9T5Kcz5mXI3EpVmKtKQkqjjromSGI3vD/34mRApiGrpt7XjjoYdLzvEHFUbWZYepIQevFi/dgh23oCdnmet/1ZQ+XsudqngCoBKo2bZjbOUQ3ozHu+mmC82n/DqWDNxDZrVcIVHyy8SNb26b9p7+ecfE+pRGMvTZNaZvGiuVaxGxH2krPs4qDSqFuYVfPaE+NSVsb/7/LP82d9N56wfgAq01rd7qyMizCoDINmOiZ7D3R/zuBRp7LsQMjyZuMNZIEaC6oE9zFdJEb5ZA83DD09FlXCjQP1Jnh77H9bbYhfGPL2LB2W9/UhiAJKtlXffVtsikTfHutg/fq8cwNkTRoDqg9vAM1+C4OYq0wqZ7WTcEo+UBTCvlRJM4GmDvZqz7Z49sprSIHR31JuupS29aUnEK2nskONmU2zQlU2tW10WqFrugb/trD1KFfRMp+JzdQWVc9ylSbG3VDjjbg8SiXPppZGDPqWhdHpVI2hglOyLmCSjZguqc2dDi9DWtgUScJbvrSc0OuBUbShoa9YpxX3Y1NJdUMcDrOHVTS1fvI/tvWNwwre29jR4+C8kwFgMoV6mwjDY1B/+qmtZl1UvWwXGxaiJMcZEPLjkJA5Vz1EslPnPeFFU/C2NBUWhCoXMEZeV4W2dAEUxioJKqZmun9+4FKNmCUFgyToNQPPf1H+Ge6Cc0vhYJKDkv3ZjIxyCIb2sEUDCo7r4qgmvfQUqNwUMkq3CdeVrMFXgYvAVS2ktG9ae/nC2WbrSlYSimg0tUMNi3TZqC1TXudcvmtJNAcKvIWa8vMlv68WaYtj0sDzakqd5S6Ghx5WRdqSgQtuTK1dcum0XKuuciTrMpVBfWqcVXJCVZRqaKWVL6rP6kaCMGK3xRXn8IRH6r6pLDalDmaUvnZXwXVpXIOB6s/e1dWTaWCAq5+KaYedUuV1BCKsdRR7aivqKvltd3SQaOoBYFC40G5TTceRlGgydarBJS4WhhowlRFoEEcZ0WCxoYDZaCa9tf3798F78FhFYWqELQUYdSqg2LU6oNq2s9nLwRU0958OflS1A6ievo/vyWdD0nvrQgAAAAASUVORK5CYII=;fontSize=10;" vertex="1" parent="1">
          <mxGeometry x="-70.37999999999998" y="675" width="30.92" height="28.66" as="geometry" />
        </mxCell>
        <mxCell id="ZHnCmB_-eCUDnraLg0bQ-33" value="" style="shape=image;verticalLabelPosition=bottom;labelBackgroundColor=default;verticalAlign=top;aspect=fixed;imageAspect=0;image=data:image/png,iVBORw0KGgoAAAANSUhEUgAAAOkAAADYCAMAAAA5zzTZAAAA8FBMVEX///8UkN9Q5v96enpeoO8Sf9mdnZ2tra13d3cAi94Zgts+5P8fhd0Aid0Adtchht1Rmu4ui+EAetlJl+nZ5/vL4PZRm+vI9v88keXJ9v/4+/7A9f8Aht3n8Pxeq+ZS6v9rsejf7vrv9/0umeGx8//s/P8ak+BLo+TR5vdzhZ1Vp+WTvfOFtfLb6/meyu+Rw+211/N/eHK30vd4rvFmpfCpyvXC2fiZwfN1uOo/zPVqpeROmOBt6f/C3vWp0fGUxe5seIBYg6Y+icGZqb91gI9mltNsjrl/oc+d2fU23PxeoON8secAbtVGk97i+v+U7//5SDp6AAAMEUlEQVR4nO2d+3+ayBrGMQ1nK1EUEl3LxjSSrfVUMVvjpTVN2r2cW9xs////5siAMwO84FyAWYnPD82nMcy8X565viBoWrlyfJVcZ/nyplc39eZls35zNR2pDqY4OdObZr1eC1SvN4dfXdUhFaPberMWVb1+W8Fm/DCs15Kq135RHVjeur0EOH1dflIdWr66jjdcytYPqoPLU1dQy8Wo71WHl58+ZYFuUa9UB5iXfknrozs1p6pDzEdutqO+Lgeqg8xFmZ00VCW6qrev7aL2+6A6zBzEYmklTHXTZ1JaFeipUyZLa/Vb1YFK6z0TaK12ozpQabFZuh2TDn0HN2DrplvSQ9+YPzCTPqoOVVKPrKT1Q18RMg69FRh8Xw7py2m9L2dEGrCs7xHpoc8yL2floH1gJD381eCUraMe/ND7knZtL2cnzphd6agOMw9d7ze1IslthixoswK91NeLyWxr2m32+Nu8Vh1gfsrsqhXppKE+pbvarMz1p0DT1CvFh784imkEXv1v1qpwmSKuaS15R8dX1UEVI2d6Q/tav/lawTtXQv3w7dffhghz+Nuv3/6hOpwC9cPrVx8/vvK1/fG64qRER9JK6EhaPR1Jq6cjafV0JK2ejqTV05G0ejqSVk9H0urpSFo9HUmrpyNp9XQkrZ6OpNXTkbR6OpJWT0fS6ulIWj0dNKnz+JX9futDJh016/VL5nscD5jUa3Ldznm4pF54dxzrk1MOltTDtwEyokqRug/K7tb3qPsd2RqwDOl1s6nqpmcvchMrUxQSpB/qym5k92J3JrN8b0CcNPwmVV3BF/3ioLXa5f6HrwmT4q+Mle/qIHmvef1671GipFeko5SNmnS0SNIrekQoFxVwdNt69395QIz0Knr/fpmoIGiT4cGBQqSJxweUhyoMKkZ6k+wnJaHCoNcshwqRDpO1lYMKgjKMRr6ESKGnFZaBKuGoIKkDVFgC6gCs9prxaLGx11WB2pdouprwfKoAtS/lqPgaqXRUSUcl1r0lo8o6KrOXgesu6NG/YGV83/GW2J+W6CpYFeeX2WVyDoOyUGFQznSHVB6ppAach6OyucFSUHNxVDoLCi9Ec0XNCVQ631u4q3mByme2B8WiwgN8NqjT9y6S+v2fvv749urjx9diOfxCGzAvqNNZTOZtWKeh7v/17z8+Cl2tKNBVF9gJZxR9MaGAsvUfocfRwa7mkN3nc3R2ykiJ1J70BSIqCJXL0SUXJ2IdC/gKJwMkUXkcde94OX3U9uJvgcrj6FKAE7He8T+TJHdUHtCVIKgvTzUqD+hEAvS0fcEdG3S5RBgVBoW3SVKgYqjQU7TEUHkcHSdAU1YO8RUE/nP+6SY3V13oGVUpjs7accrJYgksBkN1ZuPTBCz/sAS6ypXsQXJAUNjRi0jU3faKYYTpr2Ksd7wR5uQqDAo76kQNXTGuBZxFBLU944vQF4jK5ypP043ML905R4frz2nWtsBqSRqVx1GtT4XbnvBFSo9kXc5jkSRRnRueq1uTLgEd80ZKt4c2/wJCcljicpS2tCswqlCuCpmqjcRd5XM00gBFHqo3p5qEyB5OG4m6yueo5hBQgYXOVi5VgMC2RhNG5XSU2sHwd9JAZLLpzsVKAFH35aJ5QakFr8gsgdTG7Ves+Qq5yg26DTOUqKVbU7u4DIHVAxK3qzBo1k2J/R6OUqiXojLOcRlCo6+vEfTQ3PQbh/gd1ZY4yi5HXCQZjEbrOS7jlKOQqLhc5Xd02/LOOe1wl+M7sqXrLf3frUgX8Mmdu4XA0/FhVNBVEVBtvCM9Z5kh3Nm8TcYfX+j8kIbRQ0OSfybG3J2BGdUVAdUmuyADdzLljZM7cDSvXODO3kN8c3/Gac/3lyiE+g4G3bfquTuPxJghdxJ1M5xC/Y/IsNZDzfYunHNOOVmZUAVBt6Sh9pEuIc4tDToJPVzKkiL1E6R8EywDakof3b+OJaTZg0haRi3w1IqWckc+bvPZun+yeS8Iqt31Im6kKLrlTvRTD5NaiHROm77iQ93jKvSqMSZQbdzbKWPsHYANF3mGFlZLa1eI1Y+T8m7uO9muAm/uZAPVFjjIderfeOm54KBxrgipv3Z2oieGFzXLVSf5ISMoZUcv7YB+MrnbxUuHYI2Ey+hBB3CuqLNQk+9UYwXV+o1djI2UjurEMdun49kuGYzyKS4uw0INoxNbXfDuW+EGjN4x4CY+Gv7EWqxlRaJM6i6eDE5MR6QHWAGS04nNvW2+1SHoavBKrfh1ieHJGSvqxtrJAOe+aHofTAYHh/f8IvBZ6MemJb68DeRqHbXf2J3uw5O3zKgPDYwKmerQAcPJ4AUpoUf92qNnJt7NL/g2R/+DaPP1QU9YUR2LmAq0sXF3X7guAW1E507aVt7d70PS1eY7/wP6TU0BKDPqhkRqJdpYH+/HtjsyeA3wRI7XY9+kHVNH8yZY/5twtRlER150swNlRe3rxJP7+IcTChSeFscGPrz1lDicoPb40t5v3n6OL/uG4Uc7VALKirqmml8sVrdHQOG834qcJ8tOttDT9p4TlQZ6dvL2c+zbcHidFKDSoIyofb3ly/L/MZ4jY+uC8gQcmTfUsQ1gRPPIqUpdmcCgJycxV6m3jj5uUYf/o0EZUTdGC6vRoIelOU4mgCmJ/j11ZMuGzsWYpCPYdzUI9CTq6iX9SrjHyzgoI6rVaLQaiHNLaq9xxH287zw/TzrirOzdQf4PHVwIka3rOfOYFIJGXI29V+sxAcqGOgpCDmXYT6GvM7LDToy73tjQI0c9w2WPexknKxuUcjXxAjHqj7hQF3aDlmGb6PXKExxlsBvre0id5WLdsPXoIY2UKwAXZO/KNqVGGEJXgTeliaKuo6gNG7l6irfpQTJYt0PpuhH9e8NOnUR6u0IspgR/jAC52oReCfejIOqTbdAKRheyR0Gro070b2iZ6Uv4CS6EJfuQsGqLmvLuO3FXI5H7v6J2Y8iOjZ4GamfsVWZ4p8MwowLRv/2c9pI/UdSNSYfu/+aC7F0RyXMKqQ4sGYg6uJTEEoot9p/5/pwBdWZjEt2IkaJe2NL9T5Kcz5mXI3EpVmKtKQkqjjromSGI3vD/34mRApiGrpt7XjjoYdLzvEHFUbWZYepIQevFi/dgh23oCdnmet/1ZQ+XsudqngCoBKo2bZjbOUQ3ozHu+mmC82n/DqWDNxDZrVcIVHyy8SNb26b9p7+ecfE+pRGMvTZNaZvGiuVaxGxH2krPs4qDSqFuYVfPaE+NSVsb/7/LP82d9N56wfgAq01rd7qyMizCoDINmOiZ7D3R/zuBRp7LsQMjyZuMNZIEaC6oE9zFdJEb5ZA83DD09FlXCjQP1Jnh77H9bbYhfGPL2LB2W9/UhiAJKtlXffVtsikTfHutg/fq8cwNkTRoDqg9vAM1+C4OYq0wqZ7WTcEo+UBTCvlRJM4GmDvZqz7Z49sprSIHR31JuupS29aUnEK2nskONmU2zQlU2tW10WqFrugb/trD1KFfRMp+JzdQWVc9ylSbG3VDjjbg8SiXPppZGDPqWhdHpVI2hglOyLmCSjZguqc2dDi9DWtgUScJbvrSc0OuBUbShoa9YpxX3Y1NJdUMcDrOHVTS1fvI/tvWNwwre29jR4+C8kwFgMoV6mwjDY1B/+qmtZl1UvWwXGxaiJMcZEPLjkJA5Vz1EslPnPeFFU/C2NBUWhCoXMEZeV4W2dAEUxioJKqZmun9+4FKNmCUFgyToNQPPf1H+Ge6Cc0vhYJKDkv3ZjIxyCIb2sEUDCo7r4qgmvfQUqNwUMkq3CdeVrMFXgYvAVS2ktG9ae/nC2WbrSlYSimg0tUMNi3TZqC1TXudcvmtJNAcKvIWa8vMlv68WaYtj0sDzakqd5S6Ghx5WRdqSgQtuTK1dcum0XKuuciTrMpVBfWqcVXJCVZRqaKWVL6rP6kaCMGK3xRXn8IRH6r6pLDalDmaUvnZXwXVpXIOB6s/e1dWTaWCAq5+KaYedUuV1BCKsdRR7aivqKvltd3SQaOoBYFC40G5TTceRlGgydarBJS4WhhowlRFoEEcZ0WCxoYDZaCa9tf3798F78FhFYWqELQUYdSqg2LU6oNq2s9nLwRU0958OflS1A6ievo/vyWdD0nvrQgAAAAASUVORK5CYII=;fontSize=10;" vertex="1" parent="1">
          <mxGeometry x="42.52000000000001" y="675" width="30.92" height="28.66" as="geometry" />
        </mxCell>
        <mxCell id="ZHnCmB_-eCUDnraLg0bQ-34" value="Private Link" style="text;html=1;align=center;verticalAlign=middle;resizable=0;points=[];autosize=1;strokeColor=none;fillColor=none;fontSize=10;" vertex="1" parent="1">
          <mxGeometry x="-94.91999999999996" y="700.6999999999999" width="80" height="30" as="geometry" />
        </mxCell>
        <mxCell id="ZHnCmB_-eCUDnraLg0bQ-35" value="Private Link" style="text;html=1;align=center;verticalAlign=middle;resizable=0;points=[];autosize=1;strokeColor=none;fillColor=none;fontSize=10;" vertex="1" parent="1">
          <mxGeometry x="17.980000000000047" y="698.55" width="80" height="30" as="geometry" />
        </mxCell>
        <mxCell id="ZHnCmB_-eCUDnraLg0bQ-36" value="" style="shape=image;verticalLabelPosition=bottom;labelBackgroundColor=default;verticalAlign=top;aspect=fixed;imageAspect=0;image=data:image/png,iVBORw0KGgoAAAANSUhEUgAAASYAAACrCAMAAAD8Q8FaAAAAqFBMVEX///85mcZ/ugAzl8V3tgAulcQlk8N7uAB1tQAplMP7/f7y+PvL4u7r9Pn3+/1OostbqM7Y6fLj7/bV5/FAncijzOK41+hTpMyNwNuButi21oKq0OSDu9h2tdW21ufK4e6Zxt+cyFf3++/Z6b7U57fL4qjH35/0+etnrdGkzWC92o+JvyHo8teXxkbq89aNwSzi78uv03Oy1Hioz2ft9eG314mYx0HH4KErmvHLAAALDElEQVR4nO2daVciPRCFbXpF3EAU9dUZ2RRB3FDn//+zt5sWBfomqeolSXO8H2dOTPqhUtkqlb29X5nRwfVkctE2U3f7YnJyfWqmbpYOTwLXdf3gZl9/3fs3gR9XHkwO9dfNU8fxnaX84yPddR8dr+p2Orrr5qkTOCu5J7orP3G/Kw+s5tT2nR8F53or/xOsVe4bco4UnbprDdVuTj1no3ZrHflBsIHJ8bV60sPmJqbgQGftdP3douQEWg2/HThbnP7qrJ6qDCXNfrSzhclOTucZSq7b0tmAlptpgO5BRK0/279l7Jou9Tbhxs80Ifijtwkq/Zel5DpajSn24ZkmxJz+09sGuQAlx9U+w+ts9zrLON0CW9JPKeGUBRXc6m8HFqJkZlV12LWXE6DkmFp72svpAlDSO/9eV8sBnC5MteZH19b0uFStLpgXXJtrT6pLyyjFnI4BJ81TuG1BSob3Du3jdNO0j1Kyi5n1T80bc+2ZAFvqGqcUc+oBPz4x1Jj9Sda4raAUN+0EcTJwiJE0BVAy3+NS7feyjfNPTBz2AMO2hlIs9CP2tHNCbtKSHvcl5BJ0H4q1rKck4KR3pxBMdW3qcanAQOx3NXI6BAsn22wpkdlpHVqG20gJc9LV0A60Jc07ukRBe9Ky5Oz49aGEF52+Bk5tsOFsLyW40aMhwOC0ZpTwtmHVAQan2b5uOSXMqVkpp+1giqUFW04Jcqo0ECMbJpBExdlOCR/9VBdgkA0TsL/HpYKcKgowOEe+sBaU8CFZNZxAMEUtelyqM8SpgkAMFCZQH0q4/eUHGMBgiq72mOYC0sEJ2WydbCkR5HRWZg3IA/q9elHC3rXMAAMYJlAzW0qExuryAgwwpTr5pZWq5AT2IvRvvpckyKmUg3Ows+W4vXpSwuutMg7OEaV69rhUf5tVcIK2VGNKeJejKCdwhlPjHpfqFNhTsUAMcMJce0qYk5//uhYKpoh7nJHAjlJ1Cr4rdyAGihLaAVtKhM49/HxfhsIEHNdE8EsF6sB+kmNdgcIETIS+VCR0cSPH+qsFDsB3iBK+uMHei0XBFGbCzSoTjBfhBWKgMIGd8UsrYU6Mg3NkkDvV41LByBr6zS3k3uLxctcoYU7ke4BtsIzbMb+0EhyomqRAjFOwNNw5v7QSurjhUgIM0IKHaUsv49eHfv/hdTpkN/tx9JYUfRs9sovejz4W/X5/MR0OGKVyckLbDBxKg7t55HlhKs9bcEgNF2H0VdSLGq8vjKKD6ey7qBc939FJwchtVSBGQUqDqxhRY02h1xgRy45mW0WjOdWkBm+b1YZeOCUWxUtXBSfol+h7DOOG19hW6M3fCUXf55uQ0qJXpGqHoFpvRjbGI3QhQcbpoJhf6mdbu/zaUN3iuyyk5cd+3qurfYtgrR7ZoODtm6aQE9pOd3zqvt59A35pomisKLuAX5p8bENpinP848S1LogtxxcSRAFQ2C+VQCm2CrmDEpjhklOosCdJWe+V2HYBJ2hPAu9NrUhGKW7xk6ToQvylMaeZtNpXWVl6v4M3KBGngpT6UkoxQ3HRqexL46IPkmpH8rKR7NfZ1AQE2mc5FfNLe2ORc/n+YYWD1ov8S+NvFc+9BoqyClPcELqQsM2pmF/aGyi+NOEk8jEzuR1Kv/VNVda7o34ChVNBSvF4rsQUvuGiY3VR4QBwry4r6ewZ3QD/tD4vKEppT93aWHgBoTQmiTkpvFoixRi7KXTB5ceeClMaEn5VQYNJRSPBquWZgHjOwLR3Kel3Hbhz0mP8daWLWDYYzvYWlKKCgf2dglhgxAKBxGvuVyZBdGrJy5lDaW0Du4kZpWDYh9US3FqMmLUls98FFrOcFR2g9Ev+LeePq2YDXx8LxjqaQQgc8QfJElULpU2dg63bZbe7RsbEyuz5RMOEfleSa4qLwnoVU9pU4QcL0xEKwUnCDo8BJcflnKcrJ4hiTIpZ9EoRnHTNSZhomzHfQrvjPcG/8wLjqZjAbJrkXkSLjk8SJvr6d6kTRCPBhKypyTklpnY6sO1E7HQR3E7RZk0Jphvomzi38gb5fRPRhUdwVH+twDcdouDuJOQQxQAzE8WSPhWOdANaUTzSESbh7JHuDMThpDfKUBwT7zIs6WfF30rrOHjeRJv8s+ZNhyhO5Tj9L0DJcX2GdyK1F699/5E+Fc/C70m/DoeSNNsSXq1wYn0ozUUePO51lE/FHpxkiniJJBJIIrYWywMn4hxOhI0U0c9KWA+Gz4JqCdOJiHMoqspvBt04h5N6O0S0QabagGzgCVeq/ISBCFng0JU8Dqehek4gKqq0xPBTWK3Ss0k2iLdFypWHLoNx7qZITziS9oq3x1QeBju1VAorZuw2ETMKgh1OFif5FpknOR4ZyL9VekL+JP91hBvwGZHzLk7gtlM5nOQuQnoSqjCIO1lvp+/w0rNToggWzq2CgZhTOJP/qhJOEseU6kpsTxH5WIWTnbKFMHFuX4hO81WUYk7PgqKe2rngSIuEEj3WgpXDEwbwciJ4pzCuJJId2650FYGiYUTZBRnDWsOQPMjBCCdJhDjKzsTi9DjPfK3XoK09X54zX+vNaF/6nq01jPpk7w0pSRP1wWkmK/JytPG1odeYkk82xrOtovS1/XCrVu+TPvmGPU6RzhBlr2DeyXu8akSe5yUxkFGfc5gYW9TbsmisyHvgFX36WNXqRc9Txq4A35YSwWkm9+7i4GU8/fg3pIeD/Oh+OJ5Ox7mKvr+M7j7uRi/k3pYIU1KvPsDBJ59TbYQzMFPWaOiuOO+svD4qkqcaLlt2klOxbN4oo+YucsLZvOm7RwI/vmOcjtA9DNb9TMzJ2OMSlQjdVuHm8ITPX+0UJ3Tlm5/7RTDP3BlO6CZdntwvcNvX6OM3ZQreD8uVr2GXOcG3GHLm60C5ZXeDE+px+W/pwpB6p2n4EbPiKpeSIMTX+GNvRVU2JdE+Xb05YUrF/mYbxLHUmxPKPVB8noMy+NjwGGVeQVsqYTaIzxFseNw0jxClctYWMENGTe0JZY8pawUm4FRDe6qSkiAxWA05od+7zNkyPjevG6eqKQlSO9aME+pxZa+8BJxuy62lSumgtAdv6teJE3zavopVPLiBXh9OcIyrZi0BD6bqwUkjJcFBZ7lvS1QjSKm6+TE8wLOfk2ZKggMX2zmheygVz2Uwp9LfCCpTBigJDqZs5oQSwmqYF8MDF3s5GaKEnwiylhPaLdM0h4EBmnZyQmlztc304AFeFW/iFRXscbfaqocHU/Zxgj1O5+zlFPY7yzih0w7Nczz0BEdFb3bmFfRLumfC6AkOqzhBSvrHGXgwZQ+nDsqcY2I0hq9CVPf2Mk+W2FIieDBlBydIydQIA4OpbOAExzhz/gAeTJnnBP2SSa951LPQniyzpUQwJbk41bYOoamK+RGYnkJaj9DzJ6btOxFMjcxJa1Sq2tkE+q55W0oEU/4a4gR7nAW2lAimsjXCCVIy6inXBQ6mjHBqE1PImxK4MeXSnlIqU+3sNpjbtKTHpUIHU/QnzMoRWKFYZUuJwMGU29X6vNZ+dolpcMQVCRxMNbVugp1lB1zfOkroYGqZpFWbMvs6ro2U0MFUwHqws5gy6U9dVpZqjcrcmAo0OvHMZED/SEvVNieT1uRaS2n7AM91dNa96Zt8iyltHeDpDTi8Xd+q0Nnd86i9duDCSmFfWK01M9Y9s+WrvTJ+7XO778dRWU89m1JrEviu7wdd/Wu6buDHVQcT9kP0RtQ+u768NbKYOri9vj6z2nn/6le/oul/7lm1wer/zq8AAAAASUVORK5CYII=;" vertex="1" parent="1">
          <mxGeometry x="431.89" y="430" width="36.11" height="21" as="geometry" />
        </mxCell>
        <mxCell id="ZHnCmB_-eCUDnraLg0bQ-37" value="Spoke - Test - VNet&lt;br&gt;(Optional)" style="text;html=1;align=center;verticalAlign=middle;resizable=0;points=[];autosize=1;strokeColor=none;fillColor=none;fontStyle=1" vertex="1" parent="1">
          <mxGeometry x="295" y="440" width="130" height="40" as="geometry" />
        </mxCell>
        <mxCell id="ZHnCmB_-eCUDnraLg0bQ-38" value="VMS - App - Subnet" style="text;html=1;align=center;verticalAlign=middle;resizable=0;points=[];autosize=1;strokeColor=none;fillColor=none;fontStyle=1" vertex="1" parent="1">
          <mxGeometry x="10.650000000000006" y="471" width="130" height="30" as="geometry" />
        </mxCell>
        <mxCell id="ZHnCmB_-eCUDnraLg0bQ-39" value="Container Instances&lt;br&gt;3 Container Groups" style="text;html=1;align=center;verticalAlign=middle;resizable=0;points=[];autosize=1;strokeColor=none;fillColor=none;fontSize=10;" vertex="1" parent="1">
          <mxGeometry x="-52.48" y="552.38" width="110" height="40" as="geometry" />
        </mxCell>
        <mxCell id="ZHnCmB_-eCUDnraLg0bQ-40" style="edgeStyle=orthogonalEdgeStyle;rounded=0;orthogonalLoop=1;jettySize=auto;html=1;exitX=0.25;exitY=1;exitDx=0;exitDy=0;startArrow=classic;startFill=1;" edge="1" parent="1">
          <mxGeometry relative="1" as="geometry">
            <mxPoint x="62.47000000000001" y="610" as="sourcePoint" />
            <mxPoint x="62.75" y="660" as="targetPoint" />
          </mxGeometry>
        </mxCell>
        <mxCell id="ZHnCmB_-eCUDnraLg0bQ-41" value="" style="shape=image;verticalLabelPosition=bottom;labelBackgroundColor=default;verticalAlign=top;aspect=fixed;imageAspect=0;image=https://pbs.twimg.com/profile_images/1020021942064066560/lomkQ6qZ_400x400.jpg;fontSize=10;" vertex="1" parent="1">
          <mxGeometry x="137.51" y="722" width="51.91" height="51.91" as="geometry" />
        </mxCell>
        <mxCell id="ZHnCmB_-eCUDnraLg0bQ-42" value="Azure Monitor" style="text;html=1;align=center;verticalAlign=middle;resizable=0;points=[];autosize=1;strokeColor=none;fillColor=none;fontSize=10;" vertex="1" parent="1">
          <mxGeometry x="118.45999999999998" y="775.76" width="90" height="30" as="geometry" />
        </mxCell>
        <mxCell id="ZHnCmB_-eCUDnraLg0bQ-43" value="Backend/Utility Subnets" style="text;html=1;align=center;verticalAlign=middle;resizable=0;points=[];autosize=1;strokeColor=none;fillColor=none;fontStyle=1" vertex="1" parent="1">
          <mxGeometry x="156.89999999999998" y="660" width="160" height="30" as="geometry" />
        </mxCell>
        <mxCell id="ZHnCmB_-eCUDnraLg0bQ-44" value="" style="shape=image;verticalLabelPosition=bottom;labelBackgroundColor=default;verticalAlign=top;aspect=fixed;imageAspect=0;image=data:image/png,iVBORw0KGgoAAAANSUhEUgAAAPwAAADICAMAAAD7nnzuAAAAeFBMVEUAcsb///8AbcRuo9gAb8UAbMQAacMAZsIAasMAZcLQ4fI/is8AdMf3+/03hs3B1+7u9fvp8vmzzurH2+/h7PdYltNkndYof8t7qttNkNEZesmbvuPd6vbP4fJSk9KnxuaLtN+ewOSsyuiBrt10p9qNtuC60etlmdSh8mekAAAMlElEQVR4nO2d6ZaqvBKGATOBoOA80O3svv87PNpOIJU5aPQ776+91taGx0xVSVUlCP/DCt79AgrKRsPjZj3bd/az9XJ7THJXf9hz+Gy4nEwxJYzh6CzMGKF08bvuFw7+us/wyaGLKYtQ0BDChEx3P7YP8BY+2acEA9zVHyDdD62e4Sn8akojAfhNEUkPmflTfITP14SJ2rwmRvfGw98/+HxHmCr5pflpxxDfO/gDxlrof/hsZtT5PYMfLvRa/SYWHA2e5hV81qHKY/1Z9Fff9vEJPgn0e/xDERnoPtAj+EOswpjyf6B4r/lEb+CzX6LCjuZbyv1P1tPr+r7A51O1Lo+64RAyeC+KglLnoZ7AjwLFme4EHxb8HwphHYP/NfB5clxtDuv1YXlMIIOk5DcmAB+GY/4QIRrmfvvwyWaSxmenlOGzQ0pi0t0d67/ASOjBAPDhmj/wqTp9u/DZ9t/ZKX0GiEjcWyf3T+VIfXW/wocDwv0OSThv01Cb8EknIjzfDGHaW11s0myhYdnc4MMy5bp9TNXUbw9+2JV4pYig3fk1eyrOawM+zLs8SxgtFC39tuCTroqliskunGlZ8w/4MOzwBn40V3vJduCzSazYlTHWafc6fLjh2YTk8D74gSaRKXw45C0TVGm5bwE+43ZH5/DhiGPvoMV74IupmUtuBM91CdjuHfCJusHiAj4Md/DAjxWsfNfwwxa7PAwfDsDJFfhg2/BDJZ/cQhHAlATQ/Er7L4ZPlHxyA6GIEUqCdDGdAI/Ne8A0g6avhS+UnTMdbkxo2t2vTv5gxrXcJsBoI9I9TZfw2dQ1+/lMrrvr53Jzddkcb6gn+5JL+LHN/iNATuLpbqi6Id9vmtNS59Yh/MblRI8Yma+0DmJGi+dpL/on+Yo7+MIhe0SmG+1t+Gz+PO0Ryd9wB//rzJ5nZKK8H1HT7On3Zyvx553B9101PAsOxnEnT9vaSOLaOoN3NNOzYGlx4B4mae2vUfHP6AreTcNHVM0R52tSG3ySEyxX8D0HDY9oxzLQKuvVV9uoI/y4I/jEQcOzhV2EDbSpmQo/7wi+Yz3VI7q2fQlgOzsWmgpu4DNrhwYvzFa3inaQfS/sTG7gj7bwFHLW9ARu6bCl6Ctu4G17Pd3YvkGxAB2LSHhk7wbejh1h25kuHHJi18T7OU7gR1b7NwiNVB+UZTn4Wb5PJZzuncBbDflooeK8Ff3lpDtNoxjanxHslTPRH3UCv7Zw5NFCatgky9+UEBadD3OBfpxBm1h3eJGx7AT+HyWU0jg+rbMojk//JGCstBH7cJZWg1Gb8CW4fXkTEXUrJ/DLzTApi+tvnBVlMtzM5ilW+AkQEvb5YseeDrkb8APxgSgRbd+3eD6fl9vdFBPhDyAMJPj5jRvj6Rl+LZlr3wX/p7y/X1BuDHUs2GBNutBhxBO8IDjHA/izysO02YR/b8Y/UCsmcHeuwXMsm9ojWh/zcpVr1PQ6oNOXqza8Q+4qPPeAuiImmk9fF4c36D2HqWDei2Vzbm+uwCvtFre/ziuq7JBqN6W8bZYk4i9eD3i1KACh5fzaCMzT0nXnisacDx1Fi9cNHjyeg0S7fPxXh58WnVvn501FK2GLXuHFlk39G3TOi1F5fextOf9bmhln40Yyki/wghBEEH8Czy7vCDzuB6cui+H/G0iMlj94QfAprIhtoYe9J+p6Rgm8xfIjc47P8GqR+XXRMeDhvCnk/CcFva1CarSgeS63bCDhtGnreRJvf5VCJOo0NTwhQM2l1Sv4XcxofHaIcRshHs2dQq/g8+yk0U9/e+h0cSzOIzaifzoM8wq+pqK/mzZj9S3p69OsE/iyv5yNewtE4jhOp/PObjV0kdt/6gqDMeaG7Jsori15tvDFYN9l522r+yhFCGNG4nS8TGwOm2/KjmOmnlMtp69ae1bwyaFHuTs1EaPBv4GL+hbFcmqeZvqsqitpDp+fXkk2JUUEzwcu2r/fc4Vf3UQwhS87ip0RkWjnYgIYusKv2JZm8D/zWGMawvFEK9GRo6NhenmD/t4WJvDJXDWJ5KYonrho/aWTmf+xkaAPXyjnz9SeqJj2Inm2iU/T0D0yUxt+aZo/Yx91ctZKy5OHdY9Q04QveuY/PaLi8CDFN3CQxXLLwtCD19tBaQin1kWNQtWdS5FuQVpa8B3bPAoUC8NEFCUoH6AomunCC4+ClR9rH3xzMnls7d1rcKI6fNEI6TYS6zqw+BJLf/+62inDlxp53uIHy6MR5BpZ0mMt+JGDJeYqgL4YrtaT7nSRpoveeLbsy4N0NOoNQLocjSvCWz6rrqiW4p2vJuiyc3V+BELROZGKzZeSoMTSagJiG3X43HTXEFZ0T/3JtvMY3K1BJ4d4J/QIhlZRUB1l+GzqOCsa/15aryOs/YZpV5QdNrBY8S5Jd0rwv27TpoJLWEI5lhb8Q3QhiJg/WLR9qgq/ayFPkq72Si4aIlO+S2CR1hPlavD9VvJjlfdlEZ1wLQPV0kJNkZESfNZmOrySIsYb+olxu1A1+HFrJSDUFfP8wZ1py9BEBf7YckK8mrj1znRq7FRFVOAztyu8saIUtvpMixXQUgHeuF+5FkKwyfPPbFSqjPmirWoA+kIMbHvDN1SZ7WfOzRtzIQSOe7NXRPJ13mVmtL3gQhC5UdMrWHg7jxr+JAZuA80MRv0lqEsIb58u51gUygkvDCydaCaF3/oGD0cuGphhl9A0IbyL7GC3AgO1DTK4L2H4IviRV9PdRWC08kL7z6BQBr/0xcCpCgEvqj0v444U3r9eH8DZsaVuFyV9GXzu1zp3Ewa8e133hoQy+L53c/2foBIomkv9Lb1YAO+ZhXMTVORQs50UTmm7Pg754LoPUZfeCL0XzeLDZ6n8z7xFGEhI05qb75Xy+PB+OTUVQf1+rzHoH9XS+PBWJyKtijQd+5WGSfIokciH3/po4vwJmO81StVUsrr48F7ad38CSv9ojNGKb8SHN3GTXyOoxOFelb6accCHn3gLH0SAkbdVCyCIfivf+Uh4Cl4NoZRnWPvdPhKegBFtKhei1MLtPxSec3b3K5ujn3YDPhKe8Q7tJ2Lb5HkLkA9vX+isNfFrW3ZE9I0ISD68p07dWYLCnoK2jxvf4sPrWIwvFrfbnzTmvTZQnIQLv3Veu9mduMEKZ3XB4YojILSNA79K3QUdtqBIcCcpeC0OmUPnfCB8f+qtR3cVQxsu/ajx8hGBPw3A52N3WWztSRCltX06v6JdTjhrE77Fe1icCtEZj75TXagY4k6PDXioTL6nYgtegPIjloYwQQXlJ/iRWVmCNwk1l+6LrnsbEQk0CoCqFFzySpRT4HOPA8TYWHKnRw3eJpT3TSJw2kqGyXwlTWqowj/Pkh8hBhdaKlXSOSrwx09k59Kr6AHvolb3W0SMcxXv8PISNd6Kmibr3eFhf+AzpHY7HR9+7bs1LxKC6y2pwmvHNvglbJaneYX32HlXUmyUnn6B/0Drpi61axlheF+P4tUlubdEAO9fpKW2jJr+D/7TR/xZGvdv1+DbvlfyJeIWU5XAdz7XuKtIWNuYC599Qac/iYA1PmXwngYb6gr9ymmb8B6fS+lJ28YNPI0vNhAQnCiF9y6XxFSyewkh+I/dxHiW+LYiGH7g72msnlRun36GP3wNvPz+5Qa8Ttiq59Kd7gOfY280RfThDdOQPVSsa+AG4fhLlvlrWvj/4ZXhv6fbg1GpYniP4+00RfUnvN3XwEPB2BJ4f5MKdKW9jRfYX6vqi0zM2w8/rHlIcvE0CJ99y16GiUv7PZsZ2me1gc+ZRHpCJttY37KBOZfTNuG/ZNBz4msl8OHvVwx6IMlUBX7wDf0eyjRUgf+Kfq+/0F1Pab9hvtfexrnB+1gQR1NQRQE1eC/qXNpJewvrAV9+ZuTpQ5ibeCCH//gdDYPD+Qd8/tlOvYGBU4GX3AbruUzW+Cp8OP/gjg+XBtWALz7XxgXrI2rBm5TU80NwZUw9+PDwmfSR9uEsBC9OPvdVSD8UB4Tnp1/7KxQZTnYNeHnRCd+EsM01gE8Zlf8+q+fzap+bwYezT5r18NTuMqRGIvHK5B7C94jqx1xK4MPS0T2YbQtxrrC3gj8X2fqAxic9q+HOhQ+H3peNiOybnQcfhhvsc99Hbm565ZaKydbEV/wonmuHGOvBn/CXC6e3n7sRYsTJ9cYS+JOGjm9/t9WJvLt1ca+3CnwY5oPJgn/L+iu5I0bRfOVkqKvCn1WuOr0gJoRhHL1DmBFKF+Pl0GGbK8OfleU/x9Vht++8XPvZYdsvnXPrwH+n/gfk/ro6nKdcxQAAAABJRU5ErkJggg==;fontSize=10;" vertex="1" parent="1">
          <mxGeometry x="217.39999999999998" y="722" width="63" height="50" as="geometry" />
        </mxCell>
        <mxCell id="ZHnCmB_-eCUDnraLg0bQ-45" value="Azure Backups" style="text;html=1;align=center;verticalAlign=middle;resizable=0;points=[];autosize=1;strokeColor=none;fillColor=none;fontSize=10;" vertex="1" parent="1">
          <mxGeometry x="203.89999999999998" y="775.76" width="90" height="30" as="geometry" />
        </mxCell>
        <mxCell id="ZHnCmB_-eCUDnraLg0bQ-46" value="" style="shape=image;verticalLabelPosition=bottom;labelBackgroundColor=default;verticalAlign=top;aspect=fixed;imageAspect=0;image=https://simg.nicepng.com/png/small/269-2693721_striim-for-azure-database-services-for-postgresql-and.png;fontSize=10;" vertex="1" parent="1">
          <mxGeometry x="-76.03999999999999" y="725" width="42.24" height="55.76" as="geometry" />
        </mxCell>
        <mxCell id="ZHnCmB_-eCUDnraLg0bQ-47" value="" style="shape=image;verticalLabelPosition=bottom;labelBackgroundColor=default;verticalAlign=top;aspect=fixed;imageAspect=0;image=https://res.cloudinary.com/practicaldev/image/fetch/s--WwnyWo31--/c_imagga_scale,f_auto,fl_progressive,h_420,q_auto,w_1000/https://dev-to-uploads.s3.amazonaws.com/uploads/articles/3768q3vwjhb637dmjzwa.PNG;clipPath=inset(3.97% 29.67% 0% 27%);" vertex="1" parent="1">
          <mxGeometry x="-34.13" y="492.38" width="40.04" height="37.26" as="geometry" />
        </mxCell>
        <mxCell id="ZHnCmB_-eCUDnraLg0bQ-48" value="" style="shape=image;verticalLabelPosition=bottom;labelBackgroundColor=default;verticalAlign=top;aspect=fixed;imageAspect=0;image=data:image/png,iVBORw0KGgoAAAANSUhEUgAAAOEAAADhCAMAAAAJbSJIAAAAhFBMVEX///8AeNcAddYAc9YAbtUAcdUAbdQAdtcAa9QAetjy+P3S4/b4/P7H3PTg7Pm00PDY5/fl8PpeneGDseeIteiewuw4i9z0+f240/HB1/JWmeCZv+tspePk7/pHkd6Yv+sohNp3q+UYf9mPueljoOKpye4xiNvP3vSkx+14reVvqORcmN97OEPyAAAUiklEQVR4nO1dCZOqOrDWkATFBfdxG1TQGcf7///fE9zoTgey4Mx5r95X51bdchRokvS+tFr/j0YQDXuD+DzfZdksy7LdOV59D6O/fqhGEI3i3WWdSik5F0IExb/8P86vn3WTbRb3/tdSGq2ydRpc6WKsrQNjV1pFN5kth3/9uJYYno+p5EJPGiI0ELI9mY/++rENES0PqTlxJTIFZ5Pz518/fh3GpzXngTV1Lyrlftb7ayL0GM8X0mHxIELBu7N/c7/GCRehJ3l3BDLNxn9ND8Lo4L96ZYSik8R/TVQJcSLdz54OjHezf0NURrs2b3L5Sgjk5e/lZDQV4j3k3Wjkk7/lOtGMv5O+HKyz/jsa+9lb1+9Jo5z8kR4wDw3pK7TPXNPuBGH+/7JTKOJBwAylC5OXP+A5g9SAvvCqion0akGcV6PhuP/8cWFMbWbHr3ZOqQGdgZj/Mn3jtax7ritxnf3hVG0c9aPe+fAleVDLjfn++7eIy7HrVD/RVb/sTs7mHKK3WbfrVIaws+3XX6kZfNdsUMHXJ3s51tslNSZJ0F6+gRoCP53qDRquXN/1RzwJKrUHOfmFZRzt6zhMMPO4fD9eVynwQXvQGCUa7Go5zPVN+/G98SaV+oWUh4YoofGx5rX05U/he16+J3ozWuzfKP97FU4lAO5tp39Otfog429jOGepe60K5cLfJviYBbp1fNdO3WoIFGLT2qPTGXYbULM+ZjqzUyRv4Kn9Bb1rGM9ZZw9Tz/ZNPEN00QgP1m3ccByn5K1Cub45VC74bQeLRu47TGjmHfKGxUaPllHiqSz2lf0UTJq59UqjQclTM9e/34U8goyXBN9S+Yq4NHT3GS0e5aah619xIgnkCfD4TZTH4D7KTRnDL3IZZVPXb807dQuY40N9Cnlu6hEyTp0SOW3m6nNqBcVeYWbEVvZWbp4YkaeR/zRxbZJAcoMciFVszmw9Ugojb0D2U2eQCZpVp+pWakC5eT4JZbX5n/WYOINioVFYhuprDllzPqRRl+Cpcud3UUpM8K3268SCs9RZuYnGw1GB4fj2mvoJocVJr/iGooy1a6y/rfoIzFK5iUbL+c9kkQadIvqfQxYx/+PPfJUQG1V6aDdj9XlDzRF8YK9uJHPlZricrVOh8aSGLBAi7KoUtrnzWe+rumjIaq42Jpi6CcOLBtmaSVHvVSTgbsiou551awOXA4I18az6N71sIVxC/8/H2rsReFGWg6UGL2tHyK2Ks9tfHpl38DjQM78KqJLe0OY7EhtVw/AKz1oTwUcX59fIlcBW64sSWwSDGmxZY7FVae0Z6reVjdM1FWwfXYqno0eINs2Gjq01i7XKZcwtWkK3Qfpb79h06JEldgSe1WcMLEwVShUK208+vFxUuHxdUcewIYbEE1pF8CiDhN3F1jwljT1LqKJf2kTDsXOwoNBK/5sSG5WlH9fd0X5XZDxMzR9vRlqbKxsKWxNCSWZfcbc5+pRVFMb28IjyWlh76hfqUes2RV9YQPm4Y/qIhCHrQKGq1VJasxVdecaDFO003S+SxWKhaPmm+zSjXzS3TWuJKLHoCHYljS+2WTz4jF5i+RtvNmFk8Y/JPeoSTyKMLweEAZfpZD6gdP455mcdE0Mq0Ygqh4jZyCjaWE0dX8xWeoMGKyYmcp92b+cUOpjS37qLmaBIGP6uVhX7+EcG/kstO7CUFjdo31c9eSKZG2TRDpQb1P1ig9jMa8vaSfwHYpezeOUr69hQkz6gG4iaaMYH3tfH55oKl1hPtLZXQAVPTh/mt8CyTVS/mimWFKPnB8JKs70htjZvmUw3dineeJ9WazZjxPz4cvD8hNkHyya2p1Dwoz0/w94WXvWG0Ka+8t7T8+fsP8s7f5pkL5YQCjFzydDvo21a5bQZo3cuh63Zi2YL1T1HXJMchsDk3jWoG6Od19G/J7SE4tBqbV8HSVrd9mC1Q5lMPDzXX/BdBtrzhE8hu0rb/0oUWiimkSZzQ0efXy43Dj5oTyIyCwujvhQoEObhzlHbgof60tdSIuxC53BBr72bf1baAOY5h7FBet/9Hk3Qp1oLgtb1zpBCXugwJX+GsTcrMz+C3W7SSKkainlpfErQOXO3JtPyZ2Z3s+MxzaRvIRZCm8LIDrgraWUKzVjN2koKNpIA1wI8PwdpJhzhd9jt0/LCmvgTyTDtA5TdwpohEZ1EtiYeDX4luGuhi7D6ZwhRWmlLdAkaDSJ2JkAL1FHf2wmJivs3gMVfK/PHVC4BpJEisYlVRP4EYr9B5wV76HbA+qkz8z8JDx+mkCKx3cQqLiCj3CsPB/nMk6mAE1wTuhia1DFRJIbtBlK3kXaqsEXoQgyf+RNQz6lUvkcmBUzXFSO+FbIGSETKKV4NaCm/PBbweFbJi56RY43xOXVYazMgDICUzi78Kwo2BU85vALPXbFNe0ZikC+uRy7aU1ks3robiloiD/YG3LNkzqOfhYaXpxHKuwxKiNchvNU3yGuQ1wX+scQzUdaojpt+mjCZoP0kYkK8EG8SoWINuSky7stbGGqrmlD32ITJ8LLC8EPlpHgmp0eIm5a5VwyoD8o5TFjho6RzpKY1qOhAR+aOyixycTqXAGU6cH9ClQdsxTnSdQiHK5EdpoC18R6MCROk45dTDBk/2G/wPqL8KywEEBPOUaVsPy5JpKQOiEwov1RKZEOx11+gTseO4Gfo8W+G8Xh1nm6Px8t0E39u6+UEXag0JHwdHa8qCsg0StEyuBNRgAL55cOv1urSzUuw2RV5x6f6Laor/qAEo1fOL9TMSicKHUOoB89xrCa0zGUKhT6dnRCMPlUU33Azvg4icFVcFwnAN8xZbf9t1at7lBj04bt/8gwoDRXNzC/BQHxVx5FmqtTg7uVEUF7Ix7tdwd2LOfbUJxwvav0C2Cef/8i5KGxDkwKVcon5OpXObgqTak+i9rb+vWgAD+LTw4u4pfIzcEztCDSKOUZqAbxYuHkZobfp6eEFBw1JwxxkEpgRgabCTS0RD/YWYeASoJ17ZzURVEpVtexTk2FTS6C5Jq3yG5Y6OW+gGn33p0G9jNJ+dSk2lQgDG2vopKwiYy42MZTed60G6qtUZGrlsE3DwM4v0VNKLUqawjDOtpP1ZHquSa+5KrvgTd3NC3jMqGzugT2F9n7eSC0UvaX/DLZh0UEz1xE5T+JKIscUMwVbF2s0Ofr2m9TJy6sa/vLcOu9hxjQTrEqtg0lSd7YJThkjwvxEuVYNQjdOqIblRJswsYKq1B5gXoQ3cQGEBZE1o1Ze1KIy4aMCK8PQakWfGijcb+ICMGri9ThwUrM8TwLD2sDHDYG2PgnqmJ38I6h3q840p/xC5txmiHI0UjfQHfQ5oLDQvaF1pGYCq3X2BvBoPjY10y90tanQqVaQA5VVRe+OnMxDNfRjjtisHCOgtXNITiHyoTjv4F+c3ZRSq/IOBLKimbgF6XscqRoaVGkE/oWTxuaWyfhE3+gw0ukIkK0UjBMajfhXRC8II1CagwWULFAKnHI9RpDCnB/syhdTzs/A1UtTk8haBxOblD7sgFEFuecOeOBCXFq+cXVh+DXDMnuxZO0BXEOFQiXvaet2DB2Tpi1vKyjfKmQrOTuYlVdJodCR0Xh23mvVX5982hxA1BRPMa2k0NlHQ6nwxjB2fhFSH6jZhWsUrGGIKXQl0D5pugxTISyJBAfwhWINqzmNO4WWdbkApi5aKiQNHTWZQiEWY+671IdC0yoNKqlX5TRZpTyk6mXNKHR16uYw5W9UHQ901OQUQu8UDoBS7VLMKPThNMYUEmsIzd1cp6nWS49/Ii1Mdynh+oxUvTSutC2c/d1eEt9UzyAsGJj7VCzyoNI+XDp79H20Nk2hrgKhOryQ9fStfCSRqvfpqnk7+zFyLM3uSqneK9Vlgfw0OCLtKC68hIVSnqRBQMTuoLJQ+GlgQErhvz9uxoVnl/gvIxZOCfyMYCvVoSfHUt6K6ioT4FJWGopT6YoL9JAXnwGhri483X+gBn6bFPN8HcKuykuBKL0rocBdqD6a2etE8G7XbBZJCNXSbcA37nELeNIU907fJbRmWauoguqKRgFn36Bw7y2vBHIf1b+ysyeR9BHZQWmXoLsVbAs9UlUaLPIJ/4p1Qo1iZbqA6I1CIkjLIhy5vG/MdkyFTctQWwTXgDXRUfzDIKezQFhOiICW5T0GBiuFAyLn6mgrEz2yml6Iqso0QVKyfN0uIYJrSLwqVn7+Dqz7sLhnNZUw1hdRyRkow32lr8LUvcdp+VFDbghDa2YTOKb8APQ1Bf1BcBUS0/LfWHDTNkd0ih5KxqCMgpM9ifsm6rVioq1b0NkWl+61yytzy0tFxu6DpY9UVz+GqTlTgq7ZsB36GWzNxwS/PBTC/rH84IXYgIbly1CCCeCUg2Xhorr5tvi9I54ILkRQDKAVk1N5a4C+G0G3h1TMV6I3ZECheoI+3PK++LqhIQ3D5Xw63ZzUibNRUmItoZzp1iqrO4guSVE58tf6ZmzKmxhVdL/spIHqgYPAbW6METa0UyvwSTfdbwNrHirXhG/A2WuaM4C3D4XLNFk4QemMaNKjH4jqNikT+madLPCs9alHj1QNgCGICi6wvFhV6fn5eLx1TLffv7+x49snbR2IZQRkQCejYgWT0lDkfcRlJz1uvguf3kDfMSno/sIyqpmNwAEADxoOWlFOdnEaD4ef5f1MVcA8r/j+uXdTvImgFQ6CiIo7imyaSzzyUb9Tg/b7lxHascjjBDOhETelOtLSgZdTRTqTnLybqcL7YVcjqqMEgpry7GuKIYcV3a/YmydtIkd5gP4MLSi4QlR0huvOVVUHMzRpMxoNlstRYyuLukJgIxylyYKQB8FoKlpfV4iNq4ozufOm/vLYzTXp67/upZFpNCgSoPrDITcFG4oIXVTFzion7LGiKfX4UJ5VyXg782e1KPav1rqi5KcSq6XyLxW1p4zqKYkiPE07WK4IvwSjljI0jMhSjqCBVOIkRDuIuvTRc2VHckHJTalWI1kBJahQCWEwslyanUJ4MGr7s+sVfj3djpVOd0BhSPnTcLLcK4ZLJLcYFM7PjDuaPeA1UBBVMdJOd9Q94amcEmkDHYNnoadsVSHwcJVj+478Eippfi6i6tQ3zOKe2i6jcxEDlvaaC6Eg03MRiTEJhrXIvb1lFkDHNTscBTmp0GkOlHosqbDG7RUZh5Y2dk1obWdDPYBq+4gq0RuQ4LvvxW+VQiolUAODIezgym4WCDpI+kIBNEyUF1I4JhiGzd11UzZJuCXAIwu9IqUOl8MWHYXUTG/bIH2mG3pLwKhtPAJWuqpGJKAstrwJLeFJtE5Zi7bGU1dc6jRQ3VLlAmCukm9oVRw66JDDxJBGUhmpBm53XZ1vhptBf1EhC6dCg0FiFklm4hjb5eIgNlOT2Io9o3xD2E4mGg1FoyFTZYKn25PxecTlNTgzDwPb83xI7C4nAomhyFVUSraexcN6ZRyn9esbQT+AbhWqm9Q13+nDMuEhn7ki0snsNKAJ7Y8G84PScIJs1QWAEy/UreXQfv5GoVMiZzFbRrb3yfoy29wxvUySfSglF0oXNRNeXJuBXDdfQUuhz6Cg8Nay6YaAMU0fUaNkLN2cmReFrglPvrOCDNAxiqzXxeyd57Y7hcqtYDrytCZaaKF3QzjHWc0pNHS+0jO7nnCunTTM3naHeT+7mhIEV3dK32dykAFsynQq84Ldc0edy1MMKbTYXFS06QGPGmaHDhsWsBtVT8ywfMAnhbu2P4NQZbgpbCfmUuML7xR6OKfrUh5kHB++Au4y2tm6i4M+4ZIq4zAG1bT0BVEsw0fv9LNmnbyvkMV62g/n1p4Zm4mrKqjpnc8rl63fj1G82SZpIHmR1MZqqLU7hDecNSR69YNotS5aEgPKq9+PRqtTNjsck6+0nSumV4Kph3J67ZrOq2QRvAV03VmECQfrf0RRpPIr13gAMeu+7V3RpBtVJo1Z4UR586HxuGkEusWzOLtd7YXxpINpFOY5RUTX4sC5yIqePu0brW3dhla/iAx429jkJBvzeqR4UgManc1D+KTzSbfDc3TSg7krfxSqO9yFjb5wIkgkCsbcEPW+v79HNkdoSWQkSc9TQ8xuCr0L01wxI963WYvUyqtSmRhNVP1Yg2x05tM5+gFKCxGLRub7WOGbKhKSXgrWA9QYA2YxZq4ZZJSi0MQK5iB1SXMJ3QTG5LRB/zP4gJKcWuzUbhM1MWY4k23gm6wD2JFauDx65fgY4zMhtXW/OQoYZ1JdDsJGb6LBjFzA0Nltq4HGE8gT/ylG1Vh1SROHtRu/sdrJ+HYnfnhncvNIE1dtpvYPgeicfruZnL7rOA6PihFy3zqeiYw6UCOMcgjWQAKsiuFRN0jjfcVUpNQtaBSzpndNb63LbWDBG8XUgDBeHjRemjz6g0Q7COXNpWIftGjKEchFQ7Ij2qTa3JRfKPeb66fMMM5+/CsqVxNB9PB+bJW0KeO0Ap9fVS5Pmc58iBz8tCvm9IQd9xE0VthVDgsSvDt1IjJabgNeFUQV6dtrbh8YVi1ju3AtredWT9P/zhY1k6NYpyFTyQznoCZizQTn69lyWC8o+6P4Z9/h+rN3g3y7fogQHetT8ZgQsr04zFcj2iPw2YuzyyKUBhE10f4NHR/hqjKahIbCfCiFlN3kv+Nlmm3mp3k2+9lO/vsKO9I0vCSI0TC/gtXerHv6jdIi5ScQ1395JMkicBbwtym+9YhTCxrdEMift5e7V9O4t5wzZwchpn9LX45VojFxvBG+QaF3w3BboWc5g8l9AzGgphDNU4t8fAOEorP9NQXGEL1DlUZpSZ5cnN5ev++Cq1XgTyS7Ku/ZL6svFuivLl1pV+oEyRMy2fy75N3R2yWCO1B51WTDY/xv8M5a9AezhEnzzKZCgZ3Mf8G4bRTDeJrcpurqJQnL89SDdJKtXLNy/xzjwfxnsmh3ZJHadFNLi/9ybVymySWLm2uq8KcYD3uD+DzfZdksy7LdOV59D/9vUPYP4H8AaVwb4OYbn+wAAAAASUVORK5CYII=;" vertex="1" parent="1">
          <mxGeometry x="105.87" y="497.65999999999997" width="34.72" height="34.72" as="geometry" />
        </mxCell>
        <mxCell id="ZHnCmB_-eCUDnraLg0bQ-49" value="2 Azure App Service&lt;br&gt;with Private Link" style="text;html=1;align=center;verticalAlign=middle;resizable=0;points=[];autosize=1;strokeColor=none;fillColor=none;fontSize=10;" vertex="1" parent="1">
          <mxGeometry x="78.44" y="552.38" width="110" height="40" as="geometry" />
        </mxCell>
        <mxCell id="ZHnCmB_-eCUDnraLg0bQ-50" value="" style="shape=image;verticalLabelPosition=bottom;labelBackgroundColor=default;verticalAlign=top;aspect=fixed;imageAspect=0;image=data:image/png,iVBORw0KGgoAAAANSUhEUgAAAOkAAADYCAMAAAA5zzTZAAAA8FBMVEX///8UkN9Q5v96enpeoO8Sf9mdnZ2tra13d3cAi94Zgts+5P8fhd0Aid0Adtchht1Rmu4ui+EAetlJl+nZ5/vL4PZRm+vI9v88keXJ9v/4+/7A9f8Aht3n8Pxeq+ZS6v9rsejf7vrv9/0umeGx8//s/P8ak+BLo+TR5vdzhZ1Vp+WTvfOFtfLb6/meyu+Rw+211/N/eHK30vd4rvFmpfCpyvXC2fiZwfN1uOo/zPVqpeROmOBt6f/C3vWp0fGUxe5seIBYg6Y+icGZqb91gI9mltNsjrl/oc+d2fU23PxeoON8secAbtVGk97i+v+U7//5SDp6AAAMEUlEQVR4nO2d+3+ayBrGMQ1nK1EUEl3LxjSSrfVUMVvjpTVN2r2cW9xs////5siAMwO84FyAWYnPD82nMcy8X565viBoWrlyfJVcZ/nyplc39eZls35zNR2pDqY4OdObZr1eC1SvN4dfXdUhFaPberMWVb1+W8Fm/DCs15Kq135RHVjeur0EOH1dflIdWr66jjdcytYPqoPLU1dQy8Wo71WHl58+ZYFuUa9UB5iXfknrozs1p6pDzEdutqO+Lgeqg8xFmZ00VCW6qrev7aL2+6A6zBzEYmklTHXTZ1JaFeipUyZLa/Vb1YFK6z0TaK12ozpQabFZuh2TDn0HN2DrplvSQ9+YPzCTPqoOVVKPrKT1Q18RMg69FRh8Xw7py2m9L2dEGrCs7xHpoc8yL2floH1gJD381eCUraMe/ND7knZtL2cnzphd6agOMw9d7ze1IslthixoswK91NeLyWxr2m32+Nu8Vh1gfsrsqhXppKE+pbvarMz1p0DT1CvFh784imkEXv1v1qpwmSKuaS15R8dX1UEVI2d6Q/tav/lawTtXQv3w7dffhghz+Nuv3/6hOpwC9cPrVx8/vvK1/fG64qRER9JK6EhaPR1Jq6cjafV0JK2ejqTV05G0ejqSVk9H0urpSFo9HUmrpyNp9XQkrZ6OpNXTkbR6OpJWT0fS6ulIWj0dNKnz+JX9futDJh016/VL5nscD5jUa3Ldznm4pF54dxzrk1MOltTDtwEyokqRug/K7tb3qPsd2RqwDOl1s6nqpmcvchMrUxQSpB/qym5k92J3JrN8b0CcNPwmVV3BF/3ioLXa5f6HrwmT4q+Mle/qIHmvef1671GipFeko5SNmnS0SNIrekQoFxVwdNt69395QIz0Knr/fpmoIGiT4cGBQqSJxweUhyoMKkZ6k+wnJaHCoNcshwqRDpO1lYMKgjKMRr6ESKGnFZaBKuGoIKkDVFgC6gCs9prxaLGx11WB2pdouprwfKoAtS/lqPgaqXRUSUcl1r0lo8o6KrOXgesu6NG/YGV83/GW2J+W6CpYFeeX2WVyDoOyUGFQznSHVB6ppAach6OyucFSUHNxVDoLCi9Ec0XNCVQ631u4q3mByme2B8WiwgN8NqjT9y6S+v2fvv749urjx9diOfxCGzAvqNNZTOZtWKeh7v/17z8+Cl2tKNBVF9gJZxR9MaGAsvUfocfRwa7mkN3nc3R2ykiJ1J70BSIqCJXL0SUXJ2IdC/gKJwMkUXkcde94OX3U9uJvgcrj6FKAE7He8T+TJHdUHtCVIKgvTzUqD+hEAvS0fcEdG3S5RBgVBoW3SVKgYqjQU7TEUHkcHSdAU1YO8RUE/nP+6SY3V13oGVUpjs7accrJYgksBkN1ZuPTBCz/sAS6ypXsQXJAUNjRi0jU3faKYYTpr2Ksd7wR5uQqDAo76kQNXTGuBZxFBLU944vQF4jK5ypP043ML905R4frz2nWtsBqSRqVx1GtT4XbnvBFSo9kXc5jkSRRnRueq1uTLgEd80ZKt4c2/wJCcljicpS2tCswqlCuCpmqjcRd5XM00gBFHqo3p5qEyB5OG4m6yueo5hBQgYXOVi5VgMC2RhNG5XSU2sHwd9JAZLLpzsVKAFH35aJ5QakFr8gsgdTG7Ves+Qq5yg26DTOUqKVbU7u4DIHVAxK3qzBo1k2J/R6OUqiXojLOcRlCo6+vEfTQ3PQbh/gd1ZY4yi5HXCQZjEbrOS7jlKOQqLhc5Xd02/LOOe1wl+M7sqXrLf3frUgX8Mmdu4XA0/FhVNBVEVBtvCM9Z5kh3Nm8TcYfX+j8kIbRQ0OSfybG3J2BGdUVAdUmuyADdzLljZM7cDSvXODO3kN8c3/Gac/3lyiE+g4G3bfquTuPxJghdxJ1M5xC/Y/IsNZDzfYunHNOOVmZUAVBt6Sh9pEuIc4tDToJPVzKkiL1E6R8EywDakof3b+OJaTZg0haRi3w1IqWckc+bvPZun+yeS8Iqt31Im6kKLrlTvRTD5NaiHROm77iQ93jKvSqMSZQbdzbKWPsHYANF3mGFlZLa1eI1Y+T8m7uO9muAm/uZAPVFjjIderfeOm54KBxrgipv3Z2oieGFzXLVSf5ISMoZUcv7YB+MrnbxUuHYI2Ey+hBB3CuqLNQk+9UYwXV+o1djI2UjurEMdun49kuGYzyKS4uw0INoxNbXfDuW+EGjN4x4CY+Gv7EWqxlRaJM6i6eDE5MR6QHWAGS04nNvW2+1SHoavBKrfh1ieHJGSvqxtrJAOe+aHofTAYHh/f8IvBZ6MemJb68DeRqHbXf2J3uw5O3zKgPDYwKmerQAcPJ4AUpoUf92qNnJt7NL/g2R/+DaPP1QU9YUR2LmAq0sXF3X7guAW1E507aVt7d70PS1eY7/wP6TU0BKDPqhkRqJdpYH+/HtjsyeA3wRI7XY9+kHVNH8yZY/5twtRlER150swNlRe3rxJP7+IcTChSeFscGPrz1lDicoPb40t5v3n6OL/uG4Uc7VALKirqmml8sVrdHQOG834qcJ8tOttDT9p4TlQZ6dvL2c+zbcHidFKDSoIyofb3ly/L/MZ4jY+uC8gQcmTfUsQ1gRPPIqUpdmcCgJycxV6m3jj5uUYf/o0EZUTdGC6vRoIelOU4mgCmJ/j11ZMuGzsWYpCPYdzUI9CTq6iX9SrjHyzgoI6rVaLQaiHNLaq9xxH287zw/TzrirOzdQf4PHVwIka3rOfOYFIJGXI29V+sxAcqGOgpCDmXYT6GvM7LDToy73tjQI0c9w2WPexknKxuUcjXxAjHqj7hQF3aDlmGb6PXKExxlsBvre0id5WLdsPXoIY2UKwAXZO/KNqVGGEJXgTeliaKuo6gNG7l6irfpQTJYt0PpuhH9e8NOnUR6u0IspgR/jAC52oReCfejIOqTbdAKRheyR0Gro070b2iZ6Uv4CS6EJfuQsGqLmvLuO3FXI5H7v6J2Y8iOjZ4GamfsVWZ4p8MwowLRv/2c9pI/UdSNSYfu/+aC7F0RyXMKqQ4sGYg6uJTEEoot9p/5/pwBdWZjEt2IkaJe2NL9T5Kcz5mXI3EpVmKtKQkqjjromSGI3vD/34mRApiGrpt7XjjoYdLzvEHFUbWZYepIQevFi/dgh23oCdnmet/1ZQ+XsudqngCoBKo2bZjbOUQ3ozHu+mmC82n/DqWDNxDZrVcIVHyy8SNb26b9p7+ecfE+pRGMvTZNaZvGiuVaxGxH2krPs4qDSqFuYVfPaE+NSVsb/7/LP82d9N56wfgAq01rd7qyMizCoDINmOiZ7D3R/zuBRp7LsQMjyZuMNZIEaC6oE9zFdJEb5ZA83DD09FlXCjQP1Jnh77H9bbYhfGPL2LB2W9/UhiAJKtlXffVtsikTfHutg/fq8cwNkTRoDqg9vAM1+C4OYq0wqZ7WTcEo+UBTCvlRJM4GmDvZqz7Z49sprSIHR31JuupS29aUnEK2nskONmU2zQlU2tW10WqFrugb/trD1KFfRMp+JzdQWVc9ylSbG3VDjjbg8SiXPppZGDPqWhdHpVI2hglOyLmCSjZguqc2dDi9DWtgUScJbvrSc0OuBUbShoa9YpxX3Y1NJdUMcDrOHVTS1fvI/tvWNwwre29jR4+C8kwFgMoV6mwjDY1B/+qmtZl1UvWwXGxaiJMcZEPLjkJA5Vz1EslPnPeFFU/C2NBUWhCoXMEZeV4W2dAEUxioJKqZmun9+4FKNmCUFgyToNQPPf1H+Ge6Cc0vhYJKDkv3ZjIxyCIb2sEUDCo7r4qgmvfQUqNwUMkq3CdeVrMFXgYvAVS2ktG9ae/nC2WbrSlYSimg0tUMNi3TZqC1TXudcvmtJNAcKvIWa8vMlv68WaYtj0sDzakqd5S6Ghx5WRdqSgQtuTK1dcum0XKuuciTrMpVBfWqcVXJCVZRqaKWVL6rP6kaCMGK3xRXn8IRH6r6pLDalDmaUvnZXwXVpXIOB6s/e1dWTaWCAq5+KaYedUuV1BCKsdRR7aivqKvltd3SQaOoBYFC40G5TTceRlGgydarBJS4WhhowlRFoEEcZ0WCxoYDZaCa9tf3798F78FhFYWqELQUYdSqg2LU6oNq2s9nLwRU0958OflS1A6ievo/vyWdD0nvrQgAAAAASUVORK5CYII=;" vertex="1" parent="1">
          <mxGeometry x="157.3" y="512.39" width="28.05" height="26" as="geometry" />
        </mxCell>
        <mxCell id="ZHnCmB_-eCUDnraLg0bQ-51" value="" style="shape=image;verticalLabelPosition=bottom;labelBackgroundColor=default;verticalAlign=top;aspect=fixed;imageAspect=0;image=data:image/png,iVBORw0KGgoAAAANSUhEUgAAAOEAAADhCAMAAAAJbSJIAAAAhFBMVEX///8AeNcAddYAc9YAbtUAcdUAbdQAdtcAa9QAetjy+P3S4/b4/P7H3PTg7Pm00PDY5/fl8PpeneGDseeIteiewuw4i9z0+f240/HB1/JWmeCZv+tspePk7/pHkd6Yv+sohNp3q+UYf9mPueljoOKpye4xiNvP3vSkx+14reVvqORcmN97OEPyAAAUiklEQVR4nO1dCZOqOrDWkATFBfdxG1TQGcf7///fE9zoTgey4Mx5r95X51bdchRokvS+tFr/j0YQDXuD+DzfZdksy7LdOV59D6O/fqhGEI3i3WWdSik5F0IExb/8P86vn3WTbRb3/tdSGq2ydRpc6WKsrQNjV1pFN5kth3/9uJYYno+p5EJPGiI0ELI9mY/++rENES0PqTlxJTIFZ5Pz518/fh3GpzXngTV1Lyrlftb7ayL0GM8X0mHxIELBu7N/c7/GCRehJ3l3BDLNxn9ND8Lo4L96ZYSik8R/TVQJcSLdz54OjHezf0NURrs2b3L5Sgjk5e/lZDQV4j3k3Wjkk7/lOtGMv5O+HKyz/jsa+9lb1+9Jo5z8kR4wDw3pK7TPXNPuBGH+/7JTKOJBwAylC5OXP+A5g9SAvvCqion0akGcV6PhuP/8cWFMbWbHr3ZOqQGdgZj/Mn3jtax7ritxnf3hVG0c9aPe+fAleVDLjfn++7eIy7HrVD/RVb/sTs7mHKK3WbfrVIaws+3XX6kZfNdsUMHXJ3s51tslNSZJ0F6+gRoCP53qDRquXN/1RzwJKrUHOfmFZRzt6zhMMPO4fD9eVynwQXvQGCUa7Go5zPVN+/G98SaV+oWUh4YoofGx5rX05U/he16+J3ozWuzfKP97FU4lAO5tp39Otfog429jOGepe60K5cLfJviYBbp1fNdO3WoIFGLT2qPTGXYbULM+ZjqzUyRv4Kn9Bb1rGM9ZZw9Tz/ZNPEN00QgP1m3ccByn5K1Cub45VC74bQeLRu47TGjmHfKGxUaPllHiqSz2lf0UTJq59UqjQclTM9e/34U8goyXBN9S+Yq4NHT3GS0e5aah619xIgnkCfD4TZTH4D7KTRnDL3IZZVPXb807dQuY40N9Cnlu6hEyTp0SOW3m6nNqBcVeYWbEVvZWbp4YkaeR/zRxbZJAcoMciFVszmw9Ugojb0D2U2eQCZpVp+pWakC5eT4JZbX5n/WYOINioVFYhuprDllzPqRRl+Cpcud3UUpM8K3268SCs9RZuYnGw1GB4fj2mvoJocVJr/iGooy1a6y/rfoIzFK5iUbL+c9kkQadIvqfQxYx/+PPfJUQG1V6aDdj9XlDzRF8YK9uJHPlZricrVOh8aSGLBAi7KoUtrnzWe+rumjIaq42Jpi6CcOLBtmaSVHvVSTgbsiou551awOXA4I18az6N71sIVxC/8/H2rsReFGWg6UGL2tHyK2Ks9tfHpl38DjQM78KqJLe0OY7EhtVw/AKz1oTwUcX59fIlcBW64sSWwSDGmxZY7FVae0Z6reVjdM1FWwfXYqno0eINs2Gjq01i7XKZcwtWkK3Qfpb79h06JEldgSe1WcMLEwVShUK208+vFxUuHxdUcewIYbEE1pF8CiDhN3F1jwljT1LqKJf2kTDsXOwoNBK/5sSG5WlH9fd0X5XZDxMzR9vRlqbKxsKWxNCSWZfcbc5+pRVFMb28IjyWlh76hfqUes2RV9YQPm4Y/qIhCHrQKGq1VJasxVdecaDFO003S+SxWKhaPmm+zSjXzS3TWuJKLHoCHYljS+2WTz4jF5i+RtvNmFk8Y/JPeoSTyKMLweEAZfpZD6gdP455mcdE0Mq0Ygqh4jZyCjaWE0dX8xWeoMGKyYmcp92b+cUOpjS37qLmaBIGP6uVhX7+EcG/kstO7CUFjdo31c9eSKZG2TRDpQb1P1ig9jMa8vaSfwHYpezeOUr69hQkz6gG4iaaMYH3tfH55oKl1hPtLZXQAVPTh/mt8CyTVS/mimWFKPnB8JKs70htjZvmUw3dineeJ9WazZjxPz4cvD8hNkHyya2p1Dwoz0/w94WXvWG0Ka+8t7T8+fsP8s7f5pkL5YQCjFzydDvo21a5bQZo3cuh63Zi2YL1T1HXJMchsDk3jWoG6Od19G/J7SE4tBqbV8HSVrd9mC1Q5lMPDzXX/BdBtrzhE8hu0rb/0oUWiimkSZzQ0efXy43Dj5oTyIyCwujvhQoEObhzlHbgof60tdSIuxC53BBr72bf1baAOY5h7FBet/9Hk3Qp1oLgtb1zpBCXugwJX+GsTcrMz+C3W7SSKkainlpfErQOXO3JtPyZ2Z3s+MxzaRvIRZCm8LIDrgraWUKzVjN2koKNpIA1wI8PwdpJhzhd9jt0/LCmvgTyTDtA5TdwpohEZ1EtiYeDX4luGuhi7D6ZwhRWmlLdAkaDSJ2JkAL1FHf2wmJivs3gMVfK/PHVC4BpJEisYlVRP4EYr9B5wV76HbA+qkz8z8JDx+mkCKx3cQqLiCj3CsPB/nMk6mAE1wTuhia1DFRJIbtBlK3kXaqsEXoQgyf+RNQz6lUvkcmBUzXFSO+FbIGSETKKV4NaCm/PBbweFbJi56RY43xOXVYazMgDICUzi78Kwo2BU85vALPXbFNe0ZikC+uRy7aU1ks3robiloiD/YG3LNkzqOfhYaXpxHKuwxKiNchvNU3yGuQ1wX+scQzUdaojpt+mjCZoP0kYkK8EG8SoWINuSky7stbGGqrmlD32ITJ8LLC8EPlpHgmp0eIm5a5VwyoD8o5TFjho6RzpKY1qOhAR+aOyixycTqXAGU6cH9ClQdsxTnSdQiHK5EdpoC18R6MCROk45dTDBk/2G/wPqL8KywEEBPOUaVsPy5JpKQOiEwov1RKZEOx11+gTseO4Gfo8W+G8Xh1nm6Px8t0E39u6+UEXag0JHwdHa8qCsg0StEyuBNRgAL55cOv1urSzUuw2RV5x6f6Laor/qAEo1fOL9TMSicKHUOoB89xrCa0zGUKhT6dnRCMPlUU33Azvg4icFVcFwnAN8xZbf9t1at7lBj04bt/8gwoDRXNzC/BQHxVx5FmqtTg7uVEUF7Ix7tdwd2LOfbUJxwvav0C2Cef/8i5KGxDkwKVcon5OpXObgqTak+i9rb+vWgAD+LTw4u4pfIzcEztCDSKOUZqAbxYuHkZobfp6eEFBw1JwxxkEpgRgabCTS0RD/YWYeASoJ17ZzURVEpVtexTk2FTS6C5Jq3yG5Y6OW+gGn33p0G9jNJ+dSk2lQgDG2vopKwiYy42MZTed60G6qtUZGrlsE3DwM4v0VNKLUqawjDOtpP1ZHquSa+5KrvgTd3NC3jMqGzugT2F9n7eSC0UvaX/DLZh0UEz1xE5T+JKIscUMwVbF2s0Ofr2m9TJy6sa/vLcOu9hxjQTrEqtg0lSd7YJThkjwvxEuVYNQjdOqIblRJswsYKq1B5gXoQ3cQGEBZE1o1Ze1KIy4aMCK8PQakWfGijcb+ICMGri9ThwUrM8TwLD2sDHDYG2PgnqmJ38I6h3q840p/xC5txmiHI0UjfQHfQ5oLDQvaF1pGYCq3X2BvBoPjY10y90tanQqVaQA5VVRe+OnMxDNfRjjtisHCOgtXNITiHyoTjv4F+c3ZRSq/IOBLKimbgF6XscqRoaVGkE/oWTxuaWyfhE3+gw0ukIkK0UjBMajfhXRC8II1CagwWULFAKnHI9RpDCnB/syhdTzs/A1UtTk8haBxOblD7sgFEFuecOeOBCXFq+cXVh+DXDMnuxZO0BXEOFQiXvaet2DB2Tpi1vKyjfKmQrOTuYlVdJodCR0Xh23mvVX5982hxA1BRPMa2k0NlHQ6nwxjB2fhFSH6jZhWsUrGGIKXQl0D5pugxTISyJBAfwhWINqzmNO4WWdbkApi5aKiQNHTWZQiEWY+671IdC0yoNKqlX5TRZpTyk6mXNKHR16uYw5W9UHQ901OQUQu8UDoBS7VLMKPThNMYUEmsIzd1cp6nWS49/Ii1Mdynh+oxUvTSutC2c/d1eEt9UzyAsGJj7VCzyoNI+XDp79H20Nk2hrgKhOryQ9fStfCSRqvfpqnk7+zFyLM3uSqneK9Vlgfw0OCLtKC68hIVSnqRBQMTuoLJQ+GlgQErhvz9uxoVnl/gvIxZOCfyMYCvVoSfHUt6K6ioT4FJWGopT6YoL9JAXnwGhri483X+gBn6bFPN8HcKuykuBKL0rocBdqD6a2etE8G7XbBZJCNXSbcA37nELeNIU907fJbRmWauoguqKRgFn36Bw7y2vBHIf1b+ysyeR9BHZQWmXoLsVbAs9UlUaLPIJ/4p1Qo1iZbqA6I1CIkjLIhy5vG/MdkyFTctQWwTXgDXRUfzDIKezQFhOiICW5T0GBiuFAyLn6mgrEz2yml6Iqso0QVKyfN0uIYJrSLwqVn7+Dqz7sLhnNZUw1hdRyRkow32lr8LUvcdp+VFDbghDa2YTOKb8APQ1Bf1BcBUS0/LfWHDTNkd0ih5KxqCMgpM9ifsm6rVioq1b0NkWl+61yytzy0tFxu6DpY9UVz+GqTlTgq7ZsB36GWzNxwS/PBTC/rH84IXYgIbly1CCCeCUg2Xhorr5tvi9I54ILkRQDKAVk1N5a4C+G0G3h1TMV6I3ZECheoI+3PK++LqhIQ3D5Xw63ZzUibNRUmItoZzp1iqrO4guSVE58tf6ZmzKmxhVdL/spIHqgYPAbW6METa0UyvwSTfdbwNrHirXhG/A2WuaM4C3D4XLNFk4QemMaNKjH4jqNikT+madLPCs9alHj1QNgCGICi6wvFhV6fn5eLx1TLffv7+x49snbR2IZQRkQCejYgWT0lDkfcRlJz1uvguf3kDfMSno/sIyqpmNwAEADxoOWlFOdnEaD4ef5f1MVcA8r/j+uXdTvImgFQ6CiIo7imyaSzzyUb9Tg/b7lxHascjjBDOhETelOtLSgZdTRTqTnLybqcL7YVcjqqMEgpry7GuKIYcV3a/YmydtIkd5gP4MLSi4QlR0huvOVVUHMzRpMxoNlstRYyuLukJgIxylyYKQB8FoKlpfV4iNq4ozufOm/vLYzTXp67/upZFpNCgSoPrDITcFG4oIXVTFzion7LGiKfX4UJ5VyXg782e1KPav1rqi5KcSq6XyLxW1p4zqKYkiPE07WK4IvwSjljI0jMhSjqCBVOIkRDuIuvTRc2VHckHJTalWI1kBJahQCWEwslyanUJ4MGr7s+sVfj3djpVOd0BhSPnTcLLcK4ZLJLcYFM7PjDuaPeA1UBBVMdJOd9Q94amcEmkDHYNnoadsVSHwcJVj+478Eippfi6i6tQ3zOKe2i6jcxEDlvaaC6Eg03MRiTEJhrXIvb1lFkDHNTscBTmp0GkOlHosqbDG7RUZh5Y2dk1obWdDPYBq+4gq0RuQ4LvvxW+VQiolUAODIezgym4WCDpI+kIBNEyUF1I4JhiGzd11UzZJuCXAIwu9IqUOl8MWHYXUTG/bIH2mG3pLwKhtPAJWuqpGJKAstrwJLeFJtE5Zi7bGU1dc6jRQ3VLlAmCukm9oVRw66JDDxJBGUhmpBm53XZ1vhptBf1EhC6dCg0FiFklm4hjb5eIgNlOT2Io9o3xD2E4mGg1FoyFTZYKn25PxecTlNTgzDwPb83xI7C4nAomhyFVUSraexcN6ZRyn9esbQT+AbhWqm9Q13+nDMuEhn7ki0snsNKAJ7Y8G84PScIJs1QWAEy/UreXQfv5GoVMiZzFbRrb3yfoy29wxvUySfSglF0oXNRNeXJuBXDdfQUuhz6Cg8Nay6YaAMU0fUaNkLN2cmReFrglPvrOCDNAxiqzXxeyd57Y7hcqtYDrytCZaaKF3QzjHWc0pNHS+0jO7nnCunTTM3naHeT+7mhIEV3dK32dykAFsynQq84Ldc0edy1MMKbTYXFS06QGPGmaHDhsWsBtVT8ywfMAnhbu2P4NQZbgpbCfmUuML7xR6OKfrUh5kHB++Au4y2tm6i4M+4ZIq4zAG1bT0BVEsw0fv9LNmnbyvkMV62g/n1p4Zm4mrKqjpnc8rl63fj1G82SZpIHmR1MZqqLU7hDecNSR69YNotS5aEgPKq9+PRqtTNjsck6+0nSumV4Kph3J67ZrOq2QRvAV03VmECQfrf0RRpPIr13gAMeu+7V3RpBtVJo1Z4UR586HxuGkEusWzOLtd7YXxpINpFOY5RUTX4sC5yIqePu0brW3dhla/iAx429jkJBvzeqR4UgManc1D+KTzSbfDc3TSg7krfxSqO9yFjb5wIkgkCsbcEPW+v79HNkdoSWQkSc9TQ8xuCr0L01wxI963WYvUyqtSmRhNVP1Yg2x05tM5+gFKCxGLRub7WOGbKhKSXgrWA9QYA2YxZq4ZZJSi0MQK5iB1SXMJ3QTG5LRB/zP4gJKcWuzUbhM1MWY4k23gm6wD2JFauDx65fgY4zMhtXW/OQoYZ1JdDsJGb6LBjFzA0Nltq4HGE8gT/ylG1Vh1SROHtRu/sdrJ+HYnfnhncvNIE1dtpvYPgeicfruZnL7rOA6PihFy3zqeiYw6UCOMcgjWQAKsiuFRN0jjfcVUpNQtaBSzpndNb63LbWDBG8XUgDBeHjRemjz6g0Q7COXNpWIftGjKEchFQ7Ij2qTa3JRfKPeb66fMMM5+/CsqVxNB9PB+bJW0KeO0Ap9fVS5Pmc58iBz8tCvm9IQd9xE0VthVDgsSvDt1IjJabgNeFUQV6dtrbh8YVi1ju3AtredWT9P/zhY1k6NYpyFTyQznoCZizQTn69lyWC8o+6P4Z9/h+rN3g3y7fogQHetT8ZgQsr04zFcj2iPw2YuzyyKUBhE10f4NHR/hqjKahIbCfCiFlN3kv+Nlmm3mp3k2+9lO/vsKO9I0vCSI0TC/gtXerHv6jdIi5ScQ1395JMkicBbwtym+9YhTCxrdEMift5e7V9O4t5wzZwchpn9LX45VojFxvBG+QaF3w3BboWc5g8l9AzGgphDNU4t8fAOEorP9NQXGEL1DlUZpSZ5cnN5ev++Cq1XgTyS7Ku/ZL6svFuivLl1pV+oEyRMy2fy75N3R2yWCO1B51WTDY/xv8M5a9AezhEnzzKZCgZ3Mf8G4bRTDeJrcpurqJQnL89SDdJKtXLNy/xzjwfxnsmh3ZJHadFNLi/9ybVymySWLm2uq8KcYD3uD+DzfZdksy7LdOV59D/9vUPYP4H8AaVwb4OYbn+wAAAAASUVORK5CYII=;" vertex="1" parent="1">
          <mxGeometry x="115.87" y="507.65999999999997" width="26.72" height="26.72" as="geometry" />
        </mxCell>
        <mxCell id="ZHnCmB_-eCUDnraLg0bQ-52" value="" style="shape=image;verticalLabelPosition=bottom;labelBackgroundColor=default;verticalAlign=top;aspect=fixed;imageAspect=0;image=https://res.cloudinary.com/practicaldev/image/fetch/s--WwnyWo31--/c_imagga_scale,f_auto,fl_progressive,h_420,q_auto,w_1000/https://dev-to-uploads.s3.amazonaws.com/uploads/articles/3768q3vwjhb637dmjzwa.PNG;clipPath=inset(3.97% 29.67% 0% 27%);" vertex="1" parent="1">
          <mxGeometry x="-24.130000000000003" y="502.38" width="40.04" height="37.26" as="geometry" />
        </mxCell>
        <mxCell id="ZHnCmB_-eCUDnraLg0bQ-53" value="" style="shape=image;verticalLabelPosition=bottom;labelBackgroundColor=default;verticalAlign=top;aspect=fixed;imageAspect=0;image=https://res.cloudinary.com/practicaldev/image/fetch/s--WwnyWo31--/c_imagga_scale,f_auto,fl_progressive,h_420,q_auto,w_1000/https://dev-to-uploads.s3.amazonaws.com/uploads/articles/3768q3vwjhb637dmjzwa.PNG;clipPath=inset(3.97% 29.67% 0% 27%);" vertex="1" parent="1">
          <mxGeometry x="-14.130000000000003" y="512.38" width="40.04" height="37.26" as="geometry" />
        </mxCell>
        <mxCell id="ZHnCmB_-eCUDnraLg0bQ-54" style="edgeStyle=orthogonalEdgeStyle;rounded=0;orthogonalLoop=1;jettySize=auto;html=1;exitX=0;exitY=0.5;exitDx=0;exitDy=0;entryX=1;entryY=0.25;entryDx=0;entryDy=0;endArrow=classic;endFill=1;" edge="1" parent="1">
          <mxGeometry relative="1" as="geometry">
            <mxPoint x="550" y="286" as="sourcePoint" />
            <mxPoint x="269" y="506.75" as="targetPoint" />
            <Array as="points">
              <mxPoint x="530" y="287" />
              <mxPoint x="530" y="507" />
            </Array>
          </mxGeometry>
        </mxCell>
        <mxCell id="ZHnCmB_-eCUDnraLg0bQ-57" style="edgeStyle=orthogonalEdgeStyle;rounded=0;orthogonalLoop=1;jettySize=auto;html=1;exitX=0;exitY=0.5;exitDx=0;exitDy=0;entryX=1;entryY=0.5;entryDx=0;entryDy=0;" edge="1" parent="1" source="ZN_Vx1n1vfZxGkJz-T1u-5" target="ZN_Vx1n1vfZxGkJz-T1u-72">
          <mxGeometry relative="1" as="geometry">
            <Array as="points">
              <mxPoint x="430" y="285" />
              <mxPoint x="430" y="101" />
            </Array>
          </mxGeometry>
        </mxCell>
        <mxCell id="ZHnCmB_-eCUDnraLg0bQ-58" style="edgeStyle=orthogonalEdgeStyle;rounded=0;orthogonalLoop=1;jettySize=auto;html=1;exitX=0;exitY=0.5;exitDx=0;exitDy=0;startArrow=classic;startFill=1;endArrow=classic;endFill=1;" edge="1" parent="1">
          <mxGeometry relative="1" as="geometry">
            <mxPoint x="549" y="469.33" as="sourcePoint" />
            <mxPoint x="469" y="469.42" as="targetPoint" />
            <Array as="points">
              <mxPoint x="489" y="469.33" />
              <mxPoint x="489" y="469.33" />
            </Array>
          </mxGeometry>
        </mxCell>
        <mxCell id="ZHnCmB_-eCUDnraLg0bQ-59" value="" style="shape=image;verticalLabelPosition=bottom;labelBackgroundColor=default;verticalAlign=top;aspect=fixed;imageAspect=0;image=https://mutlubalik.com/wp-content/uploads/2022/05/Drawing1-1.jpg;" vertex="1" parent="1">
          <mxGeometry x="499" y="432.63" width="38.05" height="32.23" as="geometry" />
        </mxCell>
        <mxCell id="ZHnCmB_-eCUDnraLg0bQ-60" value="VNet Peering" style="text;html=1;align=center;verticalAlign=middle;resizable=0;points=[];autosize=1;strokeColor=none;fillColor=none;" vertex="1" parent="1">
          <mxGeometry x="468" y="472.38" width="90" height="30" as="geometry" />
        </mxCell>
      </root>
    </mxGraphModel>
  </diagram>
</mxfile>
